<?xml version="1.0" encoding="utf-8"?>
<!-- Generator: Adobe Illustrator 22.1.0, SVG Export Plug-In . SVG Version: 6.00 Build 0)  -->
<svg version="1.0" id="Layer_1" xmlns="http://www.w3.org/2000/svg" xmlns:xlink="http://www.w3.org/1999/xlink" x="0px" y="0px"
	 width="4548px" height="4548px" viewBox="0 0 4548 4548" enable-background="new 0 0 4548 4548" xml:space="preserve">
<path fill="#FFFFFF" d="M2274,0C1018,0,0,1018,0,2274s1018,2274,2274,2274s2274-1018,2274-2274S3530,0,2274,0z M3184,2800
	c-56,96-179,128-275,73l-723-418c-67-32-114-101-114-181V1193c0-111,91-201,202-201s201,90,201,201v965l636,367
	C3207,2581,3239,2704,3184,2800z"/>
</svg>
