<?xml version="1.0" encoding="UTF-8" standalone="no"?><!-- Generator: Gravit.io --><svg xmlns="http://www.w3.org/2000/svg" xmlns:xlink="http://www.w3.org/1999/xlink" style="isolation:isolate" viewBox="0 0 96 96" width="96pt" height="96pt"><defs><clipPath id="_clipPath_53JNdgQSeXBy5dNyQ721iUlwkxhDRXo8"><rect width="96" height="96"/></clipPath></defs><g clip-path="url(#_clipPath_53JNdgQSeXBy5dNyQ721iUlwkxhDRXo8)"><mask id="_mask_q0RL3695Pm1rHp8TIrcyBjW0CmUoFtC0"><path d=" M 48 91.754 L 41.216 85.455 C 16.99 63.49 1 48.954 1 31.187 C 1 16.651 12.467 5.346 26.842 5.346 C 35.079 5.346 42.832 9.222 48 15.198 C 53.168 9.222 60.921 5.346 69.158 5.346 C 83.694 5.346 95 16.813 95 31.187 C 95 48.954 79.01 63.49 54.784 85.617 L 48 91.754 Z " fill="white" stroke="none"/></mask><path d=" M 48 91.754 L 41.216 85.455 C 16.99 63.49 1 48.954 1 31.187 C 1 16.651 12.467 5.346 26.842 5.346 C 35.079 5.346 42.832 9.222 48 15.198 C 53.168 9.222 60.921 5.346 69.158 5.346 C 83.694 5.346 95 16.813 95 31.187 C 95 48.954 79.01 63.49 54.784 85.617 L 48 91.754 Z " fill="none" mask="url(#_mask_q0RL3695Pm1rHp8TIrcyBjW0CmUoFtC0)" vector-effect="non-scaling-stroke" stroke-width="10" stroke="rgb(255,255,255)" stroke-linejoin="miter" stroke-linecap="butt" stroke-miterlimit="4"/><path d=" M 48 91.754 L 41.216 85.455 C 16.99 63.49 1 48.954 1 31.187 C 1 16.651 12.467 5.346 26.842 5.346 C 35.079 5.346 42.832 9.222 48 15.198 C 53.168 9.222 60.921 5.346 69.158 5.346 C 83.694 5.346 95 16.813 95 31.187 C 95 48.954 79.01 63.49 54.784 85.617 L 48 91.754 Z " fill="none"/></g></svg>