<?xml version="1.0" encoding="utf-8"?>
<!-- Generator: Adobe Illustrator 22.1.0, SVG Export Plug-In . SVG Version: 6.00 Build 0)  -->
<svg version="1.0" id="Layer_1" xmlns="http://www.w3.org/2000/svg" xmlns:xlink="http://www.w3.org/1999/xlink" x="0px" y="0px"
	 width="95px" height="46.4px" viewBox="0 0 95 46.4" enable-background="new 0 0 95 46.4" xml:space="preserve">
<g>
	<path fill="#FFFFFF" d="M71.8,0H23.2C10.4,0,0,10.4,0,23.2s10.4,23.2,23.2,23.2c9.9,0,15-6.2,24.3-6.2s14.4,6.2,24.3,6.2
		C84.6,46.4,95,36,95,23.2S84.6,0,71.8,0z M30.2,26.6h-3.6v3.6c0,1.9-1.5,3.4-3.4,3.4s-3.4-1.5-3.4-3.4v-3.6h-3.6
		c-1.9,0-3.4-1.5-3.4-3.4s1.5-3.4,3.4-3.4h3.6v-3.6c0-1.9,1.5-3.4,3.4-3.4s3.4,1.5,3.4,3.4v3.6h3.6c1.9,0,3.4,1.5,3.4,3.4
		C33.6,25.1,32.1,26.6,30.2,26.6z M50.1,26.8h-5.2c-1,0-1.7-0.8-1.7-1.7c0-1,0.8-1.7,1.7-1.7h5.2c1,0,1.7,0.8,1.7,1.7
		C51.9,26,51.1,26.8,50.1,26.8z M64.8,26.6c-1.9,0-3.4-1.5-3.4-3.4s1.5-3.4,3.4-3.4s3.4,1.5,3.4,3.4C68.2,25.1,66.7,26.6,64.8,26.6z
		 M71.8,33.6c-1.9,0-3.4-1.5-3.4-3.4s1.5-3.4,3.4-3.4s3.4,1.5,3.4,3.4C75.2,32.1,73.7,33.6,71.8,33.6z M71.8,19.6
		c-1.9,0-3.4-1.5-3.4-3.4s1.5-3.4,3.4-3.4s3.4,1.5,3.4,3.4S73.7,19.6,71.8,19.6z M78.8,26.6c-1.9,0-3.4-1.5-3.4-3.4s1.5-3.4,3.4-3.4
		s3.4,1.5,3.4,3.4C82.2,25.1,80.7,26.6,78.8,26.6z"/>
</g>
</svg>
