<?xml version="1.0" encoding="UTF-8" standalone="no"?><!-- Generator: Gravit.io --><svg xmlns="http://www.w3.org/2000/svg" xmlns:xlink="http://www.w3.org/1999/xlink" style="isolation:isolate" viewBox="0 0 28 10" width="28pt" height="10pt"><defs><clipPath id="_clipPath_Q5f1G5FUsWmRuJmleDxcQo3PupkrLCWN"><rect width="28" height="10"/></clipPath></defs><g clip-path="url(#_clipPath_Q5f1G5FUsWmRuJmleDxcQo3PupkrLCWN)"><g><g><path d=" M 5 8 C 6.657 8 8 6.657 8 5 C 8 3.343 6.657 2 5 2 C 3.343 2 2 3.343 2 5 C 2 6.657 3.343 8 5 8 Z  M 14 8 C 15.657 8 17 6.657 17 5 C 17 3.343 15.657 2 14 2 C 12.343 2 11 3.343 11 5 C 11 6.657 12.343 8 14 8 Z  M 23 8 C 24.657 8 26 6.657 26 5 C 26 3.343 24.657 2 23 2 C 21.343 2 20 3.343 20 5 C 20 6.657 21.343 8 23 8 Z " fill-rule="evenodd" fill="rgb(255,255,255)"/></g></g><text transform="matrix(1,0,0,1,0,45)" style="font-family:'Open Sans';font-weight:700;font-size:5px;font-style:normal;font-variant-ligatures:none;fill:#000000;stroke:none;">Created by Pham Thi Dieu Linh</text><text transform="matrix(1,0,0,1,0,50)" style="font-family:'Open Sans';font-weight:700;font-size:5px;font-style:normal;font-variant-ligatures:none;fill:#000000;stroke:none;">from the Noun Project</text></g></svg>