<?xml version="1.0" encoding="UTF-8" standalone="no"?><!-- Generator: Gravit.io --><svg xmlns="http://www.w3.org/2000/svg" xmlns:xlink="http://www.w3.org/1999/xlink" style="isolation:isolate" viewBox="0 0 80 70" width="80pt" height="70pt"><defs><clipPath id="_clipPath_uAaXkN7qLLGzMt7SBxNZQ4uB3xyAqJXp"><rect width="80" height="70"/></clipPath></defs><g clip-path="url(#_clipPath_uAaXkN7qLLGzMt7SBxNZQ4uB3xyAqJXp)"><g><g><g><path d=" M 35.726 29.202 L 48.268 35.16 L 35.726 41.121 L 35.726 29.202 Z " fill="rgb(255,255,255)"/></g><g><path d=" M 40.48 49.598 C 32.521 49.598 26.043 43.121 26.043 35.16 C 26.043 27.2 32.521 20.724 40.48 20.724 C 48.441 20.724 54.916 27.2 54.916 35.16 C 54.916 43.122 48.441 49.598 40.48 49.598 Z  M 40.48 23.756 C 34.191 23.756 29.075 28.87 29.075 35.159 C 29.075 41.452 34.191 46.567 40.48 46.567 C 46.769 46.567 51.888 41.452 51.888 35.159 C 51.889 28.871 46.77 23.756 40.48 23.756 Z " fill="rgb(255,255,255)"/></g></g><path d=" M 74.65 2.11 L 5.353 2.11 C 3.109 2.11 1.291 3.929 1.291 6.169 L 1.291 63.829 C 1.291 66.071 3.108 67.891 5.353 67.891 L 74.65 67.891 C 76.892 67.891 78.709 66.071 78.709 63.829 L 78.709 6.169 C 78.709 3.929 76.893 2.11 74.65 2.11 Z  M 49.914 7.322 C 49.914 6.198 50.825 5.291 51.945 5.291 L 57.09 5.291 C 58.21 5.291 59.119 6.198 59.119 7.322 L 59.119 12.463 C 59.119 13.586 58.21 14.494 57.09 14.494 L 51.945 14.494 C 50.825 14.494 49.914 13.586 49.914 12.463 L 49.914 7.322 Z  M 35.399 7.322 C 35.399 6.198 36.308 5.291 37.429 5.291 L 42.571 5.291 C 43.695 5.291 44.601 6.198 44.601 7.322 L 44.601 12.463 C 44.601 13.586 43.695 14.494 42.571 14.494 L 37.43 14.494 C 36.309 14.494 35.4 13.586 35.4 12.463 L 35.4 7.322 L 35.399 7.322 Z  M 20.883 7.322 C 20.883 6.198 21.791 5.291 22.914 5.291 L 28.059 5.291 C 29.178 5.291 30.088 6.198 30.088 7.322 L 30.088 12.463 C 30.088 13.586 29.178 14.494 28.059 14.494 L 22.914 14.494 C 21.791 14.494 20.883 13.586 20.883 12.463 L 20.883 7.322 Z  M 6.368 7.322 C 6.368 6.198 7.275 5.291 8.399 5.291 L 13.539 5.291 C 14.66 5.291 15.57 6.198 15.57 7.322 L 15.57 12.463 C 15.57 13.586 14.66 14.494 13.539 14.494 L 8.399 14.494 C 7.275 14.494 6.368 13.586 6.368 12.463 L 6.368 7.322 Z  M 6.367 17.635 L 73.636 17.635 L 73.636 52.285 L 6.367 52.285 L 6.367 17.635 Z  M 15.57 62.677 C 15.57 63.798 14.66 64.707 13.539 64.707 L 8.399 64.707 C 7.275 64.707 6.368 63.798 6.368 62.677 L 6.368 57.534 C 6.368 56.412 7.275 55.504 8.399 55.504 L 13.539 55.504 C 14.66 55.504 15.57 56.412 15.57 57.534 L 15.57 62.677 Z  M 30.088 62.677 C 30.088 63.798 29.178 64.707 28.059 64.707 L 22.914 64.707 C 21.791 64.707 20.883 63.798 20.883 62.677 L 20.883 57.534 C 20.883 56.412 21.791 55.504 22.914 55.504 L 28.059 55.504 C 29.178 55.504 30.088 56.412 30.088 57.534 L 30.088 62.677 Z  M 44.602 62.677 C 44.602 63.798 43.696 64.707 42.572 64.707 L 37.43 64.707 C 36.309 64.707 35.4 63.798 35.4 62.677 L 35.4 57.534 C 35.4 56.412 36.309 55.504 37.43 55.504 L 42.572 55.504 C 43.696 55.504 44.602 56.412 44.602 57.534 L 44.602 62.677 Z  M 59.119 62.677 C 59.119 63.798 58.21 64.707 57.09 64.707 L 51.945 64.707 C 50.825 64.707 49.914 63.798 49.914 62.677 L 49.914 57.534 C 49.914 56.412 50.825 55.504 51.945 55.504 L 57.09 55.504 C 58.21 55.504 59.119 56.412 59.119 57.534 L 59.119 62.677 Z  M 73.636 62.677 C 73.636 63.798 72.727 64.707 71.605 64.707 L 66.462 64.707 C 65.342 64.707 64.432 63.798 64.432 62.677 L 64.432 57.534 C 64.432 56.412 65.342 55.504 66.462 55.504 L 71.605 55.504 C 72.727 55.504 73.636 56.412 73.636 57.534 L 73.636 62.677 Z  M 73.636 12.462 C 73.636 13.585 72.727 14.493 71.605 14.493 L 66.462 14.493 C 65.342 14.493 64.432 13.585 64.432 12.462 L 64.432 7.321 C 64.432 6.197 65.342 5.29 66.462 5.29 L 71.605 5.29 C 72.727 5.29 73.636 6.197 73.636 7.321 L 73.636 12.462 Z " fill="rgb(255,255,255)"/></g></g></svg>