<?xml version="1.0" standalone="no"?><!-- Generator: Gravit.io --><svg xmlns="http://www.w3.org/2000/svg" xmlns:xlink="http://www.w3.org/1999/xlink" style="isolation:isolate" viewBox="0 0 100 100" width="100" height="100"><defs><clipPath id="_clipPath_9PbyJ2uPgQjjbPGYYHdYIo1LSAYYYPG5"><rect width="100" height="100"/></clipPath></defs><g clip-path="url(#_clipPath_9PbyJ2uPgQjjbPGYYHdYIo1LSAYYYPG5)"><clipPath id="_clipPath_oaWRKRv9QJYcxT1K2IitAT1JLa4geVph"><rect x="0" y="0" width="100" height="100" transform="matrix(1,0,0,1,0,0)" fill="rgb(255,255,255)"/></clipPath><g clip-path="url(#_clipPath_oaWRKRv9QJYcxT1K2IitAT1JLa4geVph)"><g><clipPath id="_clipPath_Y7t1AHIifPOk4yC7LAeOox4whOuBOLJc"><rect x="0" y="0" width="100" height="100" transform="matrix(1,0,0,1,0,0)" fill="rgb(255,255,255)"/></clipPath><g clip-path="url(#_clipPath_Y7t1AHIifPOk4yC7LAeOox4whOuBOLJc)"><g><g><radialGradient id="_rgradient_1" fx="92.00000000000003" fy="51.000000000000014" cx="92.00000000000003" cy="51.000000000000014" r="49" gradientTransform="matrix(98,0,0,98,1,1)" gradientUnits="userSpaceOnUse"><stop offset="0%" stop-opacity="1" style="stop-color:rgb(255,255,255)"/><stop offset="100%" stop-opacity="0.3" style="stop-color:rgb(255,255,255)"/></radialGradient><path d=" M 50 13 C 70.4 13 87 29.6 87 50 C 87 70.4 70.4 87 50 87 C 29.6 87 13 70.4 13 50 C 13 29.6 29.6 13 50 13 Z  M 50 1 C 22.9 1 1 22.9 1 50 C 1 77.1 22.9 99 50 99 C 77.1 99 99 77.1 99 50 C 99 22.9 77.1 1 50 1 L 50 1 L 50 1 L 50 1 L 50 1 Z " fill="url(#_rgradient_1)"/></g></g></g></g></g></g></svg>