<?xml version="1.0" encoding="utf-8"?>
<!-- Generator: Adobe Illustrator 22.1.0, SVG Export Plug-In . SVG Version: 6.00 Build 0)  -->
<svg version="1.0" id="Layer_1" xmlns="http://www.w3.org/2000/svg" xmlns:xlink="http://www.w3.org/1999/xlink" x="0px" y="0px"
	 width="20px" height="20px" viewBox="0 0 20 20" enable-background="new 0 0 20 20" xml:space="preserve">
<path opacity="0.15" fill="#F2F2F2" d="M17.9,20H2.1C0.9,20,0,19.1,0,17.9V2.1C0,0.9,0.9,0,2.1,0h15.8C19.1,0,20,0.9,20,2.1v15.8
	C20,19.1,19.1,20,17.9,20z"/>
<g opacity="0.25">
	<path fill="#F2F2F2" d="M17.9,1C18.5,1,19,1.5,19,2.1v15.8c0,0.6-0.5,1.1-1.1,1.1H2.1C1.5,19,1,18.5,1,17.9V2.1C1,1.5,1.5,1,2.1,1
		H17.9 M17.9,0H2.1C0.9,0,0,0.9,0,2.1v15.8C0,19.1,0.9,20,2.1,20h15.8c1.1,0,2.1-0.9,2.1-2.1V2.1C20,0.9,19.1,0,17.9,0L17.9,0z"/>
</g>
</svg>
