<?xml version="1.0" encoding="UTF-8" standalone="no"?><!-- Generator: Gravit.io --><svg xmlns="http://www.w3.org/2000/svg" xmlns:xlink="http://www.w3.org/1999/xlink" style="isolation:isolate" viewBox="0 0 100 100" width="100pt" height="100pt"><defs><clipPath id="_clipPath_wKLkJDwnK6JEtVaS5MttL0uk0AqwZNoq"><rect width="100" height="100"/></clipPath></defs><g clip-path="url(#_clipPath_wKLkJDwnK6JEtVaS5MttL0uk0AqwZNoq)"><path d=" M 93 40 L 88 40 C 86.1 40 84.5 38.8 83.8 37 C 83.6 36.4 83.3 35.8 83.1 35.3 C 82.3 33.6 82.6 31.5 84 30.2 L 87.6 26.6 C 89.4 24.8 89.4 22 87.6 20.2 L 79.8 12.4 C 78 10.6 75.2 10.6 73.4 12.4 L 69.8 16 C 68.5 17.3 66.4 17.7 64.7 16.9 C 64.1 16.7 63.6 16.4 63 16.2 C 61.2 15.5 60 13.9 60 12 L 60 7 C 60 4.5 58 2.5 55.5 2.5 L 44.5 2.5 C 42 2.5 40 4.5 40 7 L 40 12.1 C 40 14 38.8 15.7 37 16.3 C 36.4 16.5 35.9 16.7 35.3 17 C 33.6 17.8 31.6 17.4 30.2 16.1 L 26.6 12.5 C 24.8 10.7 22 10.7 20.2 12.5 L 12.4 20.3 C 10.6 22.1 10.6 24.9 12.4 26.7 L 16 30.3 C 17.3 31.6 17.7 33.7 16.9 35.4 C 16.6 36 16.4 36.5 16.2 37.1 C 15.5 38.9 13.9 40.1 12 40.1 L 7 40.1 C 4.5 40.1 2.5 42.1 2.5 44.6 L 2.5 55.6 C 2.5 58 4.5 60 7 60 L 11.9 60 C 13.8 60 15.5 61.2 16.1 63 C 16.3 63.6 16.6 64.2 16.8 64.8 C 17.6 66.5 17.2 68.5 15.9 69.9 L 12.4 73.4 C 10.6 75.2 10.6 78 12.4 79.8 L 20.2 87.6 C 22 89.4 24.8 89.4 26.6 87.6 L 30 84.2 C 31.3 82.9 33.3 82.5 35 83.3 C 35.7 83.6 36.4 83.9 37 84.2 C 38.7 84.9 39.9 86.5 39.9 88.4 L 39.9 93 C 39.9 95.5 41.9 97.5 44.4 97.5 L 55.4 97.5 C 57.9 97.5 59.9 95.5 59.9 93 L 59.9 88.1 C 59.9 86.3 61 84.6 62.8 83.9 C 63.5 83.6 64.2 83.4 64.8 83 C 66.5 82.2 68.5 82.6 69.8 83.9 L 73.2 87.3 C 75 89.1 77.8 89.1 79.6 87.3 L 87.4 79.5 C 89.2 77.7 89.2 74.9 87.4 73.1 L 84 69.8 C 82.7 68.5 82.3 66.5 83.1 64.7 C 83.4 64.1 83.6 63.5 83.8 62.9 C 84.5 61.1 86.1 59.9 88 59.9 L 93 59.9 C 95.5 59.9 97.5 57.9 97.5 55.4 L 97.5 44.4 C 97.5 42 95.5 40 93 40 Z  M 50 67.5 C 40.3 67.5 32.5 59.7 32.5 50 C 32.5 40.3 40.3 32.5 50 32.5 C 59.7 32.5 67.5 40.3 67.5 50 C 67.5 59.7 59.7 67.5 50 67.5 Z " fill="rgb(255,255,255)"/></g></svg>