<?xml version="1.0" standalone="no"?><!-- Generator: Gravit.io --><svg xmlns="http://www.w3.org/2000/svg" xmlns:xlink="http://www.w3.org/1999/xlink" style="isolation:isolate" viewBox="0 0 120.4 92.8" width="120.4" height="92.8"><defs><clipPath id="_clipPath_zY3ORIRUN2IKkJlSbV4ftcXVgdZAddsD"><rect width="120.4" height="92.8"/></clipPath></defs><g clip-path="url(#_clipPath_zY3ORIRUN2IKkJlSbV4ftcXVgdZAddsD)"><g><path d=" M 60.2 89.1 C 60.2 89.1 59.7 89.1 58.9 89.1 C 58 89.1 56.8 89 55.2 88.9 C 53.6 88.8 51.6 88.5 49.4 88.1 C 47.2 87.7 44.7 87.1 42.1 86.2 C 39.5 85.3 36.7 84.2 33.8 82.8 C 31 81.4 28.1 79.5 25.4 77.4 C 22.7 75.2 20.1 72.7 17.9 69.8 C 15.6 66.9 13.7 63.8 12.1 60.4 C 11.7 59.6 11.3 58.7 11 57.9 C 10.9 57.7 10.8 57.5 10.7 57.3 C 10.6 57.1 10.5 56.9 10.5 56.6 C 10.4 56.2 10.2 55.7 10.1 55.3 C 9.4 53.5 9 51.7 8.7 50 C 8.4 48.2 8.2 46.4 8.1 44.6 C 7.9 42.8 7.9 41 8 39.3 C 8.1 35.8 8.6 32.5 9.4 29.4 C 10.2 26.3 11.3 23.5 12.5 21 C 13.7 18.5 15.1 16.4 16.5 14.6 C 16.8 14.2 17.2 13.7 17.5 13.3 C 17.7 13.1 17.8 12.9 18 12.7 C 18.2 12.5 18.3 12.3 18.5 12.1 C 18.8 11.7 19.1 11.4 19.4 11.1 C 19.5 10.9 19.7 10.8 19.8 10.6 C 19.9 10.4 20.1 10.3 20.2 10.2 C 20.8 9.6 21.3 9.1 21.7 8.7 C 22.2 8.3 22.6 7.9 22.9 7.6 C 23.5 7 23.9 6.7 23.9 6.7 L 24 6.8 C 24 6.8 23.7 7.1 23 7.7 C 22.7 8 22.3 8.3 21.8 8.8 C 21.4 9.2 20.9 9.8 20.3 10.3 C 20.2 10.4 20 10.6 19.9 10.7 C 19.8 10.8 19.6 11 19.5 11.2 C 19.2 11.5 18.9 11.9 18.6 12.3 C 18.4 12.5 18.3 12.7 18.1 12.9 C 17.9 13.1 17.8 13.3 17.6 13.5 C 17.3 13.9 17 14.3 16.6 14.8 C 15.3 16.6 13.9 18.7 12.8 21.2 C 11.6 23.7 10.6 26.5 9.8 29.5 C 9 32.6 8.6 35.9 8.5 39.3 C 8.5 41 8.5 42.8 8.6 44.5 C 8.7 46.3 9 48 9.3 49.8 C 9.6 51.6 10 53.3 10.6 55.1 C 10.7 55.5 10.9 56 11 56.4 C 11.1 56.6 11.1 56.8 11.2 57 C 11.3 57.2 11.4 57.4 11.5 57.6 C 11.9 58.4 12.3 59.3 12.6 60.1 C 14.2 63.4 16.2 66.5 18.5 69.2 C 20.8 72 23.3 74.5 26 76.6 C 26.6 77.2 27.3 77.6 28 78.1 C 28.7 78.6 29.4 79.1 30.1 79.5 C 30.8 80 31.5 80.4 32.2 80.8 C 32.9 81.2 33.6 81.6 34.3 82 C 37.1 83.5 39.8 84.6 42.4 85.5 C 45 86.4 47.4 87.1 49.6 87.5 C 50.7 87.7 51.7 87.9 52.7 88.1 C 53.2 88.2 53.6 88.3 54.1 88.3 C 54.5 88.4 55 88.4 55.4 88.5 C 57 88.7 58.3 88.8 59.1 88.9 C 59.8 89 60.2 89 60.2 89.1 L 60.2 89.1 L 60.2 89.1 Z " fill="rgb(255,206,0)"/><path d=" M 46 85.3 C 46 85.3 37.9 86.4 38.7 76.2 C 38.7 76.2 47.5 79.3 46 85.3 Z " fill="rgb(255,206,0)"/><path d=" M 45 88.7 C 45 88.7 38.7 83.5 34 92.5 C 34 92.5 43.1 94.5 45 88.7 Z " fill="rgb(255,206,0)"/><path d=" M 35.7 81.5 C 35.7 81.5 27.6 80.6 30.8 70.9 C 30.7 70.9 38.5 76 35.7 81.5 Z " fill="rgb(255,206,0)"/><path d=" M 33.9 84.5 C 33.9 84.5 29.1 77.9 22.3 85.6 C 22.3 85.6 30.6 89.8 33.9 84.5 Z " fill="rgb(255,206,0)"/><path d=" M 26.7 75.6 C 26.7 75.6 18.8 73.6 23.3 64.4 C 23.3 64.5 30.3 70.6 26.7 75.6 Z " fill="rgb(255,206,0)"/><path d=" M 24.5 78.4 C 24.5 78.4 20.6 71.2 12.9 77.9 C 12.9 77.9 20.5 83.1 24.5 78.4 Z " fill="rgb(255,206,0)"/><path d=" M 18.8 67.8 C 18.8 67.8 11.9 63.5 19 56.1 C 19 56.1 23.8 64.1 18.8 67.8 Z " fill="rgb(255,206,0)"/><path d=" M 15.9 69.8 C 15.9 69.8 14.4 61.8 5 65.8 C 5 65.7 10.7 73.1 15.9 69.8 Z " fill="rgb(255,206,0)"/><path d=" M 13.3 58.5 C 13.3 58.5 7.7 52.6 16.4 47.3 C 16.4 47.3 19.1 56.2 13.3 58.5 Z " fill="rgb(255,206,0)"/><path d=" M 10 59.7 C 10 59.7 10.6 51.6 0.4 53 C 0.5 53 4.1 61.6 10 59.7 Z " fill="rgb(255,206,0)"/><path d=" M 10.4 49 C 10.4 49 6.6 42.4 15.6 39.5 C 15.7 39.5 16.1 48.2 10.4 49 Z " fill="rgb(255,206,0)"/><path d=" M 7.2 49.3 C 7.2 49.3 9.5 42.1 0 41.2 C 0 41.2 1.4 49.7 7.2 49.3 Z " fill="rgb(255,206,0)"/><path d=" M 9.7 38.5 C 9.7 38.5 7.2 31.5 16.4 30.3 C 16.5 30.4 15.3 38.8 9.7 38.5 Z " fill="rgb(255,206,0)"/><path d=" M 6.5 38.3 C 6.5 38.3 10 31.8 1.1 29.2 C 1.1 29.2 1 37.7 6.5 38.3 Z " fill="rgb(255,206,0)"/><path d=" M 11.4 28.5 C 11.4 28.5 10.7 21.1 20 22.3 C 19.9 22.3 16.7 30.1 11.4 28.5 Z " fill="rgb(255,206,0)"/><path d=" M 8.3 27.5 C 8.3 27.5 13.3 22 5.3 17.3 C 5.3 17.3 3.1 25.5 8.3 27.5 Z " fill="rgb(255,206,0)"/><path d=" M 14.9 19.6 C 14.9 19.6 15.9 12.7 24.1 15.7 C 24.1 15.6 19.5 22.2 14.9 19.6 Z " fill="rgb(255,206,0)"/><path d=" M 12.3 18 C 12.3 18 18.1 14 11.7 8 C 11.7 8 7.9 15 12.3 18 Z " fill="rgb(255,206,0)"/><path d=" M 20.7 12 C 20.7 12 23 5.4 30.5 9.9 C 30.4 9.9 24.7 15.4 20.7 12 Z " fill="rgb(255,206,0)"/><path d=" M 18.5 9.9 C 18.5 9.9 24.9 7.1 19.8 0 C 19.8 0 14.7 6.2 18.5 9.9 Z " fill="rgb(255,206,0)"/><path d=" M 25 6.1 C 25 6.1 30 8.9 35 0 C 24.8 0.4 25 6.1 25 6.1 Z " fill="rgb(255,206,0)"/></g><g><path d=" M 60.2 89 C 60.2 89 60.7 89 61.5 88.9 C 62.4 88.8 63.6 88.8 65.2 88.5 C 65.6 88.4 66 88.4 66.5 88.3 C 66.9 88.2 67.4 88.2 67.9 88.1 C 68.9 87.9 69.9 87.7 71 87.5 C 73.2 87 75.6 86.4 78.2 85.5 C 80.8 84.6 83.5 83.5 86.3 82 C 87 81.6 87.7 81.3 88.4 80.8 C 89.1 80.4 89.8 80 90.5 79.5 C 91.2 79 91.9 78.6 92.6 78.1 C 93.3 77.6 94 77.1 94.6 76.6 C 97.3 74.5 99.8 72 102.1 69.2 C 104.4 66.4 106.3 63.3 108 60.1 C 108.4 59.3 108.8 58.4 109.1 57.6 C 109.2 57.4 109.3 57.2 109.4 57 C 109.5 56.8 109.6 56.6 109.6 56.4 C 109.7 56 109.9 55.5 110 55.1 C 110.5 53.4 110.9 51.6 111.3 49.8 C 111.6 48 111.8 46.3 112 44.5 C 112.2 42.7 112.2 41 112.1 39.3 C 112 35.9 111.6 32.6 110.8 29.5 C 110.1 26.4 109 23.6 107.8 21.2 C 106.6 18.7 105.2 16.6 104 14.8 C 103.7 14.4 103.3 13.9 103 13.5 C 102.8 13.3 102.7 13.1 102.5 12.9 C 102.3 12.7 102.2 12.5 102 12.3 C 101.7 11.9 101.4 11.6 101.1 11.2 C 101 11 100.8 10.9 100.7 10.7 C 100.6 10.5 100.4 10.4 100.3 10.3 C 99.7 9.7 99.2 9.2 98.8 8.8 C 98.3 8.4 97.9 8 97.6 7.7 C 97 7.1 96.6 6.8 96.6 6.8 L 96.7 6.7 C 96.7 6.7 97 7 97.7 7.6 C 98 7.9 98.4 8.2 98.9 8.7 C 99.3 9.1 99.8 9.7 100.4 10.2 C 100.5 10.3 100.7 10.5 100.8 10.6 C 101 10.7 101.1 10.9 101.2 11.1 C 101.5 11.4 101.8 11.8 102.1 12.1 C 102.3 12.3 102.4 12.5 102.6 12.7 C 102.8 12.9 102.9 13.1 103.1 13.3 C 103.4 13.7 103.8 14.1 104.1 14.6 C 105.4 16.4 106.8 18.5 108.1 21 C 109.3 23.5 110.4 26.3 111.2 29.4 C 112 32.5 112.5 35.8 112.6 39.3 C 112.7 41 112.6 42.8 112.5 44.6 C 112.4 46.4 112.2 48.2 111.9 50 C 111.6 51.8 111.2 53.6 110.7 55.4 C 110.6 55.8 110.4 56.3 110.3 56.7 C 110.2 56.9 110.2 57.1 110.1 57.4 C 110 57.6 109.9 57.8 109.8 58 C 109.4 58.8 109.1 59.7 108.7 60.5 C 107.1 63.8 105.1 67 102.9 69.9 C 100.6 72.8 98.1 75.3 95.4 77.5 C 92.7 79.7 89.8 81.5 87 82.9 C 84.2 84.3 81.4 85.5 78.7 86.3 C 76.1 87.2 73.6 87.7 71.4 88.2 C 69.2 88.6 67.2 88.9 65.6 89 C 64 89.1 62.7 89.2 61.9 89.2 C 60.7 89.1 60.2 89.1 60.2 89 L 60.2 89 L 60.2 89 Z " fill="rgb(255,206,0)"/><path d=" M 74.4 85.3 C 74.4 85.3 82.5 86.4 81.7 76.2 C 81.7 76.2 72.9 79.3 74.4 85.3 Z " fill="rgb(255,206,0)"/><path d=" M 75.4 88.7 C 75.4 88.7 81.7 83.5 86.4 92.5 C 86.4 92.5 77.3 94.5 75.4 88.7 Z " fill="rgb(255,206,0)"/><path d=" M 84.8 81.5 C 84.8 81.5 92.9 80.6 89.7 70.9 C 89.7 70.9 81.9 76 84.8 81.5 Z " fill="rgb(255,206,0)"/><path d=" M 86.6 84.5 C 86.6 84.5 91.4 77.9 98.2 85.6 C 98.2 85.6 89.8 89.8 86.6 84.5 Z " fill="rgb(255,206,0)"/><path d=" M 93.8 75.6 C 93.8 75.6 101.7 73.6 97.2 64.4 C 97.1 64.5 90.1 70.6 93.8 75.6 Z " fill="rgb(255,206,0)"/><path d=" M 95.9 78.4 C 95.9 78.4 99.8 71.2 107.5 77.9 C 107.6 77.9 99.9 83.1 95.9 78.4 Z " fill="rgb(255,206,0)"/><path d=" M 101.6 67.8 C 101.6 67.8 108.5 63.5 101.4 56.1 C 101.5 56.1 96.6 64.1 101.6 67.8 Z " fill="rgb(255,206,0)"/><path d=" M 104.5 69.8 C 104.5 69.8 106 61.8 115.4 65.8 C 115.5 65.7 109.7 73.1 104.5 69.8 Z " fill="rgb(255,206,0)"/><path d=" M 107.1 58.5 C 107.1 58.5 112.7 52.6 104 47.3 C 104 47.3 101.4 56.2 107.1 58.5 Z " fill="rgb(255,206,0)"/><path d=" M 110.4 59.7 C 110.4 59.7 109.8 51.6 120 53 C 120 53 116.3 61.6 110.4 59.7 Z " fill="rgb(255,206,0)"/><path d=" M 110 49 C 110 49 113.8 42.4 104.8 39.5 C 104.8 39.5 104.4 48.2 110 49 Z " fill="rgb(255,206,0)"/><path d=" M 113.3 49.3 C 113.3 49.3 111 42.1 120.5 41.2 C 120.4 41.2 119 49.7 113.3 49.3 Z " fill="rgb(255,206,0)"/><path d=" M 110.7 38.5 C 110.7 38.5 113.2 31.5 104 30.3 C 104 30.4 105.1 38.8 110.7 38.5 Z " fill="rgb(255,206,0)"/><path d=" M 113.9 38.3 C 113.9 38.3 110.4 31.8 119.3 29.2 C 119.3 29.2 119.5 37.7 113.9 38.3 Z " fill="rgb(255,206,0)"/><path d=" M 109.1 28.5 C 109.1 28.5 109.8 21.1 100.5 22.3 C 100.5 22.3 103.7 30.1 109.1 28.5 Z " fill="rgb(255,206,0)"/><path d=" M 112.1 27.5 C 112.1 27.5 107.1 22 115.1 17.3 C 115.1 17.3 117.4 25.5 112.1 27.5 Z " fill="rgb(255,206,0)"/><path d=" M 105.6 19.6 C 105.6 19.6 104.6 12.7 96.4 15.7 C 96.4 15.6 101 22.2 105.6 19.6 Z " fill="rgb(255,206,0)"/><path d=" M 108.1 18 C 108.1 18 102.3 14 108.7 8 C 108.7 8 112.5 15 108.1 18 Z " fill="rgb(255,206,0)"/><path d=" M 99.8 12 C 99.8 12 97.5 5.4 90 9.9 C 90 9.9 95.8 15.4 99.8 12 Z " fill="rgb(255,206,0)"/><path d=" M 102 9.9 C 102 9.9 95.6 7.1 100.7 0 C 100.6 0 105.7 6.2 102 9.9 Z " fill="rgb(255,206,0)"/><path d=" M 95.4 6.1 C 95.4 6.1 90.4 8.9 85.4 0 C 95.7 0.4 95.4 6.1 95.4 6.1 Z " fill="rgb(255,206,0)"/></g></g></svg>