<?xml version="1.0" encoding="utf-8"?>
<!-- Generator: Adobe Illustrator 22.1.0, SVG Export Plug-In . SVG Version: 6.00 Build 0)  -->
<svg version="1.0" id="Layer_1" xmlns="http://www.w3.org/2000/svg" xmlns:xlink="http://www.w3.org/1999/xlink" x="0px" y="0px"
	 width="120.4px" height="92.8px" viewBox="0 0 120.4 92.8" enable-background="new 0 0 120.4 92.8" xml:space="preserve">
<g>
	<g>
		<path fill="#FFFFFF" d="M60.2,89.1c0,0-0.5,0-1.3,0c-0.9,0-2.1-0.1-3.7-0.2c-1.6-0.1-3.6-0.4-5.8-0.8c-2.2-0.4-4.7-1-7.3-1.9
			c-2.6-0.9-5.4-2-8.3-3.4c-2.8-1.4-5.7-3.3-8.4-5.4c-2.7-2.2-5.3-4.7-7.5-7.6c-2.3-2.9-4.2-6-5.8-9.4c-0.4-0.8-0.8-1.7-1.1-2.5
			c-0.1-0.2-0.2-0.4-0.3-0.6c-0.1-0.2-0.2-0.4-0.2-0.7c-0.1-0.4-0.3-0.9-0.4-1.3C9.4,53.5,9,51.7,8.7,50c-0.3-1.8-0.5-3.6-0.6-5.4
			C7.9,42.8,7.9,41,8,39.3c0.1-3.5,0.6-6.8,1.4-9.9c0.8-3.1,1.9-5.9,3.1-8.4c1.2-2.5,2.6-4.6,4-6.4c0.3-0.4,0.7-0.9,1-1.3
			c0.2-0.2,0.3-0.4,0.5-0.6c0.2-0.2,0.3-0.4,0.5-0.6c0.3-0.4,0.6-0.7,0.9-1c0.1-0.2,0.3-0.3,0.4-0.5c0.1-0.2,0.3-0.3,0.4-0.4
			c0.6-0.6,1.1-1.1,1.5-1.5c0.5-0.4,0.9-0.8,1.2-1.1c0.6-0.6,1-0.9,1-0.9l0.1,0.1c0,0-0.3,0.3-1,0.9c-0.3,0.3-0.7,0.6-1.2,1.1
			c-0.4,0.4-0.9,1-1.5,1.5c-0.1,0.1-0.3,0.3-0.4,0.4c-0.1,0.1-0.3,0.3-0.4,0.5c-0.3,0.3-0.6,0.7-0.9,1.1c-0.2,0.2-0.3,0.4-0.5,0.6
			c-0.2,0.2-0.3,0.4-0.5,0.6c-0.3,0.4-0.6,0.8-1,1.3c-1.3,1.8-2.7,3.9-3.8,6.4c-1.2,2.5-2.2,5.3-3,8.3c-0.8,3.1-1.2,6.4-1.3,9.8
			c0,1.7,0,3.5,0.1,5.2c0.1,1.8,0.4,3.5,0.7,5.3c0.3,1.8,0.7,3.5,1.3,5.3c0.1,0.4,0.3,0.9,0.4,1.3c0.1,0.2,0.1,0.4,0.2,0.6
			c0.1,0.2,0.2,0.4,0.3,0.6c0.4,0.8,0.8,1.7,1.1,2.5c1.6,3.3,3.6,6.4,5.9,9.1c2.3,2.8,4.8,5.3,7.5,7.4c0.6,0.6,1.3,1,2,1.5
			c0.7,0.5,1.4,1,2.1,1.4c0.7,0.5,1.4,0.9,2.1,1.3c0.7,0.4,1.4,0.8,2.1,1.2c2.8,1.5,5.5,2.6,8.1,3.5c2.6,0.9,5,1.6,7.2,2
			c1.1,0.2,2.1,0.4,3.1,0.6c0.5,0.1,0.9,0.2,1.4,0.2c0.4,0.1,0.9,0.1,1.3,0.2c1.6,0.2,2.9,0.3,3.7,0.4C59.8,89,60.2,89,60.2,89.1
			L60.2,89.1z"/>
		<path fill="#FFFFFF" d="M46,85.3c0,0-8.1,1.1-7.3-9.1C38.7,76.2,47.5,79.3,46,85.3z"/>
		<path fill="#FFFFFF" d="M45,88.7c0,0-6.3-5.2-11,3.8C34,92.5,43.1,94.5,45,88.7z"/>
		<path fill="#FFFFFF" d="M35.7,81.5c0,0-8.1-0.9-4.9-10.6C30.7,70.9,38.5,76,35.7,81.5z"/>
		<path fill="#FFFFFF" d="M33.9,84.5c0,0-4.8-6.6-11.6,1.1C22.3,85.6,30.6,89.8,33.9,84.5z"/>
		<path fill="#FFFFFF" d="M26.7,75.6c0,0-7.9-2-3.4-11.2C23.3,64.5,30.3,70.6,26.7,75.6z"/>
		<path fill="#FFFFFF" d="M24.5,78.4c0,0-3.9-7.2-11.6-0.5C12.9,77.9,20.5,83.1,24.5,78.4z"/>
		<path fill="#FFFFFF" d="M18.8,67.8c0,0-6.9-4.3,0.2-11.7C19,56.1,23.8,64.1,18.8,67.8z"/>
		<path fill="#FFFFFF" d="M15.9,69.8c0,0-1.5-8-10.9-4C5,65.7,10.7,73.1,15.9,69.8z"/>
		<path fill="#FFFFFF" d="M13.3,58.5c0,0-5.6-5.9,3.1-11.2C16.4,47.3,19.1,56.2,13.3,58.5z"/>
		<path fill="#FFFFFF" d="M10,59.7c0,0,0.6-8.1-9.6-6.7C0.5,53,4.1,61.6,10,59.7z"/>
		<path fill="#FFFFFF" d="M10.4,49c0,0-3.8-6.6,5.2-9.5C15.7,39.5,16.1,48.2,10.4,49z"/>
		<path fill="#FFFFFF" d="M7.2,49.3c0,0,2.3-7.2-7.2-8.1C0,41.2,1.4,49.7,7.2,49.3z"/>
		<path fill="#FFFFFF" d="M9.7,38.5c0,0-2.5-7,6.7-8.2C16.5,30.4,15.3,38.8,9.7,38.5z"/>
		<path fill="#FFFFFF" d="M6.5,38.3c0,0,3.5-6.5-5.4-9.1C1.1,29.2,1,37.7,6.5,38.3z"/>
		<path fill="#FFFFFF" d="M11.4,28.5c0,0-0.7-7.4,8.6-6.2C19.9,22.3,16.7,30.1,11.4,28.5z"/>
		<path fill="#FFFFFF" d="M8.3,27.5c0,0,5-5.5-3-10.2C5.3,17.3,3.1,25.5,8.3,27.5z"/>
		<path fill="#FFFFFF" d="M14.9,19.6c0,0,1-6.9,9.2-3.9C24.1,15.6,19.5,22.2,14.9,19.6z"/>
		<path fill="#FFFFFF" d="M12.3,18c0,0,5.8-4-0.6-10C11.7,8,7.9,15,12.3,18z"/>
		<path fill="#FFFFFF" d="M20.7,12c0,0,2.3-6.6,9.8-2.1C30.4,9.9,24.7,15.4,20.7,12z"/>
		<path fill="#FFFFFF" d="M18.5,9.9c0,0,6.4-2.8,1.3-9.9C19.8,0,14.7,6.2,18.5,9.9z"/>
		<path fill="#FFFFFF" d="M25,6.1c0,0,5,2.8,10-6.1C24.8,0.4,25,6.1,25,6.1z"/>
	</g>
	<g>
		<path fill="#FFFFFF" d="M60.2,89c0,0,0.5,0,1.3-0.1c0.9-0.1,2.1-0.1,3.7-0.4c0.4-0.1,0.8-0.1,1.3-0.2c0.4-0.1,0.9-0.1,1.4-0.2
			c1-0.2,2-0.4,3.1-0.6c2.2-0.5,4.6-1.1,7.2-2c2.6-0.9,5.3-2,8.1-3.5c0.7-0.4,1.4-0.7,2.1-1.2c0.7-0.4,1.4-0.8,2.1-1.3
			c0.7-0.5,1.4-0.9,2.1-1.4c0.7-0.5,1.4-1,2-1.5c2.7-2.1,5.2-4.6,7.5-7.4c2.3-2.8,4.2-5.9,5.9-9.1c0.4-0.8,0.8-1.7,1.1-2.5
			c0.1-0.2,0.2-0.4,0.3-0.6c0.1-0.2,0.2-0.4,0.2-0.6c0.1-0.4,0.3-0.9,0.4-1.3c0.5-1.7,0.9-3.5,1.3-5.3c0.3-1.8,0.5-3.5,0.7-5.3
			c0.2-1.8,0.2-3.5,0.1-5.2c-0.1-3.4-0.5-6.7-1.3-9.8c-0.7-3.1-1.8-5.9-3-8.3c-1.2-2.5-2.6-4.6-3.8-6.4c-0.3-0.4-0.7-0.9-1-1.3
			c-0.2-0.2-0.3-0.4-0.5-0.6c-0.2-0.2-0.3-0.4-0.5-0.6c-0.3-0.4-0.6-0.7-0.9-1.1c-0.1-0.2-0.3-0.3-0.4-0.5c-0.1-0.2-0.3-0.3-0.4-0.4
			c-0.6-0.6-1.1-1.1-1.5-1.5c-0.5-0.4-0.9-0.8-1.2-1.1c-0.6-0.6-1-0.9-1-0.9l0.1-0.1c0,0,0.3,0.3,1,0.9c0.3,0.3,0.7,0.6,1.2,1.1
			c0.4,0.4,0.9,1,1.5,1.5c0.1,0.1,0.3,0.3,0.4,0.4c0.2,0.1,0.3,0.3,0.4,0.5c0.3,0.3,0.6,0.7,0.9,1c0.2,0.2,0.3,0.4,0.5,0.6
			c0.2,0.2,0.3,0.4,0.5,0.6c0.3,0.4,0.7,0.8,1,1.3c1.3,1.8,2.7,3.9,4,6.4c1.2,2.5,2.3,5.3,3.1,8.4c0.8,3.1,1.3,6.4,1.4,9.9
			c0.1,1.7,0,3.5-0.1,5.3c-0.1,1.8-0.3,3.6-0.6,5.4c-0.3,1.8-0.7,3.6-1.2,5.4c-0.1,0.4-0.3,0.9-0.4,1.3c-0.1,0.2-0.1,0.4-0.2,0.7
			c-0.1,0.2-0.2,0.4-0.3,0.6c-0.4,0.8-0.7,1.7-1.1,2.5c-1.6,3.3-3.6,6.5-5.8,9.4c-2.3,2.9-4.8,5.4-7.5,7.6c-2.7,2.2-5.6,4-8.4,5.4
			c-2.8,1.4-5.6,2.6-8.3,3.4c-2.6,0.9-5.1,1.4-7.3,1.9c-2.2,0.4-4.2,0.7-5.8,0.8c-1.6,0.1-2.9,0.2-3.7,0.2
			C60.7,89.1,60.2,89.1,60.2,89L60.2,89z"/>
		<path fill="#FFFFFF" d="M74.4,85.3c0,0,8.1,1.1,7.3-9.1C81.7,76.2,72.9,79.3,74.4,85.3z"/>
		<path fill="#FFFFFF" d="M75.4,88.7c0,0,6.3-5.2,11,3.8C86.4,92.5,77.3,94.5,75.4,88.7z"/>
		<path fill="#FFFFFF" d="M84.8,81.5c0,0,8.1-0.9,4.9-10.6C89.7,70.9,81.9,76,84.8,81.5z"/>
		<path fill="#FFFFFF" d="M86.6,84.5c0,0,4.8-6.6,11.6,1.1C98.2,85.6,89.8,89.8,86.6,84.5z"/>
		<path fill="#FFFFFF" d="M93.8,75.6c0,0,7.9-2,3.4-11.2C97.1,64.5,90.1,70.6,93.8,75.6z"/>
		<path fill="#FFFFFF" d="M95.9,78.4c0,0,3.9-7.2,11.6-0.5C107.6,77.9,99.9,83.1,95.9,78.4z"/>
		<path fill="#FFFFFF" d="M101.6,67.8c0,0,6.9-4.3-0.2-11.7C101.5,56.1,96.6,64.1,101.6,67.8z"/>
		<path fill="#FFFFFF" d="M104.5,69.8c0,0,1.5-8,10.9-4C115.5,65.7,109.7,73.1,104.5,69.8z"/>
		<path fill="#FFFFFF" d="M107.1,58.5c0,0,5.6-5.9-3.1-11.2C104,47.3,101.4,56.2,107.1,58.5z"/>
		<path fill="#FFFFFF" d="M110.4,59.7c0,0-0.6-8.1,9.6-6.7C120,53,116.3,61.6,110.4,59.7z"/>
		<path fill="#FFFFFF" d="M110,49c0,0,3.8-6.6-5.2-9.5C104.8,39.5,104.4,48.2,110,49z"/>
		<path fill="#FFFFFF" d="M113.3,49.3c0,0-2.3-7.2,7.2-8.1C120.4,41.2,119,49.7,113.3,49.3z"/>
		<path fill="#FFFFFF" d="M110.7,38.5c0,0,2.5-7-6.7-8.2C104,30.4,105.1,38.8,110.7,38.5z"/>
		<path fill="#FFFFFF" d="M113.9,38.3c0,0-3.5-6.5,5.4-9.1C119.3,29.2,119.5,37.7,113.9,38.3z"/>
		<path fill="#FFFFFF" d="M109.1,28.5c0,0,0.7-7.4-8.6-6.2C100.5,22.3,103.7,30.1,109.1,28.5z"/>
		<path fill="#FFFFFF" d="M112.1,27.5c0,0-5-5.5,3-10.2C115.1,17.3,117.4,25.5,112.1,27.5z"/>
		<path fill="#FFFFFF" d="M105.6,19.6c0,0-1-6.9-9.2-3.9C96.4,15.6,101,22.2,105.6,19.6z"/>
		<path fill="#FFFFFF" d="M108.1,18c0,0-5.8-4,0.6-10C108.7,8,112.5,15,108.1,18z"/>
		<path fill="#FFFFFF" d="M99.8,12c0,0-2.3-6.6-9.8-2.1C90,9.9,95.8,15.4,99.8,12z"/>
		<path fill="#FFFFFF" d="M102,9.9c0,0-6.4-2.8-1.3-9.9C100.6,0,105.7,6.2,102,9.9z"/>
		<path fill="#FFFFFF" d="M95.4,6.1c0,0-5,2.8-10-6.1C95.7,0.4,95.4,6.1,95.4,6.1z"/>
	</g>
</g>
</svg>
