<?xml version="1.0" encoding="UTF-8" standalone="no"?><!-- Generator: Gravit.io --><svg xmlns="http://www.w3.org/2000/svg" xmlns:xlink="http://www.w3.org/1999/xlink" style="isolation:isolate" viewBox="0 0 64 64" width="64pt" height="64pt"><defs><clipPath id="_clipPath_R9sHrZiPKeBlGZlgIZblL7u19gOtC5Nb"><rect width="64" height="64"/></clipPath></defs><g clip-path="url(#_clipPath_R9sHrZiPKeBlGZlgIZblL7u19gOtC5Nb)"><path d=" M 32 60.84 C 28.08 60.84 24.89 57.65 24.89 53.73 C 24.89 49.81 28.08 46.62 32 46.62 C 35.92 46.62 39.11 49.81 39.11 53.73 C 39.11 57.65 35.92 60.84 32 60.84 Z  M 32 64 C 37.67 64 42.27 59.4 42.27 53.73 C 42.27 48.06 37.67 43.46 32 43.46 C 26.33 43.46 21.73 48.06 21.73 53.73 C 21.73 59.4 26.33 64 32 64 L 32 64 L 32 64 L 32 64 Z " fill="rgb(255,255,255)"/><path d=" M 42.27 10.27 C 42.27 15.938 37.668 20.54 32 20.54 C 26.332 20.54 21.73 15.938 21.73 10.27 C 21.73 4.602 26.332 0 32 0 C 37.668 0 42.27 4.602 42.27 10.27 Z " fill="rgb(255,255,255)"/><path d=" M 10.27 39.11 C 6.35 39.11 3.16 35.92 3.16 32 C 3.16 28.08 6.35 24.89 10.27 24.89 C 14.19 24.89 17.38 28.08 17.38 32 C 17.38 35.92 14.19 39.11 10.27 39.11 Z  M 10.27 42.27 C 15.94 42.27 20.54 37.67 20.54 32 C 20.54 26.33 15.94 21.73 10.27 21.73 C 4.6 21.73 0 26.33 0 32 C 0 37.67 4.6 42.27 10.27 42.27 L 10.27 42.27 L 10.27 42.27 L 10.27 42.27 Z " fill="rgb(255,255,255)"/><path d=" M 53.73 39.11 C 49.81 39.11 46.62 35.92 46.62 32 C 46.62 28.08 49.81 24.89 53.73 24.89 C 57.65 24.89 60.84 28.08 60.84 32 C 60.84 35.92 57.65 39.11 53.73 39.11 Z  M 53.73 42.27 C 59.4 42.27 64 37.67 64 32 C 64 26.33 59.4 21.73 53.73 21.73 C 48.06 21.73 43.46 26.33 43.46 32 C 43.46 37.67 48.06 42.27 53.73 42.27 L 53.73 42.27 L 53.73 42.27 L 53.73 42.27 Z " fill="rgb(255,255,255)"/></g></svg>