<?xml version="1.0" encoding="UTF-8" standalone="no"?><!-- Generator: Gravit.io --><svg xmlns="http://www.w3.org/2000/svg" xmlns:xlink="http://www.w3.org/1999/xlink" style="isolation:isolate" viewBox="0 0 64 64" width="64pt" height="64pt"><defs><clipPath id="_clipPath_Kc0eyUxFuHbzml5AmTKESgg6QGqrYOJr"><rect width="64" height="64"/></clipPath></defs><g clip-path="url(#_clipPath_Kc0eyUxFuHbzml5AmTKESgg6QGqrYOJr)"><path d=" M 61.42 21.33 L 45.25 21.33 C 43.82 21.33 42.67 20.17 42.67 18.75 L 42.67 2.58 C 42.67 1.15 41.51 0 40.09 0 L 23.92 0 C 22.49 0 21.34 1.16 21.34 2.58 L 21.34 18.74 C 21.34 20.17 20.18 21.32 18.76 21.32 L 2.58 21.32 C 1.16 21.33 0 22.49 0 23.92 L 0 40.08 C 0 41.51 1.16 42.66 2.58 42.66 L 18.74 42.66 C 20.17 42.66 21.32 43.82 21.32 45.24 L 21.32 61.4 C 21.32 62.83 22.48 63.98 23.9 63.98 L 40.06 63.98 C 41.49 63.98 42.64 62.82 42.64 61.4 L 42.64 45.25 C 42.64 43.82 43.8 42.67 45.22 42.67 L 61.38 42.67 C 62.81 42.67 63.96 41.51 63.96 40.09 L 63.96 23.92 C 64 22.49 62.84 21.33 61.42 21.33 Z  M 38.01 51.17 L 32.46 58.93 C 32.23 59.25 31.75 59.25 31.52 58.93 L 25.97 51.17 C 25.7 50.79 25.97 50.26 26.44 50.26 L 37.53 50.26 C 38.01 50.26 38.29 50.79 38.01 51.17 Z " fill="rgb(255,255,255)"/></g></svg>