<?xml version="1.0" encoding="UTF-8" standalone="no"?><!-- Generator: Gravit.io --><svg xmlns="http://www.w3.org/2000/svg" xmlns:xlink="http://www.w3.org/1999/xlink" style="isolation:isolate" viewBox="0 0 64 64" width="64pt" height="64pt"><defs><clipPath id="_clipPath_QRm6XCqWamdIHZDBXmyTEg9c4ltLe1cb"><rect width="64" height="64"/></clipPath></defs><g clip-path="url(#_clipPath_QRm6XCqWamdIHZDBXmyTEg9c4ltLe1cb)"><path d=" M 42.67 61.42 L 42.67 45.25 C 42.67 43.82 43.83 42.67 45.25 42.67 L 61.42 42.67 C 62.85 42.67 64 41.51 64 40.09 L 64 23.92 C 64 22.49 62.84 21.34 61.42 21.34 L 45.26 21.34 C 43.83 21.34 42.68 20.18 42.68 18.76 L 42.68 2.58 C 42.67 1.16 41.51 0 40.08 0 L 23.92 0 C 22.49 0 21.34 1.16 21.34 2.58 L 21.34 18.74 C 21.34 20.17 20.18 21.32 18.76 21.32 L 2.6 21.32 C 1.17 21.32 0.02 22.48 0.02 23.9 L 0.02 40.06 C 0.02 41.49 1.18 42.64 2.6 42.64 L 18.75 42.64 C 20.18 42.64 21.33 43.8 21.33 45.22 L 21.33 61.38 C 21.33 62.81 22.49 63.96 23.91 63.96 L 40.08 63.96 C 41.51 64 42.67 62.84 42.67 61.42 Z  M 12.83 38.01 L 5.07 32.46 C 4.75 32.23 4.75 31.75 5.07 31.52 L 12.83 25.97 C 13.21 25.7 13.74 25.97 13.74 26.44 L 13.74 37.53 C 13.74 38.01 13.21 38.29 12.83 38.01 Z " fill="rgb(255,255,255)"/></g></svg>