<?xml version="1.0" encoding="UTF-8" standalone="no"?><!-- Generator: Gravit.io --><svg xmlns="http://www.w3.org/2000/svg" xmlns:xlink="http://www.w3.org/1999/xlink" style="isolation:isolate" viewBox="0 0 64 64" width="64pt" height="64pt"><defs><clipPath id="_clipPath_mKJIAxynD5USeZFdlvafYrVlF82fXIXo"><rect width="64" height="64"/></clipPath></defs><g clip-path="url(#_clipPath_mKJIAxynD5USeZFdlvafYrVlF82fXIXo)"><path d=" M 21.33 2.58 L 21.33 18.75 C 21.33 20.18 20.17 21.33 18.75 21.33 L 2.58 21.33 C 1.15 21.33 0 22.49 0 23.91 L 0 40.08 C 0 41.51 1.16 42.66 2.58 42.66 L 18.74 42.66 C 20.17 42.66 21.32 43.82 21.32 45.24 L 21.32 61.42 C 21.33 62.84 22.49 64 23.92 64 L 40.08 64 C 41.51 64 42.66 62.84 42.66 61.42 L 42.66 45.26 C 42.66 43.83 43.82 42.68 45.24 42.68 L 61.4 42.68 C 62.83 42.68 63.98 41.52 63.98 40.1 L 63.98 23.94 C 63.98 22.51 62.82 21.36 61.4 21.36 L 45.25 21.36 C 43.82 21.36 42.67 20.2 42.67 18.78 L 42.67 2.62 C 42.67 1.19 41.51 0.04 40.09 0.04 L 23.92 0.04 C 22.49 0 21.33 1.16 21.33 2.58 Z  M 51.17 25.99 L 58.93 31.54 C 59.25 31.77 59.25 32.25 58.93 32.48 L 51.17 38.03 C 50.79 38.3 50.26 38.03 50.26 37.56 L 50.26 26.47 C 50.26 25.99 50.79 25.71 51.17 25.99 Z " fill="rgb(255,255,255)"/></g></svg>