<?xml version="1.0" encoding="UTF-8" standalone="no"?><!-- Generator: Gravit.io --><svg xmlns="http://www.w3.org/2000/svg" xmlns:xlink="http://www.w3.org/1999/xlink" style="isolation:isolate" viewBox="0 0 64 64" width="64pt" height="64pt"><defs><clipPath id="_clipPath_lELbCT99ew2vuzv86VyAAcqPU0NdvBKc"><rect width="64" height="64"/></clipPath></defs><g clip-path="url(#_clipPath_lELbCT99ew2vuzv86VyAAcqPU0NdvBKc)"><path d=" M 2.58 42.67 L 18.75 42.67 C 20.18 42.67 21.33 43.83 21.33 45.25 L 21.33 61.42 C 21.33 62.85 22.49 64 23.91 64 L 40.08 64 C 41.51 64 42.66 62.84 42.66 61.42 L 42.66 45.26 C 42.66 43.83 43.82 42.68 45.24 42.68 L 61.42 42.68 C 62.84 42.67 64 41.51 64 40.08 L 64 23.92 C 64 22.49 62.84 21.34 61.42 21.34 L 45.26 21.34 C 43.83 21.34 42.68 20.18 42.68 18.76 L 42.68 2.6 C 42.68 1.17 41.52 0.02 40.1 0.02 L 23.94 0.02 C 22.51 0.02 21.36 1.18 21.36 2.6 L 21.36 18.75 C 21.36 20.18 20.2 21.33 18.78 21.33 L 2.62 21.33 C 1.19 21.33 0.04 22.49 0.04 23.91 L 0.04 40.08 C 0 41.51 1.16 42.67 2.58 42.67 Z  M 25.99 12.83 L 31.54 5.07 C 31.77 4.75 32.25 4.75 32.48 5.07 L 38.03 12.83 C 38.3 13.21 38.03 13.74 37.56 13.74 L 26.47 13.74 C 25.99 13.74 25.71 13.21 25.99 12.83 Z " fill="rgb(255,255,255)"/></g></svg>