<?xml version="1.0" encoding="UTF-8" standalone="no"?><!-- Generator: Gravit.io --><svg xmlns="http://www.w3.org/2000/svg" xmlns:xlink="http://www.w3.org/1999/xlink" style="isolation:isolate" viewBox="0 0 2170.882 269.291" width="2170.882pt" height="269.291pt"><defs><clipPath id="_clipPath_wcDyh2GJURAAGbBtnhLSQj0JHkUkxByA"><rect width="2170.882" height="269.291"/></clipPath></defs><g clip-path="url(#_clipPath_wcDyh2GJURAAGbBtnhLSQj0JHkUkxByA)"><path d=" M 1135.367 236.222 C 1135.367 238.927 1133.135 241.141 1130.421 241.141 L 1036.045 241.141 C 1033.303 241.141 1031.108 238.927 1031.108 236.222 L 1031.108 167.958 C 1031.108 165.244 1033.303 163.048 1036.045 163.048 L 1130.421 163.048 C 1133.135 163.048 1135.367 165.244 1135.367 167.958 L 1135.367 236.222 Z  M 1131.273 142.569 L 1035.174 142.569 C 1021.262 142.569 1009.961 153.953 1009.961 167.819 L 1009.961 236.38 C 1009.961 250.227 1021.262 261.602 1035.174 261.602 L 1131.273 261.602 C 1145.185 261.602 1156.513 250.227 1156.513 236.38 L 1156.513 167.819 C 1156.513 153.953 1145.185 142.569 1131.273 142.569 Z " fill="rgb(255,255,255)"/><path d=" M 29.141 39.995 L 29.141 128.211 L 7.087 128.211 L 7.087 9.141 L 25.917 9.141 L 115.199 95.866 L 115.199 9.141 L 132.835 9.141 L 136.966 9.141 L 136.966 128.211 L 119.738 128.211 L 29.141 39.995 Z " fill="rgb(255,255,255)"/><path d=" M 250.149 39.995 L 250.149 128.211 L 228.104 128.211 L 228.104 9.141 L 246.916 9.141 L 336.198 95.866 L 336.198 9.141 L 353.871 9.141 L 357.983 9.141 L 357.983 128.211 L 340.764 128.211 L 250.149 39.995 Z " fill="rgb(255,255,255)"/><path d=" M 708.201 39.995 L 708.201 128.211 L 686.165 128.211 L 686.165 9.141 L 704.977 9.141 L 794.25 95.866 L 794.25 9.141 L 811.913 9.141 L 816.035 9.141 L 816.035 128.211 L 798.825 128.211 L 708.201 39.995 Z " fill="rgb(255,255,255)"/><path d=" M 189.445 9.145 L 193.52 9.145 L 193.52 128.206 L 171.485 128.206 L 171.485 9.145 L 189.445 9.145 Z " fill="rgb(255,255,255)"/><path d=" M 508.098 9.145 L 512.154 9.145 L 512.154 29.624 L 458.988 29.624 L 458.988 128.206 L 436.091 128.206 L 436.091 29.624 L 382.961 29.624 L 382.961 9.145 L 508.098 9.145 Z " fill="rgb(255,255,255)"/><path d=" M 649.324 9.145 L 653.455 9.145 L 653.455 29.624 L 558.968 29.624 L 558.968 56.347 L 632.059 56.347 L 632.059 76.826 L 558.968 76.826 L 558.968 107.698 L 653.455 107.698 L 653.455 128.206 L 537.155 128.206 L 537.155 9.145 L 649.324 9.145 Z " fill="rgb(255,255,255)"/><path d=" M 938.603 107.695 L 870.893 107.695 L 870.893 29.621 L 871.523 29.621 L 938.603 29.621 C 959.786 29.621 967.326 50.675 967.326 68.635 C 967.326 86.669 959.786 107.695 938.603 107.695 Z  M 974.773 26.537 C 966.168 15.181 953.404 9.142 937.973 9.142 L 849.636 9.142 L 849.636 128.212 L 937.973 128.212 C 953.404 128.212 966.168 122.182 974.773 110.817 C 982.841 100.23 987.129 85.688 987.129 68.635 C 987.129 51.676 982.841 37.069 974.773 26.537 Z " fill="rgb(255,255,255)"/><path d=" M 1135.367 102.806 C 1135.367 105.492 1133.135 107.706 1130.421 107.706 L 1036.045 107.706 C 1033.303 107.706 1031.108 105.492 1031.108 102.806 L 1031.108 34.541 C 1031.108 31.845 1033.303 29.65 1036.045 29.65 L 1130.421 29.65 C 1133.135 29.65 1135.367 31.845 1135.367 34.541 L 1135.367 102.806 Z  M 1131.273 9.143 L 1035.174 9.143 C 1021.262 9.143 1009.961 20.536 1009.961 34.402 L 1009.961 102.982 C 1009.961 116.839 1021.262 128.213 1035.174 128.213 L 1131.273 128.213 C 1145.185 128.213 1156.513 116.839 1156.513 102.982 L 1156.513 34.402 C 1156.513 20.536 1145.185 9.143 1131.273 9.143 Z " fill="rgb(255,255,255)"/><path d=" M 1847.637 211.645 C 1870.507 220.667 1918.764 227.984 1956.417 227.984 C 1997.644 227.984 2014.752 213.831 2014.752 196.075 C 2014.752 180.143 1998.876 170.779 1953.342 154.088 C 1892.477 131.589 1847.841 113.888 1847.841 73.911 C 1847.841 32.508 1901.545 8.156 1983.463 8.156 C 2027.442 8.156 2042.54 10.935 2070.485 16.057 L 2070.679 55.34 C 2043.253 50.125 2018.939 41.159 1981.166 41.159 C 1940.698 41.159 1923.461 54.006 1923.461 67.251 C 1923.461 86.471 1950.007 95.66 1996.616 112.267 C 2061.472 135.489 2097.559 153.402 2097.559 192.546 C 2097.559 232.819 2052.377 261.894 1950.452 261.894 C 1908.585 261.894 1879.732 259.134 1847.637 253.975 L 1847.637 211.645 Z " fill="rgb(255,255,255)"/><path d=" M 1630.672 42.871 L 1582.173 42.871 L 1582.173 226.482 L 1630.672 226.482 C 1705.133 226.482 1752.104 194.647 1752.104 135.051 C 1752.104 75.475 1705.133 42.871 1630.672 42.871 Z  M 1760.903 243.59 C 1736.885 254.455 1691.517 261.346 1651.818 261.346 L 1500.209 261.346 L 1500.209 8.701 L 1651.818 8.701 C 1691.517 8.701 1736.885 15.685 1760.922 26.522 C 1819.313 52.883 1838.375 95.074 1838.375 135.051 C 1838.375 175.056 1819.489 217.182 1760.903 243.59 Z " fill="rgb(255,255,255)"/><path d=" M 1393.931 123.1 C 1393.931 123.1 1464.659 111.772 1464.659 67.738 C 1464.659 24.695 1389.346 7.087 1309.215 7.087 C 1236.893 7.087 1189.349 15.923 1189.349 15.923 L 1189.349 55.03 C 1222.175 47.092 1253.566 40.33 1296.359 40.33 C 1342.283 40.33 1377.332 54.029 1377.332 73.388 C 1377.332 96.729 1342.672 110.058 1268.08 110.058 L 1233.8 110.058 L 1233.8 145.247 L 1265.644 145.247 C 1344.218 145.247 1388.901 157.066 1388.901 185.909 C 1388.901 211.659 1348.979 227.303 1299.203 227.303 C 1255.798 227.303 1216.09 218.059 1183.884 209.121 L 1183.884 251.303 C 1199.352 253.961 1240.395 262.205 1316.838 262.205 C 1401.517 262.205 1475.2 234.973 1475.2 186.974 C 1475.2 146.719 1424.154 123.1 1393.931 123.1 Z " fill="rgb(255,255,255)"/><path d=" M 2118.131 226.932 L 2110.156 226.932 L 2110.156 222.653 L 2131.321 222.653 L 2131.321 226.932 L 2123.244 226.932 L 2123.244 250.672 L 2118.131 250.672 L 2118.131 226.932 Z " fill="rgb(255,255,255)"/><path d=" M 2158.257 239.238 C 2158.099 235.617 2157.886 231.254 2157.933 227.475 L 2157.794 227.475 C 2156.886 230.893 2155.728 234.672 2154.478 238.201 L 2150.356 250.344 L 2146.447 250.344 L 2142.714 238.368 C 2141.631 234.792 2140.63 230.967 2139.889 227.475 L 2139.806 227.475 C 2139.676 231.134 2139.509 235.58 2139.296 239.414 L 2138.676 250.677 L 2133.887 250.677 L 2135.767 222.649 L 2142.501 222.649 L 2146.169 233.912 C 2147.151 237.2 2148.04 240.535 2148.744 243.656 L 2148.874 243.656 C 2149.615 240.609 2150.569 237.154 2151.653 233.875 L 2155.506 222.649 L 2162.166 222.649 L 2163.796 250.677 L 2158.803 250.677 L 2158.257 239.238 Z " fill="rgb(255,255,255)"/></g></svg>