<?xml version="1.0" encoding="utf-8"?>
<!-- Generator: Adobe Illustrator 22.1.0, SVG Export Plug-In . SVG Version: 6.00 Build 0)  -->
<svg version="1.0" id="Layer_1" xmlns="http://www.w3.org/2000/svg" xmlns:xlink="http://www.w3.org/1999/xlink" x="0px" y="0px"
	 width="250px" height="202px" viewBox="0 0 250 202" enable-background="new 0 0 250 202" xml:space="preserve">
<g>
	<path fill="#FFFFFF" d="M250,80.2c0-0.6,0-1.2,0-1.7c0-11.5,0-22.9,0-34.4c0-0.6,0-1.2-0.2-1.8c-3.3-12.4-9.3-23.3-19.2-31.6
		C222.4,3.8,213.1,0,202.3,0c-28.4,0-56.9,0-85.3,0C78.7,0,40.4,0,2.2,0C1.5,0,0.8,0,0,0v26.1c0.5,0.2,1,0.4,1.5,0.6
		C5,27.8,8.5,28.9,12,30c35.4,11.2,70.9,22.4,106.3,33.7c16.7,5.3,33.5,10.6,50.2,15.9c1.1,0.3,2.2,0.6,3.3,0.6
		c25.5,0,50.9,0,76.4,0C248.8,80.2,249.4,80.3,250,80.2z M151.3,78.6c-22.8-7.2-45.5-14.4-68.4-21.7v100.7
		c-9.9,5-19.6,9.9-29.2,14.8V202h119.7c0-19.2,0-38.4,0-57.7c-7.4,0-14.6,0-22,0C151.3,122.3,151.3,100.5,151.3,78.6L151.3,78.6z
		 M159,86.5v50.6h90.8c0-16.9,0-33.7,0-50.6C219.6,86.5,189.4,86.5,159,86.5z"/>
	<path fill="#FFFFFF" d="M250,80.2l-79.4,0L0,26.2C0,26.2,0,8.8,0,0c0.8,0,78.7,0,117,0c28.4,0,56.9,0,85.3,0
		c10.8,0,20.1,3.8,28.3,10.7c9.9,8.4,15.9,19.2,19.2,31.6c0.2,0.6,0.2,1.2,0.2,1.8C250,55.6,250,80.2,250,80.2z"/>
	<path fill="#FFFFFF" d="M151.3,78.6v65.7h22V202c-39.9,0-79.7,0-119.7,0c0-9.9,0-19.7,0-29.7c9.7-4.9,19.4-9.8,29.2-14.8
		c0-33.5,0-66.9,0-100.7C105.8,64.2,128.5,71.4,151.3,78.6L151.3,78.6z"/>
</g>
</svg>
