<?xml version="1.0" encoding="utf-8"?>
<!-- Generator: Adobe Illustrator 22.1.0, SVG Export Plug-In . SVG Version: 6.00 Build 0)  -->
<svg version="1.0" id="svg107009" xmlns:svg="http://www.w3.org/2000/svg"
	 xmlns="http://www.w3.org/2000/svg" xmlns:xlink="http://www.w3.org/1999/xlink" x="0px" y="0px" width="742.4px" height="159.3px"
	 viewBox="0 0 742.4 159.3" enable-background="new 0 0 742.4 159.3" xml:space="preserve">
<g>
	<path id="path17461" fill="#FFFFFF" d="M0.1,39.6L0,119.7l69.6,39.6c0,0,67.7-38.7,69.1-39.6l-0.1-80.1l-2-0.9L99.8,60.3
		c0,0-30.2-17.2-30.5-17.2C69,43,37.4,61.1,37.1,61.1v37c0,0,32.1,18.9,32.2,18.9c0.1,0,31-18.1,32.5-18.9V87.8l13.9-8.6v26.7
		l-0.2,0.9c-0.2,0-46.1,26.7-46.1,26.7l-45.5-27.5c-0.1,0-0.3,0-0.3,0V53.4l0,0l46-26.7l31.2,18.1l20.9-12.9v-1.7h-0.1
		c0,0-50.8-29.3-52.3-30.1C69,0,0.3,39.6,0.1,39.6"/>
	<path id="path17743" fill="#FFFFFF" d="M270.7,78.3l-31.6,55.1h39.5v-12.9H261l16.3-26.7l22.1,39.6h16.4l-31.9-55.1H270.7"/>
	<path id="path17745" fill="#FFFFFF" d="M351.5,133.4l16.9-29.3v29.3H382V78.3h-13.5l-22.4,38.7l-22.4-38.7h-13.5v55.1h13.5v-29.3
		l17,29.3H351.5"/>
	<path id="path17747" fill="#FFFFFF" d="M240.9,99.9h-34.3v12.1h19.8v8.6h-35.4V90.4h49.2V78.3h-49.8c-10.8,0-14.2,3.4-14.2,13.8
		v27.5c0,10.3,3.4,13.8,14.2,13.8h36.1c10.8,0,14.3-3.4,14.3-13.8V99.9"/>
	<path id="path17749" fill="#FFFFFF" d="M502.1,78.3h-32.3c-10.8,0-14.2,3.4-14.2,13.8v27.5c0,10.3,3.4,13.8,14.2,13.8h32.3
		c10.8,0,14.3-3.4,14.3-13.8v-10.3h-14.8v11.2h-31.2V90.4h31.2v9.5h14.8v-7.7C516.4,81.8,512.9,78.3,502.1,78.3"/>
	<path id="path17751" fill="#FFFFFF" d="M569,120.5h-32V78.3h-14.7v41.3c0,10.3,3.4,13.8,14.2,13.8h33.1c10.8,0,14.3-3.4,14.3-13.8
		V78.3H569V120.5"/>
	<path id="path17755" fill="#FFFFFF" d="M670.1,110.2h24.1V99h-24.1v-9.5h41.4V78.3h-56.1v55.1h56.6v-12.9h-41.8V110.2"/>
	<path id="path17753" fill="#FFFFFF" d="M643.8,105c3.5-1.7,5.5-5.2,5.5-8.6v-6.9c0-7.7-4.2-11.2-13.1-11.2h-46v55.1h42.8
		c11.1,0,16.8-4.3,16.8-12.1v-6.9C649.8,110.2,647.7,106.7,643.8,105z M605,89.5h26.3c4.1,0,4.3,0.9,4.3,2.6v4.3
		c0,1.7-0.2,2.6-4.3,2.6H605V89.5z M636,117.9c0,2.6-0.5,3.4-4.6,3.4H605v-11.2h26.4c4,0,4.6,0.9,4.6,3.4V117.9"/>
	<path id="path17757" fill="#FFFFFF" d="M403.2,110.2h24.1V99h-24.1v-9.5h41.3V78.3h-56v55.1h56.6v-12.9h-41.8V110.2"/>
	<path id="path17759" fill="#FFFFFF" d="M559.3,62.8V20.7h-8v27.5l-13.7-27.5h-10.8v42.2h8V30.1l16.4,32.7H559.3"/>
	<path id="path17763" fill="#FFFFFF" d="M326.9,30.1l16.5,32.7h7.9V20.7h-8v27.5l-13.6-27.5h-10.8v42.2h8V30.1"/>
	<path id="path17767" fill="#FFFFFF" d="M195.6,30.1l16.5,32.7h7.9V20.7h-8v27.5l-13.6-27.5h-10.8v42.2h8V30.1"/>
	<path id="path17771" fill="#FFFFFF" d="M265,20.7h9v42.2h-9V20.7z"/>
	<path id="path17775" fill="#FFFFFF" d="M401,62.8h8.6V27.5h13.5v-6.9h-35.7v6.9H401V62.8"/>
	<path id="path17783" fill="#FFFFFF" d="M701.8,31.9c0-6-6-11.2-13.3-11.2h-7.1c-7.3,0-13.3,5.2-13.3,11.2v20.7
		c0,6,6,11.2,13.3,11.2h7.1c7.3,0,13.3-5.2,13.3-11.2V31.9z M693.8,52.5c0,2.6-2.9,4.3-5.7,4.3h-6.6c-2.8,0-5.7-1.7-5.7-4.3V31.9
		c0-2.6,2.8-4.3,5.7-4.3h6.6c2.8,0,5.7,1.7,5.7,4.3V52.5"/>
	<path id="path17787" fill="#FFFFFF" d="M456.2,52.5c0,6,5.6,10.3,12.7,10.3h18.5v-6h-17.7c-2.8,0-5.6-2.6-5.6-5.2v-6.9h23.3v-6.9
		h-23.3v-6c0-2.6,2.8-4.3,5.6-4.3h17.7v-6.9h-18.2c-7.2,0.9-13,5.2-13,11.2V52.5"/>
	<path id="path17779" fill="#FFFFFF" d="M618.1,62.8c7.4,0,13.3-4.3,13.3-10.3V31.9c0-6-5.9-11.2-13.3-11.2h-19.5v42.2H618.1z
		 M606.5,27.5h11.3c2.8,0,5.7,1.7,5.7,4.3v19.8c0,3.4-2.9,5.2-5.7,5.2h-11.3V27.5"/>
	<path id="path17791" fill="#FFFFFF" d="M725.2,133.4h-2.6v-10.3h-3.7v-2.6H729v2.6h-3.8V133.4"/>
	<path id="path17793" fill="#FFFFFF" d="M742.4,133.4H740v-10.3l0,0l-2.3,10.3h-2.5l-2.3-10.3l0,0v10.3h-2.4v-12.9h3.8l2.2,10.3l0,0
		l2.2-10.3h3.7V133.4"/>
</g>
</svg>
