<?xml version="1.0" encoding="UTF-8" standalone="no"?><!-- Generator: Gravit.io --><svg xmlns="http://www.w3.org/2000/svg" xmlns:xlink="http://www.w3.org/1999/xlink" style="isolation:isolate" viewBox="0 0 568.9 116.1" width="568.9pt" height="116.1pt"><defs><clipPath id="_clipPath_7a22oAwremVGHHVMgh5CsugDgPv958O3"><rect width="568.9" height="116.1"/></clipPath></defs><g clip-path="url(#_clipPath_7a22oAwremVGHHVMgh5CsugDgPv958O3)"><path d=" M 310.5 14.5 L 303.4 36.2 L 306.9 36.2 L 314 15.2 C 314.3 14.2 315 13.5 316 13.5 C 316.9 13.5 317.7 14.2 318 15.2 L 324 32.9 L 314.5 32.9 L 314.5 36.1 L 328.6 36.1 L 321.5 14.4 C 320.8 12 318.6 10.3 316 10.3 C 313.4 10.3 311.1 12.1 310.5 14.5 Z  M 314.6 28 L 315.8 24.3 L 317.1 28 L 314.6 28 L 314.6 28 Z  M 314.1 17.3 L 307.7 36.2 L 311.8 36.2 L 314.4 28.4 L 314.4 32.1 L 322.7 32.1 L 317.8 17.4 C 317.5 16.6 316.8 14.2 315.9 14.2 C 315.1 14.1 314.4 16.5 314.1 17.3 L 314.1 17.3 L 314.1 17.3 Z  M 291.6 14.4 L 303.9 14.4 L 303.9 10.9 L 291.3 10.9 C 287.9 10.9 285.1 13.7 285.1 17.1 L 285.1 30 C 285.1 33.4 287.9 36.2 291.3 36.2 L 303.9 36.2 L 303.9 19.7 L 293.9 19.7 L 293.9 23 L 300.4 23 L 300.4 32.7 L 291.6 32.7 C 290 32.7 288.7 31.4 288.7 29.8 L 288.7 17.4 C 288.6 15.8 289.9 14.4 291.6 14.4 Z  M 293.9 23.8 L 293.9 27.3 L 296 27.3 L 296 28.2 L 293.9 28.2 C 293.4 28.2 293 27.8 293 27.3 L 293 19.7 C 293 19.2 293.4 18.8 293.9 18.8 L 303.9 18.8 L 303.9 15.3 L 292.4 15.3 C 290.8 15.3 289.5 16.6 289.5 18.2 L 289.5 28.8 C 289.5 30.4 290.8 31.7 292.4 31.7 L 299.5 31.7 L 299.5 23.8 L 293.9 23.8 L 293.9 23.8 Z  M 271.3 14.4 L 283.6 14.4 L 283.6 10.9 L 271 10.9 C 267.6 10.9 264.8 13.7 264.8 17.1 L 264.8 29.9 C 264.8 33.3 267.6 36.1 271 36.1 L 283.6 36.1 L 283.6 32.6 L 271.3 32.6 C 269.7 32.6 268.4 31.3 268.4 29.7 L 268.4 17.4 C 268.4 15.8 269.7 14.4 271.3 14.4 Z  M 281 23 L 281 19.8 L 272.8 19.8 C 272.8 19.3 273.2 18.9 273.7 18.9 L 283.7 18.9 L 283.7 15.4 L 272.2 15.4 C 270.6 15.4 269.3 16.7 269.3 18.3 L 269.3 23 L 281 23 L 281 23 Z  M 281 24.1 L 281 27.3 L 272.8 27.3 C 272.8 27.8 273.2 28.2 273.7 28.2 L 283.7 28.2 L 283.7 31.7 L 272.2 31.7 C 270.6 31.7 269.3 30.4 269.3 28.8 L 269.3 24.1 L 281 24.1 L 281 24.1 Z  M 250.8 28.5 L 243.4 28.5 L 243.4 31.7 L 254.7 31.7 L 254.8 31.7 C 256.9 31.6 258.6 29.9 258.6 27.7 C 258.6 25.5 256.8 23.7 254.6 23.7 L 250.1 23.7 C 248.3 23 246.8 21.2 246.8 19.1 C 246.8 16.4 249.3 14.3 251.9 14.3 L 262.9 14.3 L 262.9 10.8 L 251.4 10.8 C 246.9 10.8 243.2 14.5 243.2 19 C 243.2 23.5 247.2 27.2 251.7 27.2 L 251.7 27.2 L 251.7 27.2 L 254.3 27.2 C 254.6 27.2 254.9 27.5 254.9 27.8 C 254.9 28.1 254.6 28.4 254.3 28.4 L 250.8 28.5 L 250.8 28.5 L 250.8 28.5 Z  M 255.6 18.6 L 263 18.6 L 263 15.4 L 251.7 15.4 L 251.5 15.4 C 249.4 15.5 247.7 17.2 247.7 19.4 C 247.7 21.6 249.5 23.4 251.7 23.4 L 256.2 23.4 C 258 24.1 259.5 25.9 259.5 28 C 259.5 30.7 257 32.8 254.4 32.8 L 243.4 32.8 L 243.4 36.3 L 254.9 36.3 C 259.4 36.3 263.1 32.6 263.1 28.1 C 263.1 23.6 259.1 19.9 254.6 19.9 L 254.6 19.9 L 254.6 19.9 L 252 19.9 C 251.7 19.9 251.4 19.6 251.4 19.3 C 251.4 19 251.7 18.7 252 18.7 L 255.6 18.6 L 255.6 18.6 Z " fill="rgb(255,255,255)"/><path d=" M 261.7 48.4 L 261.7 100.6 L 244.1 100.6 L 244.1 81.3 L 210.4 62.1 L 210.4 100.5 L 192.8 100.5 L 192.8 48.4 L 211.1 48.4 L 244 67.1 L 244 48.4 L 261.7 48.4 L 261.7 48.4 Z " fill="rgb(255,255,255)"/><path d=" M 434.3 48.2 L 452.6 48.2 L 452.6 100.7 L 434.3 100.7 L 434.3 48.2 L 434.3 48.2 Z " fill="rgb(255,255,255)"/><path d=" M 321.9 58.7 L 291.9 58.7 L 291.9 69.2 L 327.9 69.2 L 310.6 79.7 L 291.8 79.7 L 291.8 90.2 L 340.6 90.2 L 323.3 100.7 L 273.8 100.7 L 273.8 60.2 L 291.8 48.2 L 339.1 48.2 L 321.9 58.7 L 321.9 58.7 Z " fill="rgb(255,255,255)"/><path d=" M 162.4 58.9 L 132.6 58.9 L 132.6 69.3 L 168.4 69.3 L 151.2 79.7 L 132.6 79.7 L 132.6 90.1 L 181 90.1 L 163.8 100.5 L 114.6 100.5 L 114.6 60.4 L 132.5 48.5 L 179.5 48.5 L 162.4 58.9 L 162.4 58.9 Z " fill="rgb(255,255,255)"/><path d=" M 30.6 60.4 L 48.5 48.5 L 103 48.5 L 85.8 58.9 L 48.5 58.9 L 48.5 90.2 L 82 90.2 L 82 77.5 L 61.2 77.5 L 78.4 67.1 L 100 67.1 L 100 88.7 L 82 100.7 L 30.6 100.7 L 30.6 60.4 L 30.6 60.4 Z " fill="rgb(255,255,255)"/><g><path d=" M 423.1 90 L 405.6 100.7 L 351.6 100.7 L 369.1 90 L 403.3 90 L 403.3 79.4 L 351.6 79.4 L 351.6 58.8 L 369.1 48.1 L 423.9 48.1 L 406.4 58.8 L 370.6 58.8 L 370.6 68.7 L 423.1 68.7 L 423.1 90 L 423.1 90 Z " fill="rgb(255,255,255)"/><path d=" M 403.3 90 L 403.3 79.4 L 351.6 79.4 L 351.6 58.8 L 369.1 48.1 L 423.9 48.1 L 406.4 58.8 L 370.6 58.8 L 370.6 68.7 L 423.1 68.7 L 423.1 90 L 405.6 100.7 L 351.6 100.7 L 369.1 90 L 403.3 90 L 403.3 90 Z " fill="rgb(255,255,255)"/></g><g><path d=" M 534.4 90 L 516.9 100.7 L 462.9 100.7 L 480.4 90 L 514.6 90 L 514.6 79.4 L 462.9 79.4 L 462.9 58.8 L 480.4 48.1 L 535.2 48.1 L 517.7 58.8 L 481.9 58.8 L 481.9 68.7 L 534.4 68.7 L 534.4 90 L 534.4 90 Z " fill="rgb(255,255,255)"/><path d=" M 514.7 90 L 514.7 79.4 L 463 79.4 L 463 58.8 L 480.5 48.1 L 535.3 48.1 L 517.8 58.8 L 482 58.8 L 482 68.7 L 534.5 68.7 L 534.5 90 L 517 100.7 L 463 100.7 L 480.4 90 L 514.7 90 L 514.7 90 Z " fill="rgb(255,255,255)"/></g></g></svg>