<?xml version="1.0" encoding="utf-8"?>
<!-- Generator: Adobe Illustrator 22.1.0, SVG Export Plug-In . SVG Version: 6.00 Build 0)  -->
<svg version="1.1" id="Layer_1" xmlns="http://www.w3.org/2000/svg" xmlns:xlink="http://www.w3.org/1999/xlink" x="0px" y="0px"
	 width="568.9px" height="116.1px" viewBox="0 0 568.9 116.1" style="enable-background:new 0 0 568.9 116.1;" xml:space="preserve"
	>
<style type="text/css">
	.st0{fill:#FFFFFF;}
</style>
<path class="st0" d="M310.5,14.5l-7.1,21.7h3.5l7.1-21c0.3-1,1-1.7,2-1.7c0.9,0,1.7,0.7,2,1.7l6,17.7h-9.5v3.2h14.1l-7.1-21.7
	c-0.7-2.4-2.9-4.1-5.5-4.1C313.4,10.3,311.1,12.1,310.5,14.5z M314.6,28l1.2-3.7l1.3,3.7H314.6z M314.1,17.3l-6.4,18.9h4.1l2.6-7.8
	v3.7h8.3l-4.9-14.7c-0.3-0.8-1-3.2-1.9-3.2C315.1,14.1,314.4,16.5,314.1,17.3L314.1,17.3z M291.6,14.4h12.3v-3.5h-12.6
	c-3.4,0-6.2,2.8-6.2,6.2V30c0,3.4,2.8,6.2,6.2,6.2h12.6V19.7h-10V23h6.5v9.7h-8.8c-1.6,0-2.9-1.3-2.9-2.9V17.4
	C288.6,15.8,289.9,14.4,291.6,14.4z M293.9,23.8v3.5h2.1v0.9h-2.1c-0.5,0-0.9-0.4-0.9-0.9v-7.6c0-0.5,0.4-0.9,0.9-0.9h10v-3.5h-11.5
	c-1.6,0-2.9,1.3-2.9,2.9v10.6c0,1.6,1.3,2.9,2.9,2.9h7.1v-7.9L293.9,23.8z M271.3,14.4h12.3v-3.5H271c-3.4,0-6.2,2.8-6.2,6.2v12.8
	c0,3.4,2.8,6.2,6.2,6.2h12.6v-3.5h-12.3c-1.6,0-2.9-1.3-2.9-2.9V17.4C268.4,15.8,269.7,14.4,271.3,14.4z M281,23v-3.2h-8.2
	c0-0.5,0.4-0.9,0.9-0.9h10v-3.5h-11.5c-1.6,0-2.9,1.3-2.9,2.9V23H281z M281,24.1v3.2h-8.2c0,0.5,0.4,0.9,0.9,0.9h10v3.5h-11.5
	c-1.6,0-2.9-1.3-2.9-2.9v-4.7L281,24.1z M250.8,28.5h-7.4v3.2h11.3h0.1c2.1-0.1,3.8-1.8,3.8-4c0-2.2-1.8-4-4-4h-4.5
	c-1.8-0.7-3.3-2.5-3.3-4.6c0-2.7,2.5-4.8,5.1-4.8h11v-3.5h-11.5c-4.5,0-8.2,3.7-8.2,8.2c0,4.5,4,8.2,8.5,8.2v0l0,0h2.6
	c0.3,0,0.6,0.3,0.6,0.6c0,0.3-0.3,0.6-0.6,0.6L250.8,28.5L250.8,28.5z M255.6,18.6h7.4v-3.2h-11.3h-0.2c-2.1,0.1-3.8,1.8-3.8,4
	c0,2.2,1.8,4,4,4h4.5c1.8,0.7,3.3,2.5,3.3,4.6c0,2.7-2.5,4.8-5.1,4.8h-11v3.5h11.5c4.5,0,8.2-3.7,8.2-8.2c0-4.5-4-8.2-8.5-8.2v0l0,0
	h-2.6c-0.3,0-0.6-0.3-0.6-0.6c0-0.3,0.3-0.6,0.6-0.6L255.6,18.6z"/>
<path class="st0" d="M261.7,48.4v52.2h-17.6V81.3l-33.7-19.2v38.4h-17.6V48.4h18.3l32.9,18.7V48.4L261.7,48.4z"/>
<path class="st0" d="M434.3,48.2h18.3v52.5h-18.3V48.2z"/>
<path class="st0" d="M321.9,58.7h-30v10.5h36l-17.3,10.5h-18.8v10.5h48.8l-17.3,10.5h-49.5V60.2l18-12h47.3L321.9,58.7z"/>
<path class="st0" d="M162.4,58.9h-29.8v10.4h35.8l-17.2,10.4h-18.6v10.4H181l-17.2,10.4h-49.2V60.4l17.9-11.9h47L162.4,58.9z"/>
<path class="st0" d="M30.6,60.4l17.9-11.9h54.5L85.8,58.9H48.5v31.3H82V77.5H61.2l17.2-10.4H100v21.6L82,100.7H30.6L30.6,60.4z"/>
<g>
	<path class="st0" d="M423.1,90l-17.5,10.7h-54L369.1,90h34.2V79.4h-51.7V58.8l17.5-10.7h54.8l-17.5,10.7h-35.8v9.9h52.5V90z"/>
	<path class="st0" d="M403.3,90V79.4h-51.7V58.8l17.5-10.7h54.8l-17.5,10.7h-35.8v9.9h52.5V90l-17.5,10.7h-54L369.1,90L403.3,90z"/>
</g>
<g>
	<path class="st0" d="M534.4,90l-17.5,10.7h-54L480.4,90h34.2V79.4h-51.7V58.8l17.5-10.7h54.8l-17.5,10.7h-35.8v9.9h52.5L534.4,90z"
		/>
	<path class="st0" d="M514.7,90V79.4h-51.7V58.8l17.5-10.7h54.8l-17.5,10.7h-35.8v9.9h52.5V90l-17.5,10.7h-54L480.4,90L514.7,90z"/>
</g>
</svg>
