<?xml version="1.0" encoding="utf-8"?>
<!-- Generator: Adobe Illustrator 22.1.0, SVG Export Plug-In . SVG Version: 6.00 Build 0)  -->
<svg version="1.0"
	 id="svg2" xmlns:cc="http://creativecommons.org/ns#" xmlns:dc="http://purl.org/dc/elements/1.1/" xmlns:rdf="http://www.w3.org/1999/02/22-rdf-syntax-ns#"
	 xmlns="http://www.w3.org/2000/svg" xmlns:xlink="http://www.w3.org/1999/xlink" x="0px" y="0px" width="300px" height="285.8px"
	 viewBox="0 0 300 285.8" enable-background="new 0 0 300 285.8" xml:space="preserve">
<g>
	<path id="path3005" fill="#FFFFFF" d="M278.2,0H21.8C15.9,0,10.4,2.5,6.4,6.4c-4,4-6.4,9.3-6.4,15.5V264c0,5.9,2.5,11.4,6.4,15.5
		c4,4,9.3,6.4,15.5,6.4h256.4c5.9,0,11.4-2.5,15.5-6.4c4-4,6.4-9.3,6.4-15.5V21.8c0-5.9-2.5-11.4-6.4-15.5
		C289.8,2.5,284.3,0,278.2,0v6.4c4.2,0,8,1.7,11,4.4c2.8,2.8,4.4,6.6,4.4,11V264c0,4.2-1.7,8-4.4,11c-2.8,2.8-6.6,4.4-11,4.4H21.8
		c-4.2,0-8-1.7-11-4.4c-2.8-2.8-4.4-6.6-4.4-11V21.8c0-4.2,1.7-8,4.4-11c3-2.8,6.8-4.4,11-4.4h256.4V0L278.2,0z"/>
	<path id="path3009" fill="#FFFFFF" d="M264.6,137.4c0,7-5.7,12.7-12.7,12.7h-54.8v-16.5h46.2l0,0c2.8,0,4.9-2.1,4.9-4.9l0,0V74.3
		l0,0c0-2.8-2.1-4.9-4.9-4.9l0,0h-24.8l0,0c-2.8,0-4.9,2.1-4.9,4.9l0,0v24.8l0,0c0,2.8,2.1,4.9,4.9,4.9l0,0h19.7v16.5h-28.4
		c-7,0-12.7-5.7-12.7-12.7V65.6c0-7,5.7-12.7,12.7-12.7h42.1c7,0,12.7,5.7,12.7,12.7V137.4L264.6,137.4z M264.6,233.1h-16.3v-50.4
		h-11.4l0,0c-2.8,0-4.9,2.1-4.9,4.9l0,0v45.5h-16.1v-50.4h-11.4l0,0c-2.8,0-4.9,2.1-4.9,4.9l0,0v45.5h-16.3v-54.2
		c0-7,5.7-12.5,12.7-12.5h68.6V233.1L264.6,233.1z M103.1,137.4c0,7-5.7,12.7-12.7,12.7h-55v-16.5h46.2l0,0c2.8,0,4.9-2.1,4.9-4.9
		l0,0V74.3l0,0c0-2.8-2.1-4.9-4.9-4.9l0,0H57l0,0c-2.8,0-4.9,2.1-4.9,4.9l0,0v24.8l0,0c0,2.8,2.1,4.9,4.9,4.9l0,0h19.7v16.5H48.3
		c-7,0-12.7-5.7-12.7-12.7V65.6c0-7,5.7-12.7,12.7-12.7h42.1c7,0,12.7,5.7,12.7,12.7L103.1,137.4L103.1,137.4z M90.6,182.7H56.5l0,0
		c-2.8,0-4.9,2.1-4.9,4.9l0,0l0,0v24.3l0,0l0,0c0,2.8,2.1,4.9,4.9,4.9l0,0h3.6h30.5v16.3H48.1l0,0c-7,0-12.7-5.7-12.7-12.5v-41.7
		c0-7,5.7-12.5,12.7-12.5h42.6L90.6,182.7L90.6,182.7z"/>
	<path fill="#FFFFFF" d="M157.7,166.4h-41.5c-7,0-12.7,5.7-12.7,12.5v41.5c0,7,5.7,12.5,12.7,12.5h41.5c7,0,12.5-5.7,12.5-12.5
		v-41.5C170.4,172.1,164.7,166.4,157.7,166.4z M154.1,187.6v24.3c0,2.8-2.1,4.9-4.9,4.9l0,0l0,0h-24.3l0,0l0,0
		c-2.8,0-4.9-2.1-4.9-4.9v-24.3l0,0c0-2.8,2.1-4.9,4.9-4.9l0,0h24.3l0,0C152,182.7,154.1,184.8,154.1,187.6L154.1,187.6z"/>
	<path fill="#FFFFFF" d="M171.1,52.9h-42.1c-7,0-12.7,5.7-12.7,12.7v42.1c0,7,5.7,12.7,12.7,12.7h42.1c7,0,12.7-5.7,12.7-12.7V65.6
		C183.8,58.6,178.1,52.9,171.1,52.9z M167.3,74.3v24.8l0,0c0,2.8-2.1,4.9-4.9,4.9l0,0h-24.8l0,0c-2.8,0-4.9-2.1-4.9-4.9l0,0V74.3
		l0,0c0-2.8,2.1-4.9,4.9-4.9l0,0h24.8l0,0l0,0C165.1,69.2,167.3,71.6,167.3,74.3L167.3,74.3z"/>
</g>
</svg>
