<?xml version="1.0" standalone="no"?><!-- Generator: Gravit.io --><svg xmlns="http://www.w3.org/2000/svg" xmlns:xlink="http://www.w3.org/1999/xlink" style="isolation:isolate" viewBox="0 0 566.9 157.8" width="566.9" height="157.8"><defs><clipPath id="_clipPath_SDQRK88AUgNu6CQjUQrBHQXyoAe9bsPp"><rect width="566.9" height="157.8"/></clipPath></defs><g clip-path="url(#_clipPath_SDQRK88AUgNu6CQjUQrBHQXyoAe9bsPp)"><path d=" M 491.2 27.7 L 536.8 28 L 558 6 L 480 5.7 L 406.7 79.3 L 396.4 79.9 L 396.7 9 L 355.5 51.1 L 345.6 52.3 L 345.6 9.4 L 261.2 92.9 L 250.8 94 L 251.7 8.1 L 178 83 L 168.3 83 L 167.2 11.1 L 127.4 51.2 L 116.3 51.8 L 116.7 9 L 11.6 115 L 46.2 114.4 L 91.6 70.3 L 100.3 70.3 L 99.9 114.6 L 136.1 77.6 L 144.7 77.6 L 144.7 115.3 L 104.9 154.8 L 143 154.2 L 218 78.3 L 228.1 78.3 L 228.1 115.6 L 274.9 115.9 L 320.1 70.4 L 328.8 69.8 L 328.7 112.8 L 364.8 76.7 L 373.3 76.7 L 373.9 113.1 L 373.2 115 L 482.4 115 L 503.3 93.8 L 435.4 92.6 L 434.8 82.7 L 445.4 71.6 L 471 71.6 L 493.2 49.1 L 479.8 48.5 L 479.8 39 L 491.2 27.7 L 491.2 27.7 Z " fill="rgb(255,255,255)"/></g></svg>