<?xml version="1.0" encoding="utf-8"?>
<!-- Generator: Adobe Illustrator 22.1.0, SVG Export Plug-In . SVG Version: 6.00 Build 0)  -->
<svg version="1.1" id="Layer_1" xmlns="http://www.w3.org/2000/svg" xmlns:xlink="http://www.w3.org/1999/xlink" x="0px" y="0px"
	 width="566.9px" height="157.8px" viewBox="0 0 566.9 157.8" style="enable-background:new 0 0 566.9 157.8;" xml:space="preserve"
	>
<style type="text/css">
	.st0{fill:#FFFFFF;}
</style>
<path class="st0" d="M491.2,27.7l45.6,0.3l21.2-22l-78-0.3l-73.3,73.6l-10.3,0.6L396.7,9l-41.2,42.1l-9.9,1.2V9.4l-84.4,83.5
	L250.8,94l0.9-85.9l-73.7,74.9l-9.7,0l-1.1-71.9l-39.8,40.1l-11.1,0.6l0.4-42.8l-105.1,106l34.6-0.6l45.4-44.1h8.7l-0.4,44.3
	l36.2-37h8.6v37.7l-39.8,39.5l38.1-0.6l75-75.9h10.1v37.3l46.8,0.3l45.2-45.5l8.7-0.6l-0.1,43l36.1-36.1h8.5l0.6,36.4l-0.7,1.9
	h109.2l20.9-21.2l-67.9-1.2l-0.6-9.9l10.6-11.1l25.6,0l22.2-22.5l-13.4-0.6v-9.5L491.2,27.7z"/>
</svg>
