<?xml version="1.0" standalone="no"?><!-- Generator: Gravit.io --><svg xmlns="http://www.w3.org/2000/svg" xmlns:xlink="http://www.w3.org/1999/xlink" style="isolation:isolate" viewBox="0 0 566.9 90.3" width="566.9" height="90.3"><defs><clipPath id="_clipPath_J1233DMNfEM4KlG4n4YAMWvPYMcyHKli"><rect width="566.9" height="90.3"/></clipPath></defs><g clip-path="url(#_clipPath_J1233DMNfEM4KlG4n4YAMWvPYMcyHKli)"><path d=" M 302.6 15.7 C 302.2 16.9 301.9 18.1 301.5 19.4 C 301.1 20.6 300.8 21.9 300.4 23.1 C 300 24.3 299.7 25.6 299.3 26.8 C 298.9 28.1 298.6 29.3 298.2 30.6 C 298.4 30.6 298.6 30.6 298.8 30.6 C 299 30.6 299.2 30.6 299.3 30.6 C 299.5 30.6 299.7 30.6 299.8 30.6 C 299.9 30.6 300.2 30.6 300.4 30.6 C 300.8 29.4 301.1 28.2 301.5 27 C 301.9 25.8 302.2 24.6 302.6 23.4 C 303 22.2 303.3 21 303.7 19.9 C 304.1 18.7 304.4 17.6 304.8 16.4 C 304.8 16.2 304.9 16.1 305 16 C 305.1 15.9 305.2 15.8 305.3 15.7 C 305.4 15.6 305.5 15.5 305.7 15.5 C 305.8 15.5 306 15.4 306.1 15.4 C 306.2 15.4 306.4 15.4 306.5 15.5 C 306.6 15.6 306.8 15.6 306.9 15.7 C 307 15.8 307.1 15.9 307.2 16.1 C 307.3 16.2 307.3 16.4 307.4 16.5 C 307.7 17.5 308 18.5 308.3 19.4 C 308.6 20.4 308.9 21.3 309.2 22.3 C 309.5 23.3 309.8 24.2 310.1 25.1 C 310.4 26 310.7 27 311 27.9 C 310.5 27.9 310 28 309.5 28 C 309 28 308.5 28.1 308 28.1 C 307.5 28.1 307 28.2 306.5 28.2 C 306 28.2 305.5 28.3 305 28.3 L 305 28.8 L 305 29.3 L 305 29.8 L 305 30.3 C 305.7 30.3 306.5 30.2 307.2 30.2 C 307.9 30.1 308.7 30.1 309.4 30 C 310.1 29.9 310.9 29.9 311.6 29.8 C 312.3 29.7 313.1 29.7 313.8 29.6 C 313.4 28.5 313.1 27.4 312.7 26.3 C 312.3 25.2 312 24.1 311.6 22.9 C 311.2 21.8 310.9 20.6 310.5 19.4 C 310.1 18.2 309.8 17.1 309.4 15.9 C 309.3 15.5 309.1 15.1 308.9 14.8 C 308.7 14.5 308.4 14.2 308.1 13.9 C 307.8 13.6 307.5 13.4 307.1 13.3 C 306.7 13.2 306.3 13.1 305.9 13 C 305.5 13 305.1 13 304.7 13.2 C 304.3 13.3 304 13.5 303.7 13.7 C 303.4 13.9 303.1 14.2 302.9 14.6 C 302.9 14.9 302.7 15.3 302.6 15.7 L 302.6 15.7 L 302.6 15.7 Z  M 305.2 24.7 C 305.3 24.5 305.3 24.3 305.4 24.1 C 305.5 23.9 305.5 23.7 305.6 23.5 C 305.7 23.3 305.7 23.1 305.8 22.9 C 305.9 22.7 305.9 22.5 306 22.3 C 306.1 22.5 306.1 22.7 306.2 22.9 C 306.3 23.1 306.3 23.3 306.4 23.5 C 306.5 23.7 306.5 23.9 306.6 24.1 C 306.7 24.3 306.7 24.5 306.8 24.7 C 306.7 24.7 306.5 24.7 306.4 24.7 C 306.3 24.7 306.1 24.7 306 24.7 C 305.9 24.7 305.7 24.7 305.6 24.7 C 305.5 24.7 305.3 24.7 305.2 24.7 L 305.2 24.7 L 305.2 24.7 Z  M 304.9 17.6 C 304.6 18.6 304.2 19.7 303.9 20.8 C 303.6 21.9 303.2 22.9 302.9 24 C 302.6 25.1 302.2 26.1 301.9 27.2 C 301.6 28.3 301.2 29.4 300.9 30.5 C 301.1 30.5 301.3 30.5 301.5 30.5 C 301.7 30.5 301.9 30.5 302.1 30.5 C 302.3 30.5 302.5 30.5 302.7 30.5 C 302.9 30.5 303.1 30.5 303.3 30.5 C 303.4 30.1 303.6 29.6 303.7 29.2 C 303.8 28.8 304 28.3 304.1 27.9 C 304.2 27.5 304.4 27 304.5 26.6 C 304.6 26.2 304.8 25.7 304.9 25.3 L 304.9 25.9 L 304.9 26.5 L 304.9 27.1 C 304.9 27.1 304.9 27.5 304.9 27.7 C 305.3 27.7 305.8 27.7 306.2 27.6 C 306.6 27.6 307.1 27.6 307.5 27.5 C 307.9 27.5 308.4 27.5 308.8 27.4 C 309.2 27.3 309.7 27.4 310.1 27.3 C 309.8 26.5 309.6 25.7 309.3 25 C 309 24.2 308.8 23.4 308.5 22.6 C 308.2 21.8 308 21 307.7 20.2 C 307.4 19.4 307.2 18.6 306.9 17.8 C 306.9 17.7 306.8 17.5 306.7 17.2 C 306.6 17 306.5 16.7 306.4 16.5 C 306.3 16.3 306.2 16.1 306.1 15.9 C 306 15.7 305.8 15.6 305.7 15.6 C 305.6 15.6 305.4 15.7 305.3 15.8 C 305.2 16 305.1 16.2 305 16.4 C 304.9 16.6 304.8 16.9 304.7 17.1 C 305 17.3 304.9 17.5 304.9 17.6 L 304.9 17.6 L 304.9 17.6 Z  M 290.8 15.5 C 291.4 15.5 292.1 15.5 292.7 15.5 C 293.3 15.5 294 15.5 294.6 15.5 C 295.2 15.5 295.9 15.5 296.5 15.5 C 297.1 15.5 297.8 15.5 298.4 15.5 C 298.4 15.3 298.4 15.1 298.4 14.9 C 298.4 14.7 298.4 14.5 298.4 14.3 C 298.4 14.1 298.4 13.9 298.4 13.7 C 298.4 13.5 298.4 13.3 298.4 13.1 C 297.7 13.1 297.1 13.1 296.4 13.1 C 295.7 13.1 295.1 13.1 294.4 13.1 C 293.7 13.1 293.1 13.1 292.4 13.1 C 291.7 13.1 291.1 13.1 290.4 13.1 C 289.9 13.1 289.4 13.2 288.9 13.4 C 288.4 13.6 288 13.9 287.7 14.3 C 287.3 14.7 287.1 15.2 286.9 15.7 C 286.7 16.2 286.6 16.8 286.6 17.4 L 286.6 19.7 L 286.6 22 C 286.6 22 286.6 23.5 286.6 24.3 L 286.6 26.6 C 286.6 27.2 286.7 27.8 286.9 28.3 C 287.1 28.8 287.4 29.3 287.7 29.7 C 288 30.1 288.5 30.4 288.9 30.6 C 289.4 30.8 289.9 30.9 290.4 30.9 C 291.1 30.9 291.7 30.9 292.4 30.9 C 293.1 30.9 293.7 30.9 294.4 30.9 C 295.1 30.9 295.7 30.9 296.4 30.8 C 297.1 30.8 297.7 30.8 298.4 30.7 C 298.4 29.8 298.4 28.8 298.4 27.9 C 298.4 27 298.4 26 298.4 25.1 C 298.4 24.2 298.4 23.2 298.4 22.3 C 298.4 21.4 298.4 20.4 298.4 19.5 C 297.9 19.5 297.4 19.5 296.8 19.5 C 296.3 19.5 295.8 19.5 295.2 19.5 C 294.7 19.5 294.2 19.5 293.6 19.5 C 293.1 19.5 292.6 19.5 292 19.5 L 292 20.1 L 292 20.7 L 292 21.3 C 292 21.5 292 21.7 292 21.9 C 292.3 21.9 292.7 21.9 293 21.9 C 293.3 21.9 293.7 21.9 294 21.9 C 294.3 21.9 294.7 21.9 295 21.9 C 295.3 21.9 295.7 21.9 296 21.9 C 296 22.5 296 23 296 23.6 C 296 24.2 296 24.7 296 25.3 C 296 25.9 296 26.4 296 27 C 296 27.6 296 28.1 296 28.7 C 295.5 28.7 295.1 28.7 294.6 28.7 C 294.1 28.7 293.7 28.7 293.2 28.7 C 292.7 28.7 292.3 28.7 291.8 28.7 C 291.3 28.7 290.9 28.7 290.4 28.7 C 290.1 28.7 289.9 28.6 289.7 28.5 C 289.5 28.4 289.3 28.2 289.1 28.1 C 288.9 27.9 288.8 27.7 288.7 27.4 C 288.6 27.2 288.6 26.9 288.6 26.6 C 288.6 25.9 288.6 25.2 288.6 24.4 C 288.6 23.7 288.6 23 288.6 22.2 C 288.6 21.5 288.6 20.8 288.6 20 C 288.6 19.3 288.6 18.6 288.6 17.8 C 288.6 17.5 288.6 17.2 288.7 17 C 288.8 16.8 288.9 16.5 289.1 16.3 C 289.3 16.1 289.5 16 289.7 15.9 C 290.3 15.6 290.5 15.5 290.8 15.5 L 290.8 15.5 L 290.8 15.5 Z  M 292.3 22.1 L 292.3 22.7 L 292.3 23.3 C 292.3 23.3 292.3 23.7 292.3 23.9 C 292.3 24.1 292.3 24.3 292.3 24.5 C 292.4 24.5 292.5 24.5 292.6 24.5 C 292.7 24.5 292.8 24.5 292.9 24.5 C 293 24.5 293.1 24.5 293.2 24.5 C 293.3 24.5 293.4 24.5 293.5 24.5 C 293.5 24.6 293.5 24.6 293.5 24.7 C 293.5 24.8 293.5 24.8 293.5 24.9 C 293.5 25 293.5 25 293.5 25.1 L 293.5 25.3 C 293.4 25.3 293.3 25.3 293.2 25.3 C 293.1 25.3 293 25.3 292.9 25.3 C 292.8 25.3 292.7 25.3 292.6 25.3 C 292.5 25.3 292.4 25.3 292.3 25.3 C 292.2 25.3 292.2 25.3 292.1 25.3 C 292 25.3 292 25.2 291.9 25.2 C 291.9 25.1 291.8 25.1 291.8 25 C 291.8 24.9 291.8 24.8 291.8 24.8 C 291.8 24.4 291.8 23.9 291.8 23.5 C 291.8 23.1 291.8 22.6 291.8 22.2 C 291.8 21.8 291.8 21.3 291.8 20.9 C 291.8 20.5 291.8 20 291.8 19.6 C 291.8 19.5 291.8 19.4 291.8 19.4 C 291.8 19.3 291.9 19.3 291.9 19.2 C 291.9 19.1 292 19.1 292.1 19.1 C 292.2 19.1 292.2 19.1 292.3 19.1 C 292.8 19.1 293.3 19.1 293.9 19.1 C 294.4 19.1 294.9 19.1 295.5 19.1 C 296 19.1 296.5 19.1 297.1 19.1 C 297.6 19.1 298.1 19.1 298.7 19.1 C 298.7 18.9 298.7 18.7 298.7 18.5 C 298.7 18.3 298.7 18.1 298.7 17.9 C 298.7 17.7 298.7 17.5 298.7 17.3 C 298.7 17.1 298.7 16.9 298.7 16.7 C 298.1 16.7 297.5 16.7 296.9 16.7 C 296.3 16.7 295.7 16.7 295.1 16.7 C 294.5 16.7 293.9 16.7 293.3 16.7 C 292.7 16.7 292.1 16.7 291.5 16.7 C 291.2 16.7 291 16.8 290.8 16.9 C 290.6 17 290.4 17.2 290.2 17.3 C 290 17.5 289.9 17.7 289.8 18 C 289.7 18.2 289.7 18.5 289.7 18.8 L 289.7 20 L 289.7 21.9 C 289.7 22.5 289.7 23.1 289.7 23.8 C 289.7 24.4 289.7 25 289.7 25.7 C 289.7 26 289.8 26.3 289.8 26.5 C 289.9 26.7 290 27 290.2 27.2 C 290.4 27.4 290.6 27.5 290.8 27.6 C 291 27.7 291.3 27.8 291.5 27.8 C 291.9 27.8 292.2 27.8 292.6 27.8 C 293 27.8 293.3 27.8 293.7 27.8 C 294.1 27.8 294.4 27.8 294.8 27.8 C 295.2 27.8 295.5 27.8 295.9 27.8 C 295.9 27.3 295.9 26.9 295.9 26.4 C 295.9 25.9 295.9 25.5 295.9 25 C 295.9 24.5 295.9 24.1 295.9 23.6 C 295.9 23.1 295.9 22.7 295.9 22.2 C 295.6 22.2 295.3 22.2 295 22.2 C 294.7 22.2 294.4 22.2 294.1 22.2 C 293.8 22.2 293.5 22.2 293.2 22.2 C 292.9 22.2 292.6 22.1 292.3 22.1 L 292.3 22.1 L 292.3 22.1 Z  M 278.1 15.6 C 278.7 15.6 279.4 15.6 280 15.6 C 280.6 15.6 281.3 15.6 281.9 15.6 C 282.5 15.6 283.2 15.6 283.8 15.6 C 284.4 15.6 285.1 15.6 285.7 15.6 C 285.7 15.4 285.7 15.2 285.7 15 C 285.7 14.8 285.7 14.6 285.7 14.4 C 285.7 14.2 285.7 14 285.7 13.8 C 285.7 13.6 285.7 13.4 285.7 13.2 C 285 13.2 284.4 13.2 283.7 13.2 C 283 13.2 282.4 13.2 281.7 13.2 C 281 13.2 280.4 13.2 279.7 13.2 C 279 13.2 278.4 13.2 277.7 13.2 C 277.2 13.2 276.7 13.3 276.2 13.6 C 275.7 13.8 275.3 14.1 275 14.5 C 274.6 14.9 274.4 15.4 274.2 15.9 C 274 16.4 273.9 17 273.9 17.5 L 273.9 19.7 C 273.9 19.7 273.9 21.2 273.9 21.9 L 273.9 24 C 273.9 24.7 273.9 25.5 273.9 26.2 C 273.9 26.8 274 27.3 274.2 27.8 C 274.4 28.3 274.7 28.8 275 29.2 C 275.3 29.6 275.8 29.9 276.2 30.2 C 276.7 30.4 277.2 30.6 277.7 30.6 C 278.4 30.6 279 30.6 279.7 30.7 C 280.4 30.7 281 30.7 281.7 30.7 C 282.4 30.7 283 30.7 283.7 30.7 C 284.4 30.7 285 30.7 285.7 30.7 C 285.7 30.5 285.7 30.3 285.7 30.1 C 285.7 29.9 285.7 29.7 285.7 29.5 C 285.7 29.3 285.7 29.1 285.7 28.9 C 285.7 28.7 285.7 28.5 285.7 28.3 C 285.1 28.3 284.4 28.3 283.8 28.3 C 283.2 28.3 282.5 28.3 281.9 28.3 C 281.3 28.3 280.6 28.3 280 28.3 C 279.4 28.3 278.7 28.3 278.1 28.3 C 277.8 28.3 277.6 28.2 277.4 28.1 C 277.2 28 277 27.8 276.8 27.7 C 276.6 27.5 276.5 27.3 276.4 27 C 276.3 26.8 276.3 26.5 276.3 26.2 C 276.3 25.5 276.3 24.8 276.3 24.1 C 276.3 23.4 276.3 22.7 276.3 22 C 276.3 21.3 276.3 20.6 276.3 19.9 C 276.3 19.2 276.3 18.5 276.3 17.8 C 276.3 17.5 276.4 17.3 276.4 17 C 276.5 16.8 276.6 16.5 276.8 16.4 C 277 16.2 277.2 16.1 277.4 16 C 277.6 15.6 277.9 15.6 278.1 15.6 L 278.1 15.6 L 278.1 15.6 Z  M 284.2 21.5 C 284.2 21.3 284.2 21.1 284.2 20.9 C 284.2 20.7 284.2 20.5 284.2 20.3 C 284.2 20.1 284.2 19.9 284.2 19.7 C 284.2 19.5 284.2 19.3 284.2 19.1 C 283.8 19.1 283.3 19.1 282.9 19.1 C 282.5 19.1 282 19.1 281.6 19.1 C 281.2 19.1 280.7 19.1 280.3 19.1 C 279.9 19.1 279.4 19.1 279 19.1 C 279 19 279 18.9 279 18.9 C 279 18.8 279.1 18.8 279.1 18.7 C 279.1 18.6 279.2 18.6 279.3 18.6 C 279.4 18.6 279.4 18.6 279.5 18.5 C 280 18.5 280.5 18.5 281.1 18.5 C 281.6 18.5 282.1 18.5 282.7 18.5 C 283.2 18.5 283.7 18.5 284.3 18.5 C 284.8 18.5 285.3 18.5 285.9 18.5 C 285.9 18.3 285.9 18.1 285.9 17.9 C 285.9 17.7 285.9 17.5 285.9 17.3 C 285.9 17.1 285.9 16.9 285.9 16.7 C 285.9 16.5 285.9 16.3 285.9 16.1 C 285.3 16.1 284.7 16.1 284.1 16.1 C 283.5 16.1 282.9 16.1 282.3 16.1 C 281.7 16.1 281.1 16.1 280.5 16.1 C 279.9 16.1 279.3 16.1 278.7 16.1 C 278.4 16.1 278.2 16.2 278 16.3 C 277.8 16.4 277.6 16.6 277.4 16.7 C 277.2 16.9 277.1 17.1 277 17.3 C 276.9 17.5 276.9 17.8 276.9 18.1 L 276.9 19 L 276.9 19.8 C 276.9 19.8 276.9 20.3 276.9 20.6 L 276.9 21.4 C 277.5 21.4 278.1 21.4 278.7 21.4 C 279.3 21.4 279.9 21.4 280.5 21.4 C 281.1 21.4 281.7 21.4 282.3 21.4 C 283 21.5 283.6 21.5 284.2 21.5 Z  M 284.2 22.3 L 284.2 22.9 L 284.2 23.5 C 284.2 23.5 284.2 23.9 284.2 24.1 C 284.2 24.3 284.2 24.5 284.2 24.7 C 283.8 24.7 283.3 24.7 282.9 24.7 C 282.5 24.7 282 24.7 281.6 24.7 C 281.2 24.7 280.7 24.7 280.3 24.7 C 279.9 24.7 279.4 24.7 279 24.7 C 279 24.8 279 24.9 279 24.9 C 279 25 279.1 25 279.1 25.1 C 279.1 25.2 279.2 25.2 279.3 25.2 C 279.4 25.2 279.4 25.3 279.5 25.3 C 280 25.3 280.5 25.3 281.1 25.3 C 281.6 25.3 282.1 25.3 282.7 25.3 C 283.2 25.3 283.7 25.3 284.3 25.3 C 284.8 25.3 285.3 25.3 285.9 25.3 L 285.9 25.9 C 285.9 25.9 285.9 26.3 285.9 26.5 C 285.9 26.7 285.9 26.9 285.9 27.1 C 285.9 27.3 285.9 27.5 285.9 27.7 C 285.3 27.7 284.7 27.7 284.1 27.7 C 283.5 27.7 282.9 27.7 282.3 27.7 C 281.7 27.7 281.1 27.7 280.5 27.7 C 279.9 27.7 279.3 27.7 278.7 27.7 C 278.4 27.7 278.2 27.6 278 27.5 C 277.8 27.4 277.6 27.2 277.4 27 C 277.2 26.8 277.1 26.6 277 26.3 C 276.9 26.1 276.9 25.8 276.9 25.5 C 276.9 25.2 276.9 25 276.9 24.7 C 276.9 24.4 276.9 24.2 276.9 23.9 C 276.9 23.6 276.9 23.4 276.9 23.1 C 276.9 22.8 276.9 22.6 276.9 22.3 C 277.5 22.3 278.1 22.3 278.7 22.3 C 279.3 22.3 279.9 22.3 280.5 22.3 C 281.1 22.3 281.7 22.3 282.3 22.3 C 283 22.3 283.6 22.3 284.2 22.3 L 284.2 22.3 L 284.2 22.3 Z  M 265.3 25 C 264.9 25 264.5 25 264.1 25 C 263.7 25 263.3 25 262.9 25 C 262.5 25 262.1 25 261.7 25 C 261.3 25 260.9 25 260.5 24.9 L 260.5 25.4 C 260.5 25.4 260.5 25.7 260.5 25.9 C 260.5 26.1 260.5 26.2 260.5 26.4 C 260.5 26.6 260.5 26.7 260.5 26.9 C 261.1 26.9 261.7 27 262.3 27 C 262.9 27 263.5 27.1 264.1 27.1 C 264.7 27.1 265.3 27.2 265.9 27.2 C 266.5 27.2 267.1 27.3 267.7 27.3 L 267.7 27.3 L 267.7 27.3 L 267.7 27.3 L 267.7 27.3 C 268 27.3 268.3 27.2 268.6 27.1 C 268.9 27 269.1 26.8 269.4 26.6 C 269.6 26.4 269.8 26.1 269.9 25.8 C 270 25.5 270.1 25.2 270.1 24.8 C 270.1 24.4 270 24.1 269.9 23.8 C 269.8 23.5 269.6 23.2 269.4 22.9 C 269.2 22.7 268.9 22.5 268.6 22.3 C 268.3 22.2 268 22.1 267.6 22.1 C 267.4 22.1 267.1 22.1 266.9 22.1 C 266.7 22.1 266.4 22.1 266.2 22.1 C 266 22.1 265.7 22.1 265.5 22.1 C 265.3 22.1 265 22.1 264.8 22.1 C 264.5 22 264.2 21.8 264 21.6 C 263.8 21.4 263.5 21.2 263.3 20.9 C 263.1 20.6 263 20.4 262.8 20.1 C 262.7 19.8 262.6 19.5 262.6 19.2 C 262.6 18.8 262.7 18.4 262.9 18 C 263.1 17.6 263.3 17.3 263.6 17 C 263.9 16.7 264.2 16.5 264.6 16.3 C 265 16.1 265.4 16 265.8 16 C 266.4 16 266.9 16 267.5 15.9 C 268.1 15.9 268.6 15.9 269.2 15.9 C 269.8 15.9 270.3 15.9 270.9 15.9 C 271.5 15.9 272 15.9 272.6 15.9 C 272.6 15.7 272.6 15.5 272.6 15.3 C 272.6 15.1 272.6 14.9 272.6 14.7 C 272.6 14.5 272.6 14.3 272.6 14.1 C 272.6 13.9 272.6 13.7 272.6 13.5 C 272 13.5 271.4 13.5 270.8 13.6 C 270.2 13.6 269.6 13.6 269 13.7 C 268.4 13.7 267.8 13.7 267.2 13.8 C 266.6 13.8 266 13.9 265.4 13.9 C 264.7 13.9 264 14.1 263.4 14.4 C 262.8 14.7 262.2 15.1 261.8 15.6 C 261.3 16.1 261 16.7 260.7 17.3 C 260.4 17.9 260.3 18.6 260.3 19.3 C 260.3 20 260.5 20.7 260.7 21.3 C 261 21.9 261.4 22.5 261.9 23 C 262.4 23.5 263 23.9 263.6 24.2 C 264.2 24.5 264.9 24.7 265.6 24.7 L 265.6 24.7 L 265.6 24.7 L 265.6 24.7 L 265.6 24.7 L 265.6 24.7 L 265.6 24.7 L 265.6 24.7 L 265.6 24.7 C 265.7 24.7 265.9 24.7 266 24.7 C 266.1 24.7 266.3 24.7 266.4 24.7 C 266.5 24.7 266.7 24.7 266.8 24.7 C 266.9 24.7 267.1 24.7 267.2 24.7 L 267.3 24.7 L 267.4 24.8 L 267.5 24.9 C 267.5 24.9 267.5 25 267.5 25.1 C 267.5 25.2 267.5 25.2 267.5 25.2 C 267.5 25.2 267.5 25.3 267.4 25.3 C 267.3 25.3 267.3 25.4 267.3 25.4 L 267.2 25.4 C 267 25.4 266.8 25.4 266.6 25.4 C 266.4 25.4 266.2 25.4 266 25.4 C 265.8 25.4 265.6 25.4 265.4 25.4 C 265.7 25 265.5 25 265.3 25 L 265.3 25 L 265.3 25 Z  M 268.4 18.5 C 268.8 18.5 269.2 18.5 269.6 18.5 C 270 18.5 270.4 18.5 270.8 18.5 C 271.2 18.5 271.6 18.5 272 18.5 C 272.4 18.5 272.8 18.5 273.2 18.5 C 273.2 18.3 273.2 18.1 273.2 18 C 273.2 17.8 273.2 17.6 273.2 17.5 C 273.2 17.4 273.2 17.1 273.2 17 C 273.2 16.8 273.2 16.6 273.2 16.5 C 272.6 16.5 272 16.5 271.4 16.5 C 270.8 16.5 270.2 16.5 269.6 16.5 C 269 16.5 268.4 16.5 267.8 16.5 C 267.2 16.5 266.6 16.5 266 16.5 L 266 16.5 L 266 16.5 L 266 16.5 L 266 16.5 C 265.7 16.5 265.4 16.6 265.1 16.8 C 264.8 16.9 264.6 17.1 264.3 17.4 C 264.1 17.6 263.9 17.9 263.8 18.2 C 263.7 18.5 263.6 18.8 263.6 19.2 C 263.6 19.6 263.7 19.9 263.8 20.2 C 263.9 20.5 264.1 20.8 264.3 21 C 264.5 21.2 264.8 21.4 265.1 21.6 C 265.4 21.7 265.7 21.8 266.1 21.8 C 266.3 21.8 266.6 21.8 266.8 21.8 C 267 21.8 267.3 21.8 267.5 21.8 C 267.7 21.8 268 21.8 268.2 21.8 C 268.4 21.8 268.7 21.8 268.9 21.8 C 269.2 21.9 269.5 22.1 269.7 22.3 C 269.9 22.5 270.2 22.7 270.4 23 C 270.6 23.3 270.7 23.6 270.9 23.9 C 271 24.2 271.1 24.6 271.1 24.9 C 271.1 25.4 271 25.8 270.8 26.2 C 270.6 26.6 270.4 26.9 270.1 27.2 C 269.8 27.5 269.5 27.7 269.1 27.8 C 268.7 27.9 268.3 28 267.9 28 C 267.3 28 266.8 27.9 266.2 27.9 C 265.6 27.9 265.1 27.8 264.5 27.8 C 263.9 27.8 263.4 27.7 262.8 27.7 C 262.2 27.7 261.7 27.6 261.1 27.6 L 261.1 28.1 C 261.1 28.1 261.1 28.5 261.1 28.6 L 261.1 29 C 261.1 29 261.1 29.4 261.1 29.5 C 261.7 29.6 262.3 29.6 262.9 29.7 C 263.5 29.8 264.1 29.8 264.7 29.8 C 265.3 29.8 265.9 29.9 266.5 29.9 C 267.1 29.9 267.7 30 268.3 30 C 269 30 269.7 29.9 270.3 29.7 C 270.9 29.5 271.5 29.1 271.9 28.6 C 272.4 28.1 272.7 27.5 273 26.9 C 273.3 26.2 273.4 25.5 273.4 24.7 C 273.4 23.9 273.2 23.2 273 22.5 C 272.7 21.8 272.3 21.2 271.8 20.7 C 271.3 20.2 270.7 19.8 270.1 19.5 C 269.5 19.2 268.8 19.1 268.1 19.1 L 268.1 19.1 L 268.1 19.1 L 268.1 19.1 L 268.1 19.1 L 268.1 19.1 L 268.1 19.1 L 268.1 19.1 L 268.1 19.1 C 268 19.1 267.8 19.1 267.7 19.1 C 267.6 19.1 267.4 19.1 267.3 19.1 C 267.2 19.1 267 19.1 266.9 19.1 C 266.8 19.1 266.6 19.1 266.5 19.1 C 266.4 19.1 266.4 19.1 266.4 19.1 C 266.4 19.1 266.3 19.1 266.3 19 L 266.2 18.9 L 266.2 18.8 C 266.2 18.7 266.2 18.7 266.2 18.7 C 266.2 18.7 266.2 18.6 266.3 18.6 L 266.4 18.5 L 266.5 18.5 C 266.7 18.5 266.9 18.5 267.1 18.5 C 267.3 18.5 267.5 18.5 267.7 18.5 C 267.9 18.5 268.1 18.5 268.4 18.5 C 268 18.5 268.2 18.5 268.4 18.5 L 268.4 18.5 L 268.4 18.5 Z " fill="rgb(255,255,255)"/><path d=" M 414 49.7 L 418.4 56.4 L 430.5 56.4 L 426.1 49.7 L 414 49.7 L 414 49.7 Z  M 450.8 49.7 L 446.4 56.4 L 458.5 56.4 L 462.9 49.7 L 450.8 49.7 L 450.8 49.7 Z  M 64.3 50.3 L 64.3 56.4 L 118.2 56.4 L 123.6 56.4 C 123.6 53.1 121.2 50.4 118.2 50.3 L 64.3 50.3 L 64.3 50.3 Z  M 129.7 50.3 L 129.7 56.4 L 168.7 56.4 L 168.7 50.3 L 129.7 50.3 L 129.7 50.3 Z  M 179.8 50.3 C 176.8 50.3 174.4 53 174.4 56.4 L 179.8 56.4 L 185.3 56.4 L 220.5 56.4 L 220.5 50.3 L 179.8 50.3 L 179.8 50.3 L 179.8 50.3 Z  M 231.4 50.3 C 228.4 50.3 226 53 226 56.4 L 231.4 56.4 L 236.9 56.4 L 264 56.4 L 269.6 56.4 C 269.6 53 267.1 50.3 264.1 50.3 C 264 50.3 264 50.3 263.9 50.3 L 231.4 50.3 L 231.4 50.3 Z  M 295.3 50.3 L 295.3 56.4 L 335.5 56.4 L 340.9 56.4 C 340.9 53.1 338.5 50.4 335.5 50.3 L 295.3 50.3 L 295.3 50.3 Z  M 353.1 50.3 L 353.1 50.3 C 350.3 50.6 348.1 53.2 348.1 56.4 L 353.1 56.4 L 359 56.4 L 379.1 56.4 L 381.7 56.4 L 390.6 56.4 L 392.7 56.4 C 392.7 53.1 390.3 50.4 387.3 50.3 L 353.1 50.3 L 353.1 50.3 Z  M 399.2 50.3 L 399.2 56.4 L 410.1 56.4 L 410.1 50.3 L 399.2 50.3 L 399.2 50.3 Z  M 467.2 50.3 L 467.2 56.4 L 506.2 56.4 L 506.2 50.3 L 467.2 50.3 L 467.2 50.3 Z  M 39.3 55.6 C 35.4 55.6 32.3 58.7 32.3 62.6 C 32.3 66.5 35.4 69.7 39.3 69.7 C 43.2 69.7 46.3 66.5 46.3 62.6 C 46.3 58.7 43.1 55.6 39.3 55.6 Z  M 528.2 55.6 C 524.3 55.6 521.1 58.7 521.1 62.6 C 521.1 66.5 524.3 69.7 528.2 69.7 C 532.1 69.7 535.2 66.5 535.2 62.6 C 535.2 58.7 532.1 55.6 528.2 55.6 Z  M 64.3 58.4 L 64.3 76.5 L 75.1 76.5 L 75.1 58.4 L 64.3 58.4 L 64.3 58.4 Z  M 88.4 58.4 L 88.4 76.5 L 99.3 76.5 L 99.3 58.4 L 88.4 58.4 L 88.4 58.4 Z  M 112.5 58.4 L 112.5 76.5 L 123.5 76.5 L 123.5 58.4 L 112.5 58.4 L 112.5 58.4 Z  M 129.7 58.4 L 129.7 70 C 129.8 73.6 133.2 76.5 137.2 76.5 L 168.7 76.5 L 168.7 70.4 L 143 70.4 C 141.7 70.4 140.6 69.3 140.6 68 L 140.6 66.5 L 166.8 66.5 L 166.8 60.9 L 143 60.9 C 141.7 60.9 140.6 59.8 140.6 58.5 L 139.6 58.5 L 129.7 58.4 L 129.7 58.4 Z  M 174.3 58.4 L 174.3 70.2 L 174.3 70.2 C 174.5 73.5 177.4 76.2 181.1 76.5 L 181.1 76.5 L 213.1 76.5 L 213.1 76.5 C 217.2 76.2 220.4 72.9 220.4 68.7 C 220.4 64.4 216.9 60.9 212.6 60.9 L 212.5 60.9 L 193.8 60.9 L 193.8 66.5 L 207.3 66.5 C 208.4 66.5 209.3 67.4 209.3 68.5 C 209.3 69.6 208.4 70.5 207.3 70.5 L 187.2 70.5 C 186.1 70.5 185.2 69.6 185.2 68.5 L 185.2 58.5 L 174.3 58.4 L 174.3 58.4 Z  M 225.9 58.4 L 225.9 76.5 L 236.8 76.5 L 236.8 58.4 L 225.9 58.4 L 225.9 58.4 Z  M 258.7 58.4 L 258.7 63.8 L 238.8 63.8 L 238.8 70.9 L 258.7 70.9 L 258.7 76.5 L 269.7 76.5 L 269.7 58.4 L 258.7 58.4 L 258.7 58.4 Z  M 295.3 58.4 L 295.3 76.5 L 306.2 76.5 L 306.2 58.4 L 295.3 58.4 L 295.3 58.4 Z  M 329.9 58.4 L 329.9 68.4 C 329.9 69.5 329 70.4 327.9 70.4 L 307.7 70.4 L 307.7 76.5 L 334 76.5 L 334 76.5 C 337.8 76.2 340.9 73.3 340.9 69.8 L 340.9 58.4 L 329.9 58.4 L 329.9 58.4 Z  M 348.1 58.4 L 348.1 76.5 L 359 76.5 L 359 58.4 L 348.1 58.4 L 348.1 58.4 Z  M 381.7 58.4 L 381.7 61.8 C 381.7 61.8 381.7 61.8 381.7 61.9 C 381.7 63 380.8 63.8 379.7 63.8 L 377.3 63.8 L 361.4 63.8 L 361.4 70.9 L 376.7 70.9 L 382.2 76.5 L 395.3 76.5 L 387.8 68.9 C 390.7 67.7 392.7 64.9 392.7 61.7 L 392.7 58.4 L 392 58.4 L 381.7 58.4 L 381.7 58.4 Z  M 399.2 58.4 L 399.2 76.5 L 410.1 76.5 L 410.1 58.4 L 399.2 58.4 L 399.2 58.4 Z  M 419.7 58.4 L 431.7 76.5 L 432.9 76.5 L 443.8 76.5 L 445 76.5 L 457 58.4 L 444.9 58.4 L 438.3 68.3 L 431.7 58.4 L 419.7 58.4 L 419.7 58.4 Z  M 467.2 58.4 L 467.2 70 C 467.3 73.6 470.7 76.5 474.7 76.5 L 506.2 76.5 L 506.2 70.4 L 480.5 70.4 C 479.2 70.4 478.1 69.3 478.1 68 L 478.1 66.5 L 504.3 66.5 L 504.3 60.9 L 480.6 60.9 C 479.3 60.9 478.2 59.8 478.2 58.5 L 467.2 58.4 L 467.2 58.4 Z " fill="rgb(255,255,255)"/></g></svg>