<svg version="1.1" id="Layer_1" xmlns="http://www.w3.org/2000/svg" xmlns:xlink="http://www.w3.org/1999/xlink" x="0px" y="0px"
	 width="566.9px" height="90.3px" viewBox="0 0 566.9 90.3" style="enable-background:new 0 0 566.9 90.3;" xml:space="preserve">
<style type="text/css">
	.st0{fill:#FFFFFF;}
</style>
<path class="st0" d="M302.6,15.7c-0.4,1.2-0.7,2.4-1.1,3.7c-0.4,1.2-0.7,2.5-1.1,3.7s-0.7,2.5-1.1,3.7c-0.4,1.3-0.7,2.5-1.1,3.8
	c0.2,0,0.4,0,0.6,0s0.4,0,0.5,0c0.2,0,0.4,0,0.5,0s0.4,0,0.6,0c0.4-1.2,0.7-2.4,1.1-3.6s0.7-2.4,1.1-3.6s0.7-2.4,1.1-3.5
	c0.4-1.2,0.7-2.3,1.1-3.5c0-0.2,0.1-0.3,0.2-0.4s0.2-0.2,0.3-0.3c0.1-0.1,0.2-0.2,0.4-0.2c0.1,0,0.3-0.1,0.4-0.1s0.3,0,0.4,0.1
	s0.3,0.1,0.4,0.2c0.1,0.1,0.2,0.2,0.3,0.4c0.1,0.1,0.1,0.3,0.2,0.4c0.3,1,0.6,2,0.9,2.9c0.3,1,0.6,1.9,0.9,2.9s0.6,1.9,0.9,2.8
	s0.6,1.9,0.9,2.8c-0.5,0-1,0.1-1.5,0.1s-1,0.1-1.5,0.1s-1,0.1-1.5,0.1s-1,0.1-1.5,0.1v0.5v0.5v0.5v0.5c0.7,0,1.5-0.1,2.2-0.1
	c0.7-0.1,1.5-0.1,2.2-0.2s1.5-0.1,2.2-0.2s1.5-0.1,2.2-0.2c-0.4-1.1-0.7-2.2-1.1-3.3c-0.4-1.1-0.7-2.2-1.1-3.4
	c-0.4-1.1-0.7-2.3-1.1-3.5s-0.7-2.3-1.1-3.5c-0.1-0.4-0.3-0.8-0.5-1.1s-0.5-0.6-0.8-0.9c-0.3-0.3-0.6-0.5-1-0.6s-0.8-0.2-1.2-0.3
	c-0.4,0-0.8,0-1.2,0.2c-0.4,0.1-0.7,0.3-1,0.5s-0.6,0.5-0.8,0.9C302.9,14.9,302.7,15.3,302.6,15.7L302.6,15.7z M305.2,24.7
	c0.1-0.2,0.1-0.4,0.2-0.6s0.1-0.4,0.2-0.6s0.1-0.4,0.2-0.6s0.1-0.4,0.2-0.6c0.1,0.2,0.1,0.4,0.2,0.6s0.1,0.4,0.2,0.6
	s0.1,0.4,0.2,0.6s0.1,0.4,0.2,0.6c-0.1,0-0.3,0-0.4,0s-0.3,0-0.4,0s-0.3,0-0.4,0S305.3,24.7,305.2,24.7L305.2,24.7z M304.9,17.6
	c-0.3,1-0.7,2.1-1,3.2s-0.7,2.1-1,3.2s-0.7,2.1-1,3.2s-0.7,2.2-1,3.3c0.2,0,0.4,0,0.6,0s0.4,0,0.6,0s0.4,0,0.6,0s0.4,0,0.6,0
	c0.1-0.4,0.3-0.9,0.4-1.3s0.3-0.9,0.4-1.3s0.3-0.9,0.4-1.3s0.3-0.9,0.4-1.3v0.6v0.6v0.6c0,0,0,0.4,0,0.6c0.4,0,0.9,0,1.3-0.1
	c0.4,0,0.9,0,1.3-0.1c0.4,0,0.9,0,1.3-0.1s0.9,0,1.3-0.1c-0.3-0.8-0.5-1.6-0.8-2.3c-0.3-0.8-0.5-1.6-0.8-2.4s-0.5-1.6-0.8-2.4
	s-0.5-1.6-0.8-2.4c0-0.1-0.1-0.3-0.2-0.6c-0.1-0.2-0.2-0.5-0.3-0.7c-0.1-0.2-0.2-0.4-0.3-0.6c-0.1-0.2-0.3-0.3-0.4-0.3
	s-0.3,0.1-0.4,0.2c-0.1,0.2-0.2,0.4-0.3,0.6s-0.2,0.5-0.3,0.7C305,17.3,304.9,17.5,304.9,17.6L304.9,17.6z M290.8,15.5
	c0.6,0,1.3,0,1.9,0s1.3,0,1.9,0s1.3,0,1.9,0s1.3,0,1.9,0c0-0.2,0-0.4,0-0.6c0-0.2,0-0.4,0-0.6s0-0.4,0-0.6c0-0.2,0-0.4,0-0.6
	c-0.7,0-1.3,0-2,0s-1.3,0-2,0s-1.3,0-2,0s-1.3,0-2,0c-0.5,0-1,0.1-1.5,0.3s-0.9,0.5-1.2,0.9c-0.4,0.4-0.6,0.9-0.8,1.4
	c-0.2,0.5-0.3,1.1-0.3,1.7v2.3V22c0,0,0,1.5,0,2.3v2.3c0,0.6,0.1,1.2,0.3,1.7c0.2,0.5,0.5,1,0.8,1.4s0.8,0.7,1.2,0.9
	c0.5,0.2,1,0.3,1.5,0.3c0.7,0,1.3,0,2,0s1.3,0,2,0s1.3,0,2-0.1c0.7,0,1.3,0,2-0.1c0-0.9,0-1.9,0-2.8s0-1.9,0-2.8s0-1.9,0-2.8
	s0-1.9,0-2.8c-0.5,0-1,0-1.6,0c-0.5,0-1,0-1.6,0c-0.5,0-1,0-1.6,0c-0.5,0-1,0-1.6,0v0.6v0.6v0.6c0,0.2,0,0.4,0,0.6c0.3,0,0.7,0,1,0
	s0.7,0,1,0s0.7,0,1,0s0.7,0,1,0c0,0.6,0,1.1,0,1.7s0,1.1,0,1.7s0,1.1,0,1.7s0,1.1,0,1.7c-0.5,0-0.9,0-1.4,0s-0.9,0-1.4,0
	s-0.9,0-1.4,0s-0.9,0-1.4,0c-0.3,0-0.5-0.1-0.7-0.2s-0.4-0.3-0.6-0.4c-0.2-0.2-0.3-0.4-0.4-0.7c-0.1-0.2-0.1-0.5-0.1-0.8
	c0-0.7,0-1.4,0-2.2c0-0.7,0-1.4,0-2.2c0-0.7,0-1.4,0-2.2c0-0.7,0-1.4,0-2.2c0-0.3,0-0.6,0.1-0.8c0.1-0.2,0.2-0.5,0.4-0.7
	c0.2-0.2,0.4-0.3,0.6-0.4C290.3,15.6,290.5,15.5,290.8,15.5L290.8,15.5z M292.3,22.1v0.6v0.6c0,0,0,0.4,0,0.6s0,0.4,0,0.6
	c0.1,0,0.2,0,0.3,0s0.2,0,0.3,0c0.1,0,0.2,0,0.3,0s0.2,0,0.3,0c0,0.1,0,0.1,0,0.2s0,0.1,0,0.2s0,0.1,0,0.2v0.2c-0.1,0-0.2,0-0.3,0
	c-0.1,0-0.2,0-0.3,0c-0.1,0-0.2,0-0.3,0s-0.2,0-0.3,0c-0.1,0-0.1,0-0.2,0s-0.1-0.1-0.2-0.1c0-0.1-0.1-0.1-0.1-0.2s0-0.2,0-0.2
	c0-0.4,0-0.9,0-1.3s0-0.9,0-1.3s0-0.9,0-1.3s0-0.9,0-1.3c0-0.1,0-0.2,0-0.2c0-0.1,0.1-0.1,0.1-0.2s0.1-0.1,0.2-0.1s0.1,0,0.2,0
	c0.5,0,1,0,1.6,0c0.5,0,1,0,1.6,0c0.5,0,1,0,1.6,0c0.5,0,1,0,1.6,0c0-0.2,0-0.4,0-0.6s0-0.4,0-0.6s0-0.4,0-0.6s0-0.4,0-0.6
	c-0.6,0-1.2,0-1.8,0c-0.6,0-1.2,0-1.8,0s-1.2,0-1.8,0c-0.6,0-1.2,0-1.8,0c-0.3,0-0.5,0.1-0.7,0.2s-0.4,0.3-0.6,0.4
	c-0.2,0.2-0.3,0.4-0.4,0.7c-0.1,0.2-0.1,0.5-0.1,0.8V20v1.9c0,0.6,0,1.2,0,1.9c0,0.6,0,1.2,0,1.9c0,0.3,0.1,0.6,0.1,0.8
	c0.1,0.2,0.2,0.5,0.4,0.7c0.2,0.2,0.4,0.3,0.6,0.4s0.5,0.2,0.7,0.2c0.4,0,0.7,0,1.1,0s0.7,0,1.1,0s0.7,0,1.1,0s0.7,0,1.1,0
	c0-0.5,0-0.9,0-1.4s0-0.9,0-1.4s0-0.9,0-1.4s0-0.9,0-1.4c-0.3,0-0.6,0-0.9,0s-0.6,0-0.9,0s-0.6,0-0.9,0S292.6,22.1,292.3,22.1
	L292.3,22.1z M278.1,15.6c0.6,0,1.3,0,1.9,0s1.3,0,1.9,0s1.3,0,1.9,0s1.3,0,1.9,0c0-0.2,0-0.4,0-0.6s0-0.4,0-0.6s0-0.4,0-0.6
	c0-0.2,0-0.4,0-0.6c-0.7,0-1.3,0-2,0s-1.3,0-2,0s-1.3,0-2,0s-1.3,0-2,0c-0.5,0-1,0.1-1.5,0.4c-0.5,0.2-0.9,0.5-1.2,0.9
	c-0.4,0.4-0.6,0.9-0.8,1.4c-0.2,0.5-0.3,1.1-0.3,1.6v2.2c0,0,0,1.5,0,2.2V24c0,0.7,0,1.5,0,2.2c0,0.6,0.1,1.1,0.3,1.6
	c0.2,0.5,0.5,1,0.8,1.4s0.8,0.7,1.2,1c0.5,0.2,1,0.4,1.5,0.4c0.7,0,1.3,0,2,0.1c0.7,0,1.3,0,2,0s1.3,0,2,0s1.3,0,2,0
	c0-0.2,0-0.4,0-0.6s0-0.4,0-0.6s0-0.4,0-0.6s0-0.4,0-0.6c-0.6,0-1.3,0-1.9,0s-1.3,0-1.9,0s-1.3,0-1.9,0s-1.3,0-1.9,0
	c-0.3,0-0.5-0.1-0.7-0.2s-0.4-0.3-0.6-0.4c-0.2-0.2-0.3-0.4-0.4-0.7c-0.1-0.2-0.1-0.5-0.1-0.8c0-0.7,0-1.4,0-2.1s0-1.4,0-2.1
	s0-1.4,0-2.1s0-1.4,0-2.1c0-0.3,0.1-0.5,0.1-0.8c0.1-0.2,0.2-0.5,0.4-0.6c0.2-0.2,0.4-0.3,0.6-0.4C277.6,15.6,277.9,15.6,278.1,15.6
	L278.1,15.6z M284.2,21.5c0-0.2,0-0.4,0-0.6s0-0.4,0-0.6s0-0.4,0-0.6s0-0.4,0-0.6c-0.4,0-0.9,0-1.3,0s-0.9,0-1.3,0s-0.9,0-1.3,0
	s-0.9,0-1.3,0c0-0.1,0-0.2,0-0.2c0-0.1,0.1-0.1,0.1-0.2s0.1-0.1,0.2-0.1s0.1,0,0.2-0.1c0.5,0,1,0,1.6,0c0.5,0,1,0,1.6,0
	c0.5,0,1,0,1.6,0c0.5,0,1,0,1.6,0c0-0.2,0-0.4,0-0.6s0-0.4,0-0.6s0-0.4,0-0.6s0-0.4,0-0.6c-0.6,0-1.2,0-1.8,0c-0.6,0-1.2,0-1.8,0
	c-0.6,0-1.2,0-1.8,0c-0.6,0-1.2,0-1.8,0c-0.3,0-0.5,0.1-0.7,0.2s-0.4,0.3-0.6,0.4c-0.2,0.2-0.3,0.4-0.4,0.6s-0.1,0.5-0.1,0.8V19v0.8
	c0,0,0,0.5,0,0.8v0.8c0.6,0,1.2,0,1.8,0c0.6,0,1.2,0,1.8,0c0.6,0,1.2,0,1.8,0C283,21.5,283.6,21.5,284.2,21.5z M284.2,22.3v0.6v0.6
	c0,0,0,0.4,0,0.6s0,0.4,0,0.6c-0.4,0-0.9,0-1.3,0s-0.9,0-1.3,0s-0.9,0-1.3,0s-0.9,0-1.3,0c0,0.1,0,0.2,0,0.2c0,0.1,0.1,0.1,0.1,0.2
	s0.1,0.1,0.2,0.1s0.1,0.1,0.2,0.1c0.5,0,1,0,1.6,0c0.5,0,1,0,1.6,0c0.5,0,1,0,1.6,0c0.5,0,1,0,1.6,0v0.6c0,0,0,0.4,0,0.6
	s0,0.4,0,0.6s0,0.4,0,0.6c-0.6,0-1.2,0-1.8,0c-0.6,0-1.2,0-1.8,0c-0.6,0-1.2,0-1.8,0c-0.6,0-1.2,0-1.8,0c-0.3,0-0.5-0.1-0.7-0.2
	s-0.4-0.3-0.6-0.5s-0.3-0.4-0.4-0.7c-0.1-0.2-0.1-0.5-0.1-0.8s0-0.5,0-0.8s0-0.5,0-0.8s0-0.5,0-0.8s0-0.5,0-0.8c0.6,0,1.2,0,1.8,0
	c0.6,0,1.2,0,1.8,0c0.6,0,1.2,0,1.8,0C283,22.3,283.6,22.3,284.2,22.3L284.2,22.3z M265.3,25c-0.4,0-0.8,0-1.2,0c-0.4,0-0.8,0-1.2,0
	c-0.4,0-0.8,0-1.2,0c-0.4,0-0.8,0-1.2-0.1v0.5c0,0,0,0.3,0,0.5s0,0.3,0,0.5s0,0.3,0,0.5c0.6,0,1.2,0.1,1.8,0.1
	c0.6,0,1.2,0.1,1.8,0.1s1.2,0.1,1.8,0.1s1.2,0.1,1.8,0.1l0,0l0,0l0,0l0,0c0.3,0,0.6-0.1,0.9-0.2s0.5-0.3,0.8-0.5
	c0.2-0.2,0.4-0.5,0.5-0.8s0.2-0.6,0.2-1s-0.1-0.7-0.2-1s-0.3-0.6-0.5-0.9c-0.2-0.2-0.5-0.4-0.8-0.6c-0.3-0.1-0.6-0.2-1-0.2
	c-0.2,0-0.5,0-0.7,0s-0.5,0-0.7,0s-0.5,0-0.7,0s-0.5,0-0.7,0c-0.3-0.1-0.6-0.3-0.8-0.5c-0.2-0.2-0.5-0.4-0.7-0.7
	c-0.2-0.3-0.3-0.5-0.5-0.8c-0.1-0.3-0.2-0.6-0.2-0.9c0-0.4,0.1-0.8,0.3-1.2c0.2-0.4,0.4-0.7,0.7-1c0.3-0.3,0.6-0.5,1-0.7
	s0.8-0.3,1.2-0.3c0.6,0,1.1,0,1.7-0.1c0.6,0,1.1,0,1.7,0s1.1,0,1.7,0s1.1,0,1.7,0c0-0.2,0-0.4,0-0.6c0-0.2,0-0.4,0-0.6
	c0-0.2,0-0.4,0-0.6s0-0.4,0-0.6c-0.6,0-1.2,0-1.8,0.1c-0.6,0-1.2,0-1.8,0.1c-0.6,0-1.2,0-1.8,0.1c-0.6,0-1.2,0.1-1.8,0.1
	c-0.7,0-1.4,0.2-2,0.5s-1.2,0.7-1.6,1.2c-0.5,0.5-0.8,1.1-1.1,1.7c-0.3,0.6-0.4,1.3-0.4,2s0.2,1.4,0.4,2c0.3,0.6,0.7,1.2,1.2,1.7
	s1.1,0.9,1.7,1.2c0.6,0.3,1.3,0.5,2,0.5l0,0l0,0l0,0l0,0l0,0l0,0l0,0l0,0c0.1,0,0.3,0,0.4,0s0.3,0,0.4,0s0.3,0,0.4,0s0.3,0,0.4,0
	h0.1l0.1,0.1l0.1,0.1c0,0,0,0.1,0,0.2s0,0.1,0,0.1s0,0.1-0.1,0.1s-0.1,0.1-0.1,0.1h-0.1c-0.2,0-0.4,0-0.6,0s-0.4,0-0.6,0
	s-0.4,0-0.6,0C265.7,25,265.5,25,265.3,25L265.3,25z M268.4,18.5c0.4,0,0.8,0,1.2,0c0.4,0,0.8,0,1.2,0c0.4,0,0.8,0,1.2,0
	c0.4,0,0.8,0,1.2,0c0-0.2,0-0.4,0-0.5c0-0.2,0-0.4,0-0.5s0-0.4,0-0.5c0-0.2,0-0.4,0-0.5c-0.6,0-1.2,0-1.8,0c-0.6,0-1.2,0-1.8,0
	c-0.6,0-1.2,0-1.8,0c-0.6,0-1.2,0-1.8,0l0,0l0,0l0,0l0,0c-0.3,0-0.6,0.1-0.9,0.3c-0.3,0.1-0.5,0.3-0.8,0.6c-0.2,0.2-0.4,0.5-0.5,0.8
	s-0.2,0.6-0.2,1s0.1,0.7,0.2,1s0.3,0.6,0.5,0.8c0.2,0.2,0.5,0.4,0.8,0.6c0.3,0.1,0.6,0.2,1,0.2c0.2,0,0.5,0,0.7,0s0.5,0,0.7,0
	s0.5,0,0.7,0s0.5,0,0.7,0c0.3,0.1,0.6,0.3,0.8,0.5c0.2,0.2,0.5,0.4,0.7,0.7s0.3,0.6,0.5,0.9c0.1,0.3,0.2,0.7,0.2,1
	c0,0.5-0.1,0.9-0.3,1.3c-0.2,0.4-0.4,0.7-0.7,1c-0.3,0.3-0.6,0.5-1,0.6s-0.8,0.2-1.2,0.2c-0.6,0-1.1-0.1-1.7-0.1s-1.1-0.1-1.7-0.1
	s-1.1-0.1-1.7-0.1s-1.1-0.1-1.7-0.1v0.5c0,0,0,0.4,0,0.5V29c0,0,0,0.4,0,0.5c0.6,0.1,1.2,0.1,1.8,0.2c0.6,0.1,1.2,0.1,1.8,0.1
	c0.6,0,1.2,0.1,1.8,0.1c0.6,0,1.2,0.1,1.8,0.1c0.7,0,1.4-0.1,2-0.3c0.6-0.2,1.2-0.6,1.6-1.1c0.5-0.5,0.8-1.1,1.1-1.7
	c0.3-0.7,0.4-1.4,0.4-2.2c0-0.8-0.2-1.5-0.4-2.2c-0.3-0.7-0.7-1.3-1.2-1.8s-1.1-0.9-1.7-1.2c-0.6-0.3-1.3-0.4-2-0.4l0,0l0,0l0,0l0,0
	l0,0l0,0l0,0l0,0c-0.1,0-0.3,0-0.4,0s-0.3,0-0.4,0s-0.3,0-0.4,0s-0.3,0-0.4,0s-0.1,0-0.1,0s-0.1,0-0.1-0.1l-0.1-0.1v-0.1
	c0-0.1,0-0.1,0-0.1s0-0.1,0.1-0.1l0.1-0.1h0.1c0.2,0,0.4,0,0.6,0s0.4,0,0.6,0S268.1,18.5,268.4,18.5C268,18.5,268.2,18.5,268.4,18.5
	L268.4,18.5z"/>
<path class="st0" d="M414,49.7l4.4,6.7h12.1l-4.4-6.7H414z M450.8,49.7l-4.4,6.7h12.1l4.4-6.7H450.8z M64.3,50.3v6.1h53.9h5.4
	c0-3.3-2.4-6-5.4-6.1H64.3z M129.7,50.3v6.1h39v-6.1H129.7z M179.8,50.3c-3,0-5.4,2.7-5.4,6.1h5.4h5.5h35.2v-6.1H179.8L179.8,50.3z
	 M231.4,50.3c-3,0-5.4,2.7-5.4,6.1h5.4h5.5H264h5.6c0-3.4-2.5-6.1-5.5-6.1c-0.1,0-0.1,0-0.2,0H231.4z M295.3,50.3v6.1h40.2h5.4
	c0-3.3-2.4-6-5.4-6.1H295.3z M353.1,50.3L353.1,50.3c-2.8,0.3-5,2.9-5,6.1h5h5.9h20.1h2.6h8.9h2.1c0-3.3-2.4-6-5.4-6.1H353.1z
	 M399.2,50.3v6.1h10.9v-6.1H399.2z M467.2,50.3v6.1h39v-6.1H467.2z M39.3,55.6c-3.9,0-7,3.1-7,7s3.1,7.1,7,7.1s7-3.2,7-7.1
	S43.1,55.6,39.3,55.6z M528.2,55.6c-3.9,0-7.1,3.1-7.1,7s3.2,7.1,7.1,7.1c3.9,0,7-3.2,7-7.1S532.1,55.6,528.2,55.6z M64.3,58.4v18.1
	h10.8V58.4H64.3z M88.4,58.4v18.1h10.9V58.4H88.4z M112.5,58.4v18.1h11V58.4H112.5z M129.7,58.4V70c0.1,3.6,3.5,6.5,7.5,6.5h31.5
	v-6.1H143c-1.3,0-2.4-1.1-2.4-2.4v-1.5h26.2v-5.6H143c-1.3,0-2.4-1.1-2.4-2.4h-1L129.7,58.4z M174.3,58.4v11.8l0,0
	c0.2,3.3,3.1,6,6.8,6.3l0,0h32l0,0c4.1-0.3,7.3-3.6,7.3-7.8c0-4.3-3.5-7.8-7.8-7.8h-0.1h-18.7v5.6h13.5c1.1,0,2,0.9,2,2s-0.9,2-2,2
	h-20.1c-1.1,0-2-0.9-2-2v-10L174.3,58.4z M225.9,58.4v18.1h10.9V58.4H225.9z M258.7,58.4v5.4h-19.9v7.1h19.9v5.6h11V58.4H258.7z
	 M295.3,58.4v18.1h10.9V58.4H295.3z M329.9,58.4v10c0,1.1-0.9,2-2,2h-20.2v6.1H334l0,0c3.8-0.3,6.9-3.2,6.9-6.7V58.4H329.9z
	 M348.1,58.4v18.1H359V58.4H348.1z M381.7,58.4v3.4c0,0,0,0,0,0.1c0,1.1-0.9,1.9-2,1.9h-2.4h-15.9v7.1h15.3l5.5,5.6h13.1l-7.5-7.6
	c2.9-1.2,4.9-4,4.9-7.2v-3.3H392H381.7z M399.2,58.4v18.1h10.9V58.4H399.2z M419.7,58.4l12,18.1h1.2h10.9h1.2l12-18.1h-12.1
	l-6.6,9.9l-6.6-9.9H419.7z M467.2,58.4V70c0.1,3.6,3.5,6.5,7.5,6.5h31.5v-6.1h-25.7c-1.3,0-2.4-1.1-2.4-2.4v-1.5h26.2v-5.6h-23.7
	c-1.3,0-2.4-1.1-2.4-2.4L467.2,58.4z"/>
</svg>
