<?xml version="1.0" encoding="utf-8"?>
<!-- Generator: Adobe Illustrator 22.1.0, SVG Export Plug-In . SVG Version: 6.00 Build 0)  -->
<svg version="1.0" xmlns="http://www.w3.org/2000/svg" xmlns:xlink="http://www.w3.org/1999/xlink" x="0px" y="0px" width="450.3px"
	 height="74.7px" viewBox="0 0 450.3 74.7" enable-background="new 0 0 450.3 74.7" xml:space="preserve">
<g id="Layer_2">
</g>
<g id="Layer_1">
	<g>
		<g>
			<path fill="#FFFFFF" d="M37.5,61.9h21.4V14.4H44.4v27.2h-0.1l-9.5-27.2H13.4v47.5h14.5V34.5h0.1L37.5,61.9z"/>
			<path fill="#FFFFFF" d="M118.1,61.9h21.4V14.4H125v27.2h-0.1l-9.5-27.2H94v47.5h14.5V34.5h0.1L118.1,61.9z"/>
			<path fill="#FFFFFF" d="M257,61.9h21.4V14.4h-14.5v27.2h-0.1l-9.5-27.2h-21.4v47.5h14.5V34.5h0.1L257,61.9z"/>
			<path fill="#FFFFFF" d="M67.6,14.4h17.8v47.5H67.6V14.4z"/>
			<path fill="#FFFFFF" d="M156,27.3h-11.3V14.4h40.5v12.9h-11.4v34.6H156V27.3z"/>
			<path fill="#FFFFFF" d="M190.5,14.4h35.3V27H208v5h16.3v12.2H208v5.3h18.3v12.5h-35.8V14.4z"/>
		</g>
		<g>
			<path fill="#FFFFFF" d="M286,14.4h21.1c18,0,23.8,10.2,23.8,24.3c0,14.3-8.8,23.2-22.7,23.2H286V14.4z M303.5,51.1h1.7
				c2.9,0,4.8-0.9,5.9-2.8c1.2-2,1.3-5.6,1.3-10.2c0-4.6-0.1-8.2-1.3-10.2c-1.1-1.9-3-2.8-5.9-2.8h-1.7V51.1z"/>
			<path fill="#FFFFFF" d="M358.9,13.2c15.5,0,23.2,10.2,23.2,25c0,14.8-7.7,25-23.2,25c-15.5,0-23.2-10.2-23.2-25
				C335.6,23.4,343.3,13.2,358.9,13.2z M358.9,51.1c2.7,0,4.8-1.3,4.8-13c0-11.4-1.9-13-4.8-13c-2.9,0-4.8,1.6-4.8,13
				C354.1,49.8,356.1,51.1,358.9,51.1z"/>
			<path fill="#FFFFFF" d="M390.4,51.9c-3.1,0-5.6,2.5-5.6,5.6c0,3.1,2.5,5.6,5.6,5.6c3.1,0,5.6-2.5,5.6-5.6
				C396.1,54.4,393.6,51.9,390.4,51.9L390.4,51.9z M390.4,62.2c-2.6,0-4.6-2.1-4.6-4.7c0-2.6,2.1-4.6,4.6-4.6c2.6,0,4.7,2.1,4.7,4.6
				C395.1,60.1,393,62.2,390.4,62.2z"/>
			<path fill="#FFFFFF" d="M389.5,60.6h-1.3v-6.2h2.6c1.1,0,2.2,0.4,2.2,1.6c0,0.8-0.5,1.3-1.3,1.5v0c1,0.1,1,0.7,1.1,1.6
				c0.1,0.4,0.1,1.1,0.4,1.5h-1.5c-0.1-0.5-0.2-1.1-0.2-1.7c0-0.3-0.1-0.8-0.6-0.8h-1.4L389.5,60.6z M389.5,57.1h1.1
				c0.6,0,0.9-0.3,0.9-0.8c0-0.5-0.3-0.8-0.9-0.8h-1.1V57.1z"/>
			<path fill="#FFFFFF" d="M37.5,61.9h21.4V14.4H44.4v27.2h-0.1l-9.5-27.2H13.4v47.5h14.5V34.5h0.1L37.5,61.9z"/>
			<path fill="#FFFFFF" d="M118.1,61.9h21.4V14.4H125v27.2h-0.1l-9.5-27.2H94v47.5h14.5V34.5h0.1L118.1,61.9z"/>
			<path fill="#FFFFFF" d="M257,61.9h21.4V14.4h-14.5v27.2h-0.1l-9.5-27.2h-21.4v47.5h14.5V34.5h0.1L257,61.9z"/>
			<path fill="#FFFFFF" d="M67.6,14.4h17.8v47.5H67.6V14.4z"/>
			<path fill="#FFFFFF" d="M156,27.3h-11.3V14.4h40.5v12.9h-11.4v34.6H156V27.3z"/>
			<path fill="#FFFFFF" d="M190.5,14.4h35.3V27H208v5h16.3v12.2H208v5.3h18.3v12.5h-35.8V14.4z"/>
		</g>
		<g>
			<path fill="#FFFFFF" d="M414,8.1c-0.9-0.1-1.9,0-3.2,0c-7.5,0.3-10.6,3.6-11.6,7.2h0.2c1.9-1.6,4.2-2.4,7.3-2.4
				c6,0,11.4,4.3,11.4,12.5c0,7.8-6,13.9-14,13.9c-10.6,0-15.2-8.1-15.2-16.7c0-7,2.5-13,6.6-16.9c3.9-3.6,8.9-5.4,15.1-5.6
				c1.6-0.1,2.6,0,3.4,0.1V8.1z M404,31.6c2.4,0,3.9-2.5,3.9-5.7c0-2.7-1.3-5.6-4.5-5.6c-2,0-3.6,1.3-4.1,2.8
				c-0.2,0.5-0.3,1.1-0.3,2.3C399.1,28.4,400.6,31.6,404,31.6L404,31.6L404,31.6z"/>
			<path fill="#FFFFFF" d="M436.8,38.6v-8.5h-15.8v-6.8l12.7-22.7h12.7v21.7h4v7.8h-4v8.5L436.8,38.6z M436.8,22.2v-6.5
				c0-2.4,0.1-4.9,0.3-7.6h-0.2c-1.2,2.6-2.2,5-3.5,7.7l-3.1,6.3l0,0.1L436.8,22.2z"/>
		</g>
	</g>
</g>
</svg>
