<?xml version="1.0" encoding="utf-8"?>
<!-- Generator: Adobe Illustrator 22.1.0, SVG Export Plug-In . SVG Version: 6.00 Build 0)  -->
<svg version="1.0" id="svg101576" xmlns:svg="http://www.w3.org/2000/svg"
	 xmlns="http://www.w3.org/2000/svg" xmlns:xlink="http://www.w3.org/1999/xlink" x="0px" y="0px" width="750.5px" height="115.8px"
	 viewBox="0 0 750.5 115.8" enable-background="new 0 0 750.5 115.8" xml:space="preserve">
<g id="layer1" transform="translate(-35.53469,-263.1837)">
	<g id="g101650" transform="translate(7.088693,7.080902)">
		<path id="path100608" fill="#FFFFFF" d="M487.4,354.6c0,1.1-0.9,2.1-2,2.1h-37.8c-1.1,0-2-1-2-2.1v-27.3c0-1.1,0.9-1.9,2-1.9h37.8
			c1.1,0,2,0.9,2,1.9V354.6z M485.7,317.1h-38.5c-5.6,0-10.1,4.5-10.1,10.1v27.4c0,5.5,4.5,10.1,10.1,10.1h38.5
			c5.6,0,10.1-4.6,10.1-10.1v-27.4C495.9,321.7,491.3,317.1,485.7,317.1"/>
		<path id="path100618" fill="#FFFFFF" d="M44.4,276.1c0,0,0,34.8,0,35.3c-0.5,0-8.4,0-8.8,0c0-0.5,0-47.2,0-47.7c0.5,0,7.3,0,7.5,0
			l35.8,34.8c0,0,0-34.2,0-34.8c0.5,0,7.1,0,7.1,0s1.3,0,1.6,0c0,0.5,0,47.2,0,47.7c-0.5,0-6.7,0-6.9,0L44.4,276.1"/>
		<path id="path100622" fill="#FFFFFF" d="M132.9,276.1c0,0,0,34.8,0,35.3c-0.5,0-8.3,0-8.8,0c0-0.5,0-47.2,0-47.7
			c0.5,0,7.3,0,7.5,0l35.8,34.8c0,0,0-34.2,0-34.8c0.5,0,7.1,0,7.1,0s1.3,0,1.6,0c0,0.5,0,47.2,0,47.7c-0.5,0-6.7,0-6.9,0
			L132.9,276.1"/>
		<path id="path100626" fill="#FFFFFF" d="M316.3,276.1c0,0,0,34.8,0,35.3c-0.5,0-8.3,0-8.8,0c0-0.5,0-47.2,0-47.7
			c0.5,0,7.3,0,7.5,0l35.8,34.8c0,0,0-34.2,0-34.8c0.5,0,7.1,0,7.1,0s1.3,0,1.6,0c0,0.5,0,47.2,0,47.7c-0.5,0-6.7,0-6.9,0
			L316.3,276.1"/>
		<path id="path100630" fill="#FFFFFF" d="M108.6,263.7c0,0,1.3,0,1.6,0c0,0.5,0,47.2,0,47.7c-0.5,0-8.4,0-8.8,0
			c0-0.5,0-47.2,0-47.7C101.9,263.7,108.6,263.7,108.6,263.7"/>
		<path id="path100634" fill="#FFFFFF" d="M236.2,263.7c0,0,1.2,0,1.6,0c0,0.4,0,7.8,0,8.2c-0.5,0-21.3,0-21.3,0s0,39,0,39.5
			c-0.5,0-8.7,0-9.2,0c0-0.5,0-39.5,0-39.5s-20.8,0-21.3,0c0-0.4,0-7.8,0-8.2C186.6,263.7,236.2,263.7,236.2,263.7"/>
		<path id="path100638" fill="#FFFFFF" d="M292.7,263.7c0,0,1.3,0,1.7,0c0,0.4,0,7.8,0,8.2c-0.5,0-37.8,0-37.8,0v10.7
			c0,0,28.8,0,29.3,0c0,0.5,0,7.7,0,8.2c-0.5,0-29.3,0-29.3,0v12.4c0,0,37.3,0,37.8,0c0,0.4,0,7.7,0,8.2c-0.5,0-46.1,0-46.6,0
			c0-0.5,0-47.2,0-47.7C248.3,263.7,292.7,263.7,292.7,263.7"/>
		<path id="path100642" fill="#FFFFFF" d="M408.6,303.2h-27.1v-31.3h27.1c8.5,0,11.5,8.4,11.5,15.6
			C420.1,294.7,417.1,303.2,408.6,303.2z M423.1,270.7c-3.5-4.6-8.6-7-14.7-7c0,0-34.9,0-35.4,0c0,0.5,0,47.2,0,47.7
			c0.5,0,35.4,0,35.4,0c6.2,0,11.3-2.5,14.7-7c3.2-4.2,5-10,5-16.8C428,280.8,426.3,274.9,423.1,270.7"/>
		<path id="path100646" fill="#FFFFFF" d="M487.4,301.3c0,1-0.9,1.9-2,1.9h-37.8c-1.1,0-2-1-2-1.9v-27.4c0-1.1,0.9-1.9,2-1.9h37.8
			c1.1,0,2,0.9,2,1.9V301.3z M485.7,263.7h-38.5c-5.6,0-10.1,4.5-10.1,10.1v27.4c0,5.6,4.5,10.1,10.1,10.1h38.5
			c5.6,0,10.1-4.5,10.1-10.1v-27.4C495.9,268.3,491.3,263.7,485.7,263.7"/>
		<path id="path100656" fill="#FFFFFF" d="M646,344.7c9.2,3.7,28.5,6.6,43.6,6.6c16.5,0,23.3-5.6,23.3-12.7
			c0-6.5-6.3-10.1-24.6-16.8c-24.4-9-42.3-16.1-42.3-32.2c0-16.5,21.5-26.3,54.3-26.3c17.6,0,23.7,1.1,34.8,3.1l0.1,15.8
			c-11-2.1-20.7-5.6-35.8-5.6c-16.2,0-23.1,5.2-23.1,10.5c0,7.7,10.6,11.3,29.3,18c26,9.3,40.4,16.4,40.4,32.1
			c0,16.2-18.1,27.8-58.9,27.8c-16.8,0-28.3-1.1-41.2-3.2V344.7"/>
		<path id="path100660" fill="#FFFFFF" d="M559.1,277.1h-19.4v73.6h19.4c29.8,0,48.6-12.8,48.6-36.7
			C607.8,290.2,589,277.1,559.1,277.1z M611.3,357.5c-9.6,4.3-27.8,7.1-43.7,7.1h-60.7V263.4h60.7c15.9,0,34.1,2.8,43.7,7.1
			c23.4,10.6,31,27.5,31,43.5C642.3,330,634.8,346.9,611.3,357.5"/>
		<path id="path100678" fill="#FFFFFF" d="M752.2,349.5h-3.9v-1.4h9.5v1.4h-3.9v11.3h-1.7V349.5"/>
		<path id="path100682" fill="#FFFFFF" d="M770,355.2c-0.1-1.7-0.2-3.9-0.2-5.5h0c-0.5,1.5-1,3.1-1.6,4.9l-2.3,6.3h-1.3l-2.1-6.2
			c-0.6-1.8-1.1-3.5-1.5-5h0c0,1.6-0.1,3.8-0.2,5.6l-0.3,5.5h-1.6l0.9-12.7h2.1l2.2,6.2c0.5,1.6,0.9,3,1.3,4.3h0
			c0.3-1.3,0.8-2.7,1.4-4.3l2.3-6.2h2.1l0.8,12.7h-1.6L770,355.2"/>
	</g>
</g>
</svg>
