<?xml version="1.0" encoding="utf-8"?>
<!-- Generator: Adobe Illustrator 22.1.0, SVG Export Plug-In . SVG Version: 6.00 Build 0)  -->
<svg version="1.1" id="Layer_1" xmlns="http://www.w3.org/2000/svg" xmlns:xlink="http://www.w3.org/1999/xlink" x="0px" y="0px"
	 viewBox="0 0 144.4 83.8" style="enable-background:new 0 0 144.4 83.8;" xml:space="preserve">
<style type="text/css">
	.st0{fill:#FFFFFF;}
</style>
<g>
	<path class="st0" d="M122.2,83.8c-6.6-6.5-12.9-12.4-19-18.7c-6.7-6.9-10.4-15.6-13.9-24.4c-1.5-3.8-3.2-7.5-5.2-11
		c-3.5-6.2-9.1-9.2-16-10.1c-8.7-1-17.3-0.5-26-0.4c-8,0.1-15.9,0.2-23.8-1.2c-5.4-0.9-10.6-2.4-14.6-6.4C1.3,9.3-0.1,5.7,0,2.4
		c10.1,3.9,20.7,4.1,31.3,4.2c7.4,0.1,14.8,0,22.2,0.3c8.1,0.3,16.2,1,23.8,4c1.5,0.6,3,1.3,4.4,2.1c1,0.6,1.9,0.7,3,0.4
		c1.6-0.4,1.9-1,1-2.5C85,9.6,84,8.6,83.3,7.3c-0.6-1-0.8-2.1-1.2-3.1c1.1,0.1,2.1,0,3.2,0.2c4.4,1.1,8.9,1.9,13.4,1.2
		c0.4-0.1,0.9-0.2,1.3-0.4c1.3-0.5,1.4-1,0.6-2.2c-0.6-0.9-1.2-1.8-1.8-2.7C98.9,0.3,99,0.1,99.1,0c0.7,0.1,1.5,0.1,2.2,0.4
		c2.7,1,5.4,2,8,3c3.5,1.4,6.9,1.4,10.3-0.4c2.1-1.1,4.4-1.6,6.6-2.4c0.4-0.1,0.8-0.1,1.4-0.2c-0.7,0.9-1.3,1.6-1.8,2.3
		c-1.1,1.6-0.9,2.2,1,2.6c3.2,0.7,6.5,1.4,9.7,2.1c0.5,0.1,0.9,0.3,1.6,0.5c-2.6,1-4.9,2-7.3,2.7c-0.8,0.3-1.9-0.1-2.8-0.3
		c-6.8-1.5-13.5-2.5-20.4-0.7c-5.4,1.5-9.3,4.9-12.2,9.7c0.2-0.2,0.5-0.4,0.7-0.6c4.1-4.5,9.3-6.7,15.4-7c3.9-0.2,7.8,0.2,11.7,1.2
		c1.7,0.4,2.7,1.3,3.1,3.1c1.4,6.6,3.5,13,7.1,18.7c1.2,2,2.8,3.7,4.3,5.5c0.7,0.8,1,1.4,0.4,2.3c-1.5,2.2-3.1,4.4-4.7,6.6
		c-0.3,0.4-0.9,0.7-1.4,0.8c-2.4,0.3-4.9-1-6.1-3.2c-0.4-0.8-0.8-1.6-1.3-2.4c-1.3-2.2-3.1-3.4-5.7-3.6c-2-0.1-4-0.2-5.9-0.6
		c-4.3-0.9-6.7-3.9-7.4-8.7c-0.5-3.8,1.1-6.8,4.8-8.9c0.5-0.3,1-0.7,1.3-1.3c-0.4,0-0.7,0-1.1,0.1c-4.7,1.3-7.7,5.1-8,10
		c-0.3,5,1.5,9.5,3.8,13.8c3.4,6.3,7.2,12.3,10.7,18.5c2.5,4.4,4.6,9.1,5.3,14.2C122.4,79.7,122.2,81.6,122.2,83.8z M125.4,29.7
		c0.1-0.1,0.3-0.1,0.4-0.2c-1.1-2.2-2.2-4.5-3.4-6.7c-0.6-1.1-3-1.7-3.7-1.1c-0.7,0.6-0.4,2.1,0.9,3.3
		C121.6,26.6,123.5,28.1,125.4,29.7z"/>
	<path class="st0" d="M3.7,19.3c4.2,1.1,8.2,2.3,12.3,3.2c8.5,1.8,17.2,1.7,25.9,1.4c7.7-0.3,15.5-0.8,23.2,0.2
		c4.9,0.6,9.7,1.7,13,5.7c1.9,2.3,3.1,5.1,4.4,7.8c1,2.1,1.7,4.3,2.6,6.6c-2.3-1.4-4.4-2.8-6.6-3.9c-5.7-2.9-11.9-3.9-18.2-3.9
		c-8.6,0-17.1,0.5-25.7,0.6c-5.3,0-10.6,0.1-15.9-0.6C10,35.1,6,30.8,4.2,22.3C4,21.3,3.9,20.3,3.7,19.3z"/>
	<path class="st0" d="M14.1,40.5c2.4,0.3,4.3,0.4,6.1,0.6c9.7,1.1,19.3,0.3,29-0.2c7.8-0.4,15.6-0.8,23.2,1.4
		c6.1,1.8,11.8,4.6,15.8,9.9c2.1,2.8,3.7,5.9,5.7,9.1c-2.6-1.2-4.9-2.4-7.3-3.5c-10.5-5-21.5-6.4-33-5.3c-7.2,0.7-14.5,0.8-21.8,1.1
		c-5.6,0.2-10-2.2-13.3-6.5C16.9,45.2,15.6,43,14.1,40.5z"/>
	<path class="st0" d="M101,70.8c-3.2-0.9-6.3-1.8-9.5-2.5C81.8,65.9,72,65.6,62.2,67c-5.5,0.8-10.9,1.6-16.3-0.2
		c-4.5-1.5-8.6-3.8-12-7.1c-0.3-0.3-0.5-0.6-0.9-1.1c3.4,0,6.6,0.2,9.8,0c5.8-0.3,11.7-0.9,17.5-1.3c12.3-0.8,23.5,2.9,34,9
		c2.3,1.4,4.6,2.8,6.9,4.2C101,70.6,101,70.7,101,70.8z"/>
	<path class="st0" d="M108.1,77.4c-16.6,1.3-32.9-0.4-48.7-5.6c8.3-1.1,16.5-1.7,24.8-0.9C92.5,71.7,100.4,74,108.1,77.4z"/>
	<path class="st0" d="M133.2,15.8c-0.9,2.8-0.6,5.8-3.2,8c-0.4-1.8-0.9-3.7-1.2-5.5c-0.1-0.3,0.4-0.8,0.7-1
		C130.7,16.7,132,16.3,133.2,15.8z"/>
	<path class="st0" d="M138,13.6c-0.1,3.5-1.8,5.6-4.5,7.3c0.6-2,0.9-3.9,1.7-5.5C135.6,14.6,136.9,14.3,138,13.6z"/>
	<path class="st0" d="M144.4,11.4c-1.9,1.6-3.5,3-5.1,4.5C139.5,13.1,140.3,12.4,144.4,11.4z"/>
</g>
</svg>
