<?xml version="1.0" encoding="UTF-8" standalone="no"?><!-- Generator: Gravit.io --><svg xmlns="http://www.w3.org/2000/svg" xmlns:xlink="http://www.w3.org/1999/xlink" style="isolation:isolate" viewBox="0 0 800 238.151" width="800pt" height="238.151pt"><defs><clipPath id="_clipPath_a8ImAHFB1sTzTOJc5vTBOeVzEDepSL8f"><rect width="800" height="238.151"/></clipPath></defs><g clip-path="url(#_clipPath_a8ImAHFB1sTzTOJc5vTBOeVzEDepSL8f)"><path d=" M 0 0 L 0 9.149 L 225.361 9.149 L 225.361 59.874 L 0 59.874 L 0 129.721 L 9.143 129.721 L 9.143 69.021 L 233.679 69.021 L 233.679 0 L 0 0 L 0 0 Z " fill-rule="evenodd" fill="rgb(255,255,255)"/><path d=" M 517.252 0 L 517.252 9.149 L 742.62 9.149 L 742.62 59.874 L 517.252 59.874 L 517.252 129.721 L 751.764 129.721 L 751.764 120.584 L 527.237 120.584 L 527.237 69.021 L 751.764 69.021 L 751.764 0 L 517.252 0 L 517.252 0 Z " fill-rule="evenodd" fill="rgb(255,255,255)"/><path d=" M 353.431 0 L 353.431 120.584 L 233.679 120.584 L 233.679 129.721 L 363.407 129.721 L 363.407 9.149 L 482.325 9.149 L 482.325 0 L 353.431 0 L 353.431 0 Z " fill-rule="evenodd" fill="rgb(255,255,255)"/><path d=" M 775.884 116.417 L 771.721 116.417 L 771.721 114.765 L 783.368 114.765 L 783.368 116.417 L 778.377 116.417 L 778.377 129.721 L 775.884 129.721 L 775.884 116.417 L 775.884 116.417 Z " fill-rule="evenodd" fill="rgb(255,255,255)"/><path d=" M 788.358 114.765 L 792.512 127.229 L 796.676 114.765 L 800 114.765 L 800 129.721 L 798.333 129.721 L 798.333 117.256 L 794.179 129.721 L 791.682 129.721 L 787.523 117.256 L 787.523 129.721 L 785.025 129.721 L 785.025 114.765 L 788.358 114.765 L 788.358 114.765 Z " fill-rule="evenodd" fill="rgb(255,255,255)"/><path d=" M 189.722 175.407 L 189.722 221.118 L 196.857 221.118 L 196.857 179.787 L 203.463 179.787 C 203.463 179.787 208.261 179.787 209.905 181.933 C 211.301 183.756 211.556 187.062 211.556 189.296 C 211.556 191.685 211.404 195.379 210.603 196.731 C 209.386 198.797 207.388 199.212 205.561 199.212 L 201.201 199.212 L 201.201 203.268 L 207.471 203.268 C 207.471 203.268 213.127 203.504 215.561 201.031 C 218.544 197.999 219.302 193.923 219.302 188.466 C 219.302 183.508 217.503 178.506 213.825 176.807 C 210.782 175.407 205.294 175.407 205.294 175.407 L 189.722 175.407" fill="rgb(255,255,255)"/><path d=" M 224.91 221.118 L 232.045 221.118 L 232.045 175.407 L 224.91 175.407 L 224.91 221.118 L 224.91 221.118 Z " fill="rgb(255,255,255)"/><path d=" M 270.006 186.069 L 283.061 220.284 L 275.567 238.64 L 281.49 238.64 L 303.073 186.069 L 296.459 186.069 L 287.058 211.692 L 278.311 186.069 L 270.006 186.069" fill="rgb(255,255,255)"/><path d=" M 308.446 220.846 L 308.446 216.527 C 308.446 216.527 315.992 216.822 317.564 216.822 C 321.046 216.822 322.785 216.08 324.093 214.676 C 324.867 213.834 325.565 210.105 325.565 208.777 C 325.565 207.452 325.31 204.589 324.791 203.416 C 324.257 202.267 323.04 201.194 321.217 201.039 C 319.917 200.927 317.907 200.664 315.557 200.556 C 312.263 200.4 310.085 198.681 309.036 197.445 C 307.995 196.208 306.603 194.346 306.603 188.646 C 306.603 182.938 308.079 179.739 309.558 178.255 C 311.038 176.763 313.204 176.109 314.867 175.814 C 316.782 175.487 319.909 175.467 319.909 175.467 L 329.897 175.758 L 329.897 180.078 C 329.897 180.078 322.613 179.787 321.046 179.787 C 317.564 179.787 316.519 180.533 315.214 181.933 C 314.445 182.766 313.842 185.072 313.842 186.392 C 313.842 187.72 313.998 190.401 314.52 191.561 C 315.039 192.71 316.259 193.787 318.086 193.951 C 319.383 194.05 321.397 194.314 323.742 194.421 C 327.053 194.577 329.227 196.292 330.264 197.533 C 331.313 198.773 332.709 201.386 332.709 207.081 C 332.709 212.789 331.221 216.866 329.749 218.354 C 328.265 219.837 326.104 220.499 324.44 220.787 C 322.522 221.118 319.395 221.142 319.395 221.142 L 308.446 220.846" fill="rgb(255,255,255)"/><path d=" M 347.379 179.787 L 340.248 179.787 L 340.248 213.344 C 340.248 213.344 340.419 216.407 340.595 217.484 C 340.77 218.561 342.338 221.118 346.426 221.118 L 353.817 220.974 L 353.817 216.67 C 353.817 216.67 351.815 216.814 350.606 216.814 C 349.382 216.814 347.898 216.734 347.647 214.664 C 347.379 212.598 347.379 210.129 347.379 210.129 L 347.379 190.369 L 355.436 190.369 L 355.436 186.069 L 347.379 186.069 L 347.379 179.787" fill="rgb(255,255,255)"/><path d=" M 416.24 221.118 L 423.373 221.118 L 423.373 186.071 L 416.24 186.071 L 416.24 221.118 L 416.24 221.118 Z " fill="rgb(255,255,255)"/><path d=" M 416.24 181.769 L 423.373 181.769 L 423.373 175.406 L 416.24 175.406 L 416.24 181.769 L 416.24 181.769 Z " fill="rgb(255,255,255)"/><path d=" M 445.916 185.77 C 450.771 185.77 454.536 186.855 456.558 188.49 C 458.6 190.129 461.109 193.588 461.109 203.595 C 461.109 213.603 458.6 217.057 456.558 218.701 C 454.536 220.336 450.771 221.429 445.916 221.429 C 441.05 221.429 437.301 220.336 435.262 218.701 C 433.224 217.057 430.727 213.603 430.727 203.595 C 430.727 193.588 433.224 190.129 435.262 188.49 C 437.301 186.855 441.05 185.77 445.916 185.77 Z  M 441.026 192.491 C 440.045 193.699 438.848 196.24 438.848 203.595 C 438.848 210.947 440.045 213.491 441.026 214.696 C 442.003 215.892 443.806 216.702 446.14 216.702 C 448.477 216.702 450.272 215.892 451.261 214.696 C 452.238 213.491 453.435 210.947 453.435 203.595 C 453.435 196.24 452.238 193.699 451.261 192.491 C 450.272 191.29 448.477 190.488 446.14 190.488 C 443.806 190.488 442.003 191.29 441.026 192.491 Z " fill="rgb(255,255,255)"/><path d=" M 475.887 190.991 L 482.884 190.696 C 484.714 190.696 486.868 191.19 487.913 192.515 C 488.887 193.763 489.501 195.251 489.501 197.648 L 489.501 221.078 L 496.645 221.078 L 496.645 197.058 C 496.645 192.515 495.245 189.874 493.147 188.215 C 490.155 185.842 484.794 186.069 484.794 186.069 L 468.811 186.356 L 468.811 221.078 L 475.887 221.078 L 475.887 190.991" fill="rgb(255,255,255)"/><path d=" M 402.033 179.787 L 394.897 179.787 L 394.897 213.344 C 394.897 213.344 395.064 216.407 395.236 217.484 C 395.415 218.561 396.971 221.118 401.075 221.118 L 408.466 220.974 L 408.466 216.67 C 408.466 216.67 406.46 216.814 405.247 216.814 C 404.035 216.814 402.547 216.734 402.288 214.664 C 402.033 212.598 402.033 210.129 402.033 210.129 L 402.033 190.369 L 410.07 190.369 L 410.07 186.069 L 402.033 186.069 L 402.033 179.787" fill="rgb(255,255,255)"/><path d=" M 259.121 197.648 C 259.121 195.251 258.511 193.763 257.53 192.515 C 256.485 191.19 254.339 190.696 252.504 190.696 L 243.095 190.991 L 243.095 186.356 L 254.419 186.069 C 254.419 186.069 259.779 185.841 262.775 188.215 C 264.865 189.874 266.253 192.515 266.253 197.058 L 266.253 220.743 L 252.58 221.038 C 252.58 221.038 246.389 221.06 243.27 219.797 C 240.231 218.561 238.571 215.167 238.571 210.456 C 238.571 205.909 239.963 203.268 242.054 201.609 C 245.049 199.232 250.406 199.467 250.406 199.467 L 254.773 199.467 L 254.773 203.504 L 252.324 203.504 C 250.49 203.504 248.603 203.843 247.554 205.167 C 246.577 206.403 246.054 207.476 246.054 209.874 C 246.054 213.021 246.664 214.425 248.144 215.494 C 249.453 216.447 251.794 216.654 254.407 216.654 L 259.121 216.367 L 259.121 197.648" fill="rgb(255,255,255)"/><path d=" M 379.433 197.648 C 379.433 195.251 378.834 193.763 377.853 192.515 C 376.796 191.19 374.65 190.696 372.827 190.696 L 363.422 190.991 L 363.422 186.356 L 374.738 186.069 C 374.738 186.069 380.095 185.841 383.086 188.215 C 385.176 189.874 386.572 192.515 386.572 197.058 L 386.572 220.743 L 372.899 221.038 C 372.899 221.038 366.701 221.06 363.589 219.797 C 360.546 218.561 358.883 215.167 358.883 210.456 C 358.883 205.909 360.287 203.268 362.365 201.609 C 365.356 199.232 370.725 199.467 370.725 199.467 L 375.089 199.467 L 375.089 203.504 L 372.636 203.504 C 370.813 203.504 368.914 203.843 367.877 205.167 C 366.896 206.403 366.37 207.476 366.37 209.874 C 366.37 213.021 366.984 214.425 368.46 215.494 C 369.764 216.447 372.117 216.654 374.73 216.654 L 379.433 216.367 L 379.433 197.648" fill="rgb(255,255,255)"/><path d=" M 509.576 221.405 C 511.439 221.405 513.19 220.679 514.506 219.371 C 515.818 218.05 516.544 216.299 516.544 214.441 C 516.544 212.578 515.818 210.827 514.506 209.511 C 513.19 208.198 511.439 207.476 509.576 207.476 C 505.751 207.476 502.612 210.599 502.612 214.441 C 502.612 216.299 503.33 218.05 504.658 219.371 C 505.978 220.679 507.721 221.405 509.576 221.405 Z  M 503.78 214.441 C 503.78 212.893 504.391 211.437 505.48 210.344 C 506.581 209.251 508.028 208.641 509.576 208.641 C 511.124 208.641 512.584 209.251 513.676 210.344 C 514.765 211.437 515.376 212.893 515.376 214.441 C 515.376 217.636 512.779 220.24 509.576 220.24 C 508.028 220.24 506.581 219.63 505.48 218.541 C 504.391 217.444 503.78 215.992 503.78 214.441" fill="rgb(255,255,255)"/><path d=" M 513.014 217.675 C 512.911 217.636 512.831 217.516 512.787 217.336 C 512.755 217.209 512.727 217.013 512.719 216.75 L 512.687 215.749 C 512.671 215.278 512.572 214.943 512.404 214.72 C 512.296 214.568 512.133 214.449 511.945 214.337 C 512.177 214.185 512.384 214.002 512.532 213.771 C 512.727 213.459 512.831 213.065 512.831 212.586 C 512.831 211.668 512.444 211.022 511.69 210.683 C 511.291 210.504 510.808 210.424 510.218 210.424 L 506.616 210.424 L 506.616 218.178 L 507.956 218.178 L 507.956 214.999 L 510.074 214.999 C 510.457 214.999 510.745 215.039 510.908 215.111 C 511.183 215.246 511.331 215.521 511.347 215.94 L 511.406 217.181 C 511.422 217.484 511.438 217.675 511.462 217.787 C 511.498 217.907 511.518 218.002 511.562 218.082 L 511.618 218.178 L 513.113 218.178 L 513.113 217.723 L 513.014 217.675 L 513.014 217.675 Z  M 511.463 212.682 C 511.463 213.116 511.351 213.404 511.136 213.563 C 510.888 213.727 510.545 213.818 510.115 213.818 L 507.957 213.818 L 507.957 211.625 L 510.246 211.625 C 510.553 211.625 510.809 211.668 510.992 211.756 C 511.311 211.916 511.463 212.227 511.463 212.681" fill="rgb(255,255,255)"/><path d=" M 560.644 181.31 C 560.739 186.576 560.48 189.352 558.713 192 C 557.149 194.314 554.062 196.44 547.233 196.44 L 538.761 196.176 C 537.429 196.192 533.955 196.591 532.32 198.358 C 530.908 199.858 530.816 200.999 530.66 205.039 L 530.66 216.854 L 559.467 216.854 L 559.467 222.661 L 527.98 222.661 L 526.476 222.642 C 524.334 222.642 522.228 221.19 522.228 218.286 L 522.228 209.471 C 522.372 199.153 523.118 197.669 525.355 194.972 C 526.907 193.11 530.541 191.016 534.976 190.792 C 535.846 190.744 537.493 190.633 539.775 190.716 C 541.466 190.772 543.129 190.816 543.871 190.824 C 547.792 190.872 549.224 190.15 550.297 188.742 C 551.521 187.154 552.167 185.292 552.167 182.232 C 552.167 179.38 551.593 176.66 550.5 175.407 C 549.172 173.964 547.916 172.994 544.222 172.986 C 534.92 172.961 524.043 173.202 524.043 173.202 L 524.043 167.737 C 524.043 167.737 534.669 167.275 545.51 167.115 C 552.263 167.011 555.969 168.794 557.863 171.259 C 559.85 173.844 560.564 176.273 560.643 181.311" fill="rgb(255,255,255)"/></g></svg>