<?xml version="1.0" encoding="UTF-8" standalone="no"?><!-- Generator: Gravit.io --><svg xmlns="http://www.w3.org/2000/svg" xmlns:xlink="http://www.w3.org/1999/xlink" style="isolation:isolate" viewBox="0 0 667 279.5" width="667pt" height="279.5pt"><defs><clipPath id="_clipPath_SNuQFVPvQv7uL2fEMHPGoxNsNS9S4XyF"><rect width="667" height="279.5"/></clipPath></defs><g clip-path="url(#_clipPath_SNuQFVPvQv7uL2fEMHPGoxNsNS9S4XyF)"><path d=" M 520.959 224.799 C 527.116 224.543 533.643 225.494 533.643 233.043 C 533.643 238.506 529.613 241.564 524.366 241.564 C 518.219 241.564 515.098 237.166 515.335 231.335 L 507.438 231.335 C 507.623 241.409 513.249 248.171 524.367 248.171 C 533.644 248.171 541.408 242.544 541.408 233.442 C 541.408 227.202 538.125 222.436 532.682 221.35 L 532.682 221.248 C 537.245 219.539 539.454 215.623 539.454 210.824 C 539.454 202.314 531.782 197.978 524.335 197.978 C 514.599 197.978 508.747 204.943 508.379 214.384 L 516.153 214.384 C 516.049 209.382 518.729 204.482 524.151 204.482 C 528.488 204.482 531.638 207.275 531.638 211.357 C 531.638 217.269 526.258 219.08 520.959 218.947 L 520.959 224.799 L 520.959 224.799 Z " fill="rgb(255,255,255)"/><path d=" M 125.468 247.252 L 134.152 247.252 L 134.152 228.389 L 147.255 228.389 C 161.329 228.452 164.035 219.317 164.035 213.231 C 164.035 207.085 161.329 197.981 147.255 197.981 L 125.468 197.981 L 125.468 247.252 L 125.468 247.252 Z  M 134.152 204.977 L 146.917 204.977 C 151.484 204.977 155.392 206.696 155.392 213.17 C 155.392 219.377 150.651 221.352 146.744 221.352 L 134.153 221.352 L 134.153 204.977 L 134.152 204.977 Z " fill="rgb(255,255,255)"/><rect x="169.186" y="197.98" width="7.891" height="49.271" transform="matrix(1,0,0,1,0,0)" fill="rgb(255,255,255)"/><path d=" M 215.797 221.025 C 215.797 213.457 208.402 210.601 201.426 210.601 C 193.529 210.601 185.715 213.322 185.173 222.497 L 193.111 222.497 C 193.352 218.62 196.507 216.872 200.925 216.872 C 204.173 216.872 208.341 217.638 208.341 221.71 C 208.341 226.312 203.273 225.648 197.596 226.71 C 191.049 227.468 183.874 228.94 183.874 237.851 C 183.874 244.787 189.704 248.263 196.107 248.263 C 200.306 248.263 205.333 246.923 208.489 243.896 C 209.093 247.22 211.419 248.263 214.529 248.263 C 215.859 248.263 218.395 247.742 219.485 247.413 L 219.485 241.931 C 218.718 242.054 218.037 242.054 217.644 242.054 C 216.156 242.054 215.798 241.298 215.798 239.333 L 215.798 221.025 L 215.797 221.025 Z  M 207.793 235.293 C 207.793 240.256 202.443 242.055 198.966 242.055 C 196.178 242.055 191.729 241.043 191.729 237.492 C 191.729 233.318 194.767 232.092 198.168 231.601 C 201.605 230.988 205.405 230.988 207.793 229.433 L 207.793 235.293 L 207.793 235.293 Z " fill="rgb(255,255,255)"/><path d=" M 232.618 247.221 L 231.719 249.983 C 230.778 252.938 229.832 254.954 226.144 254.954 C 224.912 254.954 223.643 254.679 222.416 254.382 L 222.416 261.091 C 224.19 261.286 226.073 261.45 227.883 261.45 C 236.137 261.45 237.974 255.671 240.546 249.298 L 254.447 211.585 L 246.152 211.585 L 237.145 238.241 L 236.997 238.241 L 227.663 211.585 L 219.117 211.585 L 232.618 247.221 L 232.618 247.221 Z " fill="rgb(255,255,255)"/><path d=" M 256.103 230.875 C 256.282 243.148 265.401 248.469 276.694 248.469 C 286.508 248.469 296.281 244.039 296.281 233.043 C 296.281 227.898 293.202 222.406 286.687 220.361 C 284.15 219.673 273.257 216.873 272.495 216.646 C 268.956 215.625 266.568 213.751 266.568 210.275 C 266.568 205.273 271.596 203.82 275.646 203.82 C 281.589 203.82 285.891 206.162 286.33 212.607 L 294.902 212.607 C 294.902 202.255 286.33 196.793 276.015 196.793 C 267.08 196.793 257.956 201.397 257.956 211.297 C 257.956 216.412 260.406 221.578 268.881 223.807 C 275.647 225.649 280.142 226.58 283.61 227.899 C 285.64 228.708 287.707 230.221 287.707 233.903 C 287.707 237.719 284.843 241.442 277.243 241.442 C 270.328 241.442 264.723 238.475 264.723 230.876 L 256.103 230.876 L 256.103 230.875 Z " fill="rgb(255,255,255)"/><path d=" M 299.13 211.584 L 305.037 211.584 L 305.037 200.844 L 312.965 200.844 L 312.965 211.584 L 320.058 211.584 L 320.058 217.445 L 312.965 217.445 L 312.965 236.5 C 312.965 239.764 313.282 241.441 316.729 241.441 C 317.849 241.441 318.969 241.441 320.059 241.207 L 320.059 247.221 C 318.31 247.414 316.684 247.619 314.991 247.619 C 306.777 247.619 305.187 244.5 305.038 238.506 L 305.038 217.445 L 299.131 217.445 L 299.131 211.584 L 299.13 211.584 Z " fill="rgb(255,255,255)"/><path d=" M 356.309 221.025 C 356.309 213.457 348.934 210.601 341.948 210.601 C 334.133 210.601 326.278 213.322 325.736 222.497 L 333.663 222.497 C 333.991 218.62 337.069 216.872 341.549 216.872 C 344.705 216.872 348.904 217.638 348.904 221.71 C 348.904 226.312 343.866 225.648 338.158 226.71 C 331.561 227.468 324.436 228.94 324.436 237.851 C 324.436 244.787 330.261 248.263 336.629 248.263 C 340.858 248.263 345.896 246.923 349.041 243.896 C 349.66 247.22 351.941 248.263 355.199 248.263 C 356.426 248.263 358.917 247.742 360.118 247.413 L 360.118 241.931 C 359.285 242.054 358.589 242.054 358.16 242.054 C 356.718 242.054 356.308 241.298 356.308 239.333 L 356.308 221.025 L 356.309 221.025 Z  M 348.422 235.293 C 348.422 240.256 343.037 242.055 339.559 242.055 C 336.818 242.055 332.322 241.043 332.322 237.492 C 332.322 233.318 335.319 232.092 338.72 231.601 C 342.198 230.988 346.003 230.988 348.422 229.433 L 348.422 235.293 L 348.422 235.293 Z " fill="rgb(255,255,255)"/><path d=" M 360.876 211.584 L 366.803 211.584 L 366.803 200.844 L 374.73 200.844 L 374.73 211.584 L 381.824 211.584 L 381.824 217.445 L 374.73 217.445 L 374.73 236.5 C 374.73 239.764 374.996 241.441 378.504 241.441 C 379.582 241.441 380.703 241.441 381.823 241.207 L 381.823 247.221 C 380.125 247.414 378.427 247.619 376.723 247.619 C 368.479 247.619 366.95 244.5 366.802 238.506 L 366.802 217.445 L 360.875 217.445 L 360.875 211.584 L 360.876 211.584 Z " fill="rgb(255,255,255)"/><rect x="388.59" y="211.584" width="7.887" height="35.668" transform="matrix(1,0,0,1,0,0)" fill="rgb(255,255,255)"/><path d=" M 420.432 248.264 C 431.899 248.264 438.455 240.409 438.455 229.434 C 438.455 218.489 431.898 210.602 420.432 210.602 C 408.935 210.602 402.389 218.489 402.389 229.434 C 402.389 240.408 408.935 248.264 420.432 248.264 Z  M 420.432 242.055 C 413.334 242.055 410.265 235.672 410.265 229.434 C 410.265 223.254 413.334 216.873 420.432 216.873 C 427.45 216.873 430.569 223.254 430.569 229.434 C 430.568 235.672 427.449 242.055 420.432 242.055 Z " fill="rgb(255,255,255)"/><path d=" M 444.397 247.252 L 452.252 247.252 L 452.252 226.221 C 452.252 221.026 455.618 216.873 460.916 216.873 C 465.519 216.873 467.729 219.244 467.851 224.799 L 467.851 247.252 L 475.768 247.252 L 475.768 222.764 C 475.768 214.785 470.859 210.602 463.085 210.602 C 458.431 210.602 454.309 213.036 451.976 217.016 L 451.802 216.873 L 451.802 211.584 L 444.397 211.584 L 444.397 247.252 L 444.397 247.252 Z " fill="rgb(255,255,255)"/><rect x="388.59" y="197.98" width="7.887" height="7.455" transform="matrix(1,0,0,1,0,0)" fill="rgb(255,255,255)"/><path d=" M 421.659 19.551 L 339.068 19.551 C 313.594 19.551 301.11 35.292 301.11 55.73 L 301.11 117.817 C 301.11 130.501 295.121 139.605 282.479 139.605 L 210.239 139.605 C 209.733 139.605 209.314 140.024 209.314 140.505 L 209.314 153.035 C 209.314 153.547 209.733 153.976 210.239 153.976 L 292.007 153.976 C 317.471 153.976 329.986 138.306 329.986 117.858 L 329.986 55.73 C 329.986 43.036 335.929 33.912 348.643 33.912 L 421.66 33.912 C 422.233 33.912 422.683 33.503 422.683 32.991 L 422.683 20.482 C 422.683 19.991 422.232 19.551 421.659 19.551 Z " fill="rgb(255,255,255)"/><path d=" M 178.54 19.551 L 19.607 19.551 C 19.029 19.551 18.609 19.991 18.609 20.482 L 18.609 32.991 C 18.609 33.503 19.028 33.932 19.607 33.932 L 168.981 33.932 C 181.608 33.932 187.602 43.036 187.602 55.729 C 187.602 68.372 181.608 77.455 168.981 77.455 L 50.81 77.455 C 32.459 77.455 18.61 92.87 18.61 113.317 L 18.61 153.004 C 18.61 153.547 19.029 153.977 19.608 153.977 L 46.535 153.977 C 47.062 153.977 47.502 153.547 47.502 153.004 L 47.502 113.317 C 47.502 100.705 54.749 91.806 65.264 91.806 L 178.54 91.806 C 203.963 91.806 216.427 76.186 216.427 55.739 C 216.427 35.324 203.963 19.551 178.54 19.551 Z " fill="rgb(255,255,255)"/><path d=" M 636.409 85.086 C 636.053 84.687 636.053 84.002 636.409 83.613 C 644.326 77.056 648.244 67.175 648.244 55.739 C 648.244 35.323 635.806 19.551 610.306 19.551 L 451.414 19.551 C 450.872 19.551 450.474 19.991 450.474 20.523 L 450.474 32.991 C 450.474 33.503 450.872 33.932 451.414 33.932 L 600.764 33.932 C 613.355 33.932 619.431 43.036 619.431 55.729 C 619.431 68.372 613.396 77.455 600.764 77.455 L 600.579 77.455 L 451.414 77.486 C 450.872 77.486 450.474 77.875 450.474 78.447 L 450.474 90.906 C 450.474 91.407 450.872 91.806 451.414 91.806 L 600.764 91.806 C 617.232 92 619.4 108.038 619.4 116.242 L 619.431 117.786 C 619.431 130.5 613.355 139.645 600.764 139.645 L 451.414 139.645 C 450.872 139.645 450.474 140.033 450.474 140.544 L 450.474 153.034 C 450.474 153.546 450.872 153.975 451.414 153.975 L 610.307 153.975 C 635.828 153.975 648.245 137.036 648.245 117.786 L 648.245 116.242 C 648.244 103.968 644.326 92.246 636.409 85.086 Z " fill="rgb(255,255,255)"/></g></svg>