<?xml version="1.0" encoding="utf-8"?>
<!-- Generator: Adobe Illustrator 22.1.0, SVG Export Plug-In . SVG Version: 6.00 Build 0)  -->
<svg version="1.0" id="Layer_1" xmlns="http://www.w3.org/2000/svg" xmlns:xlink="http://www.w3.org/1999/xlink" x="0px" y="0px"
	 width="1099px" height="285.2px" viewBox="0 0 1099 285.2" enable-background="new 0 0 1099 285.2" xml:space="preserve">
<g>
	<path fill="#FFFFFF" d="M478.1,16.1c4.6-2.1,9-4.8,13.9-6.3c4-1.3,6.5,3.4,6.3,6.8c-6.7,4.7-13.3,9.7-18.7,16
		c-6.5,8.5-9.9,18.8-11.7,29.2c-0.8,9.4-0.4,18.8,0.4,28.2c2,9.3,4,18.8,8.5,27.4c0.8,2.4,1.8,4.7,3,7c1.1,2.8,2.4,5.5,3.6,8.2
		c0.8,1.7,1.5,3.4,2.5,5c0.1,0.4,0.3,1.4,0.4,1.8c6.6,13.3,11.3,27.4,17.1,41.1c17.3-32.9,34.7-65.8,53.1-98.1
		c1.3-2.4,4-3.3,6.6-2.9c3.2-0.5,4.8,2.9,6.1,5.1c12.2,27.7,25,55.1,37.7,82.6c2.1,5.3,4.9,10.3,7.3,15.5c1.4,2.5,2.5,5.8,5.7,6.6
		c3.5,1.2,7,3.6,10.8,2.5c4.6-0.8,7.4-5.6,8.5-9.8c0.2-28.9,0.1-57.9,0-86.8c-2.8-1.2-6-1.8-9-1c-9.2,2.3-18.6,4.1-27.5,7.3
		c-4.7,1.9-9,6.9-14.4,5.3c-0.1-2.2,0-4.5,1.2-6.4c2.3-4.3,4.1-9,6.8-13.1c10.9-0.6,21.8-0.1,32.7-0.3c32.3,0.1,64.7,0,97,0
		c12.9,0.2,25.8-0.4,38.7,0.3c0.1,0.3,0.3,0.8,0.4,1.1c-2.8,3.1-6.8,4.9-9.5,8.1c-1.2,2.7-2.6,5.4-3,8.4c0.1,20.3,0,40.7,0,61
		c1.3,5.5,1.7,12,6.3,16.1c5.1,6.1,13.5,7.3,21,7.7c7.2,0.8,15-1.4,19.9-6.8c5.7-6.1,8.5-14.6,8.1-22.9c0-17.3,0-34.7,0-52
		c-0.4-4-0.4-8.5-3.2-11.7c-2.2-3.2-6.2-4.2-8.8-7c-0.3-2.5,1.9-3.4,4-3.1c41.7,0,83.4,0,125.1,0c7.2,1.1,14.5,2.9,20.5,7.2
		c5.3,3.6,9.1,9.3,10.4,15.5c0.4,3.7,0.4,7.4,0.3,11.1c0.2,11.1-7.9,21.4-18.3,24.8c-4.8,1.2-9.4,3.1-14.4,3.4
		c3.1,3.3,6.6,6.3,9.5,9.8c3.6,4.9,6,10.6,9.7,15.3c3.4,4,6.3,8.4,10.7,11.4c6.3,4.1,12.5,9.3,20.3,9.6c0.4-0.4,1.3-1.4,1.7-1.8
		c-0.1-20.8,0-41.6-0.1-62.3c0.4-7.8-1.3-15.7-5-22.5c-3.3-7.7-10.5-12.6-16-18.7c-0.1-0.7-0.2-2.1-0.3-2.8c2.8-2.4,6.4-1.1,9.5-0.1
		c20.6,6.6,40,17.1,56.3,31.3c12.1,9.9,24.5,19.5,36.6,29.5c2.8,2.2,5.2,4.9,8.7,6c0.1-16.2,0-32.4,0-48.7c0.3-4.1-2.2-8.2-5.8-10.1
		c-2.4-1.3-4.8-2.7-6.7-4.8c1.2-1.8,3.1-3.1,5.3-2.9c9.7-0.1,19.4-0.1,29.2,0c2.2-0.2,3.9,1.4,4.7,3.3c-4.1,4.2-10.7,6.3-12.2,12.5
		c-0.2,33.6,0,67.2,0,100.9c-2.2,0.1-4.5,0.3-6.2-1.3c-26.8-20.4-52.4-42.4-78.8-63.3c-1.2-0.8-2.6-1.4-3.9-2
		c-0.1,18.6,0.1,37.1,0,55.7c-0.3,3.1,1.6,6.2,4.3,7.7c2.7,1.9,6.6,2.6,8,6.1c-1.5,0.9-3.1,2-4.9,2.1c-12.8,0.9-25.5-0.6-38.1-2.2
		c-14.7-2.9-30.2-6.7-41.5-17.1c-3-3.3-6.7-5.9-9.3-9.6c-4.8-5.4-7.5-12.1-10.6-18.5c-2.4-5.8-4.8-11.6-6.7-17.6
		c-0.7-1.6-0.3-3.2,0-4.8c5.7-0.3,11.5,0.5,17.2-0.2c6.2-2.8,12.2-7.7,13.3-14.8c0.3-4.1,0.7-8.2,0.4-12.3
		c-0.9-4.9-3.4-9.3-6.2-13.4c-4.3-2.3-8.4-5.4-13.5-5.3c-3.8,0.1-7.6-0.3-11.3,0.3c-3.9,0.8-7.1,4.4-6.8,8.5c0,24.4,0,48.7,0,73.1
		c-0.1,4.9,0.4,10,2.6,14.4c3.6,3.7,10,4.3,12.2,9.6c-0.8,2.5-3.7,1.7-5.7,1.9c-19.5-0.1-39,0.1-58.5-0.1c-0.2-1.2-0.3-2.5-0.4-3.7
		c3.4-2.6,7.7-3.8,10.7-7c2.2-2.8,3-6.5,3.8-9.9c0-24.7-0.1-49.4,0-74.1c0-3.3-1.7-6.5-4.3-8.4c-4.3-3.3-10.1-3.4-15.1-2.3
		c-4.7,1.4-6.3,6.4-7.3,10.6c-0.2,20.7,0,41.4-0.1,62.1c-0.4,10.1-5.4,20.1-13.8,25.9c-7.8,5.8-17.6,8.4-27.1,9.4
		c-7,0-13.9,0-20.9-0.1c-11.5-0.9-23.1-5-31.5-13.1c-7.5-7.6-12.4-18.2-11.5-29c0.1-16.7-0.1-33.4,0.1-50c0.2-3.8-2.6-7.1-6.1-8.3
		c-11.2-5.6-23.9-6.4-36.2-7.9c-0.7,14.7-0.2,29.5-0.3,44.2c0,15.4,0,30.7,0,46.1c1.7,2.3,2.8,5.3,5.3,6.9c2.6,1.9,4.9,4.1,7,6.6
		c0.8,2.5-2.4,2.3-3.9,2.3c-33.1-0.2-66.2,0.1-99.3-0.1c-0.7-4.5,4.1-5.9,7-7.8c4.9-2.9,5-9.7,3-14.5c-7.8-17-15.5-34.1-23.4-51.1
		c-0.4-1.7-2.6-1.7-3,0c-8.6,17.9-18,35.3-27.2,52.9c-1.4,2.8-3.6,6.3-1.6,9.4c2.2,3.2,5.2,5.8,7.3,9.2c-0.6,0.5-1.8,1.4-2.3,1.9
		c-13.1,0.3-26.2,0.1-39.2,0.1c0.4,6.9-1.8,13.6-3,20.3c-0.8,5.7-4.7,10.2-7,15.3c-7.1,10.4-17,18.7-27.8,25
		c-8.6,5.1-17,10.7-26.1,14.9c-2.1,1-4.7,1.1-6.9,0.2c-1.8-1.5-2.6-4.2-2-6.4c3-3,6.6-5.4,10.2-7.6c13.4-10.2,19-27.3,19.9-43.6
		c0.9-6.7-0.4-13.3-0.2-20c-1.1-6.4-3.1-12.6-4.5-18.9c-3.3-8.4-7.2-16.5-11.1-24.7c-2.2-4.6-4.1-9.3-6.5-13.8
		c-0.9-2.1-1.8-4.1-2.5-6.2c-0.5-0.9-1-1.9-1.5-2.8c-1.3-4.5-3.3-8.6-4.9-13c-1.5-5.3-2.7-10.6-4.1-15.9c-2.2-7.3-1.4-15.1-1.4-22.7
		c1-6.2,2.9-12.3,4.8-18.3c5.7-13,15.4-23.9,26.8-32.2C463.6,24,471.1,20.5,478.1,16.1z"/>
	<g>
		<path fill="#FFFFFF" d="M383.2,80.1c2.4-0.9,5.2-0.9,7.5,0.1c1.6,1.2,2.5,3,3.3,4.8c13.2,29.7,26.9,59.1,40.1,88.7
			c2.8,5.4,4.9,11.3,9.3,15.7c2.4,3,6.1,4.4,9.5,6c1.1,2,0.7,5.3-2.1,5.3c-12.3-0.2-24.6-0.2-36.9,0.1c-1.4-0.1-2.9,0.3-4.1-0.6
			c-0.4-2.2-0.5-5.2,2.2-5.9c3.2-1,6.7-1.9,8.4-5.2c0.3-3.4,0.4-7.1-1.1-10.3c-4.2-9.8-8.9-19.4-13-29.3c-3.9-8.1-7-16.6-11.3-24.5
			c-2.8,4.3-4.7,9.2-7.3,13.6c-7.8,15.2-16.7,29.8-23.6,45.4c-2.4,5.8,4,8.9,6.8,12.9c-0.3,0.8-0.9,2.3-1.1,3.1
			c-1.9,0.6-3.8,1-5.8,0.9c-14-0.3-28-0.1-42-0.1c-8.5-0.2-16.5,3.9-25,3.4c-10.2-0.2-20.8,0.9-30.6-2.5c-6-2.4-12.1-4.4-17.9-7.1
			c-4.1-1.9-7.5-5-11.5-7c-1.8,3.9-3.8,7.7-5.7,11.6c-0.7,1.9-2.7,1.7-4.3,1.7c-35.6-0.2-71.3-0.2-106.9,0c-1.3-0.1-4.1,0.3-3.9-1.8
			c-0.3-2.1,1.9-3.2,3.1-4.6c5.6,0.3,9.7-5.1,9.7-10.3c0.1-22,0.1-44,0-66.1c0.4-4.1-3-6.8-5.7-9.3c-14.7-9.9-32.8-12.2-49.8-15.6
			c-4.9-0.4-10,0.1-14.7,1.7c-3.9,1.4-6.2,5.2-6.2,9.2c2,3.8,4.5,7.6,7.8,10.5c4.8,3.4,9.6,7,15.2,9.1c5.3,2,10.2,4.8,15.1,7.6
			c5.2,2.7,10.4,5.5,14.9,9.2c5.7,5.4,11.8,11,14.1,18.7c2.6,5.6,2.1,11.9,1.8,17.9c-1.5,8.1-7.8,14.6-14.8,18.5
			c-12.7,5-26.5,6.9-40.1,5.8c-3.4-1-6.9-0.4-10.3-1c-4.7-1-9.4-0.4-14.1-0.6c-6.1-0.4-11.8,3.6-17.9,1.8
			c-6.8-10.4-12.2-21.6-18.4-32.3c-1.1-2-1-4.3-1-6.4c1.7-0.3,3.4-0.8,5,0.2c4.1,2.1,7.1,5.7,10.7,8.4c6.9,5.5,14.3,10.5,22.2,14.6
			c7.3,2,14.6,5.3,22.3,3.9c4.2-1.1,8.8-1.8,12.2-4.7c2.9-2.4,6.2-5.3,6.5-9.3c0-6.8-5.8-11.4-10.8-15c-15.1-9.4-31.2-17.2-46-27.1
			c-4.7-4.2-9.2-9.1-11.6-15c-0.7-4.6-0.5-9.4,0-14c1.9-4.6,4.1-9.4,8.3-12.3c5.6-4.6,12.6-6.7,19.5-8.2c11.6-0.8,23.2-0.9,34.8-0.6
			c7.3,1.2,14.8-0.6,22,1.3c9.8-0.1,19.5,1.4,29.3,1c2.6,1.5,5.8,0.7,8.6,0.9c29.1,0,58.2-0.1,87.2,0c2.3-0.2,3,2.4,3.9,4
			c2.5,4.6,4.4,9.6,7.2,14.1c3.2-2.2,5.8-5.1,9-7.3c10.3-6.3,21.9-10.6,33.9-12.4c5-0.1,10-0.1,14.9-0.1c6.1-0.2,12.1,1.4,18,2.5
			c6.6,1.3,12-3.7,18.3-4.6c4.3,2.2,4.5,7.4,6,11.3c2.7,7.4,5.3,14.8,7.4,22.3c-0.3,0.9-0.7,1.8-1.1,2.7c-4.8,1-7.9-3.6-10.6-6.8
			c-2.8-4.2-7.5-6.5-11.2-9.7c-3.6-3.4-8.5-4.6-13.1-6.3c-11.4-3.3-24.7-3.7-34.9,3.1c-3.7,2.3-5.8,6.3-8,10
			c-5.7,13.3-4.1,28-4.2,42c-0.3,7.9,1.4,15.8,3.9,23.3c2.3,8,7.9,15.1,15.7,18.3c4.8,1,9.7,2.5,14.7,1.5c4.2-1,9-1.5,12.3-4.8
			c4.7-3.7,7.3-9.5,7.8-15.4c-0.1-6.6-3.9-13.1-9.7-16.4c-3.4-2.1-7.7-2-11.2-4c-2.3-1.7,0.5-5,2.8-4.5c13.4-0.1,26.7,0,40.1,0
			c3.6,0.3,7.2-1.8,9.3-4.6c10.4-19,21-37.8,31.1-56.8C379.3,85.7,380.5,82.3,383.2,80.1z M165.6,100.8c-2.6,5.8-1.2,12.2-1.5,18.3
			c0.2,6.1-0.6,12.3,0.7,18.2c2,0,4.1,0.4,6-0.4c9.8-3.3,18.8-8.8,27.2-14.8c2.3-1.6,5-2.9,7.8-2.1c0.4,11.3,0.1,22.6,0.2,34
			c-0.1,3.8,0.5,7.7-0.7,11.4c-2.9-0.7-5.6-1.9-7.8-4c-4.9-4.5-11.3-6.9-17.1-9.9c-3-1.4-6.2-2.4-9.3-3.6c-2.4-0.5-6-0.8-6.9,2.2
			c-0.3,9.9-0.1,19.9-0.2,29.8c-0.2,4.9,2.6,10.6,7.9,11.3c5.3,0,10.6,0.3,15.9-0.4c13.6-3.4,28.7-7.2,37.6-18.9
			c-1-7.1-4.6-13.8-5.2-21c0.1-7.7-0.8-15.6,1.6-23c0.7-4.1,3.1-7.5,5.5-10.8c1.4-1.4,0.9-3.7-0.5-4.9c-14.4-11-32.5-17.8-50.8-16.6
			C172,95.3,167.6,97.1,165.6,100.8z"/>
	</g>
</g>
<path fill="#FFFFFF" d="M505.2,199.8c0.4,6.9-1.8,13.6-3,20.3c-0.8,5.7-4.7,10.2-7,15.3c-7.1,10.4-17,18.7-27.8,25
	c-8.6,5.1-17,10.7-26.1,14.9c-2.1,1-4.7,1.1-6.9,0.2c-1.8-1.5-2.6-4.2-2-6.4c3-3,6.6-5.4,10.2-7.6c13.4-10.2,19-27.3,19.9-43.6
	c0.9-6.7-0.4-13.3-0.2-20c-1.1-6.4-3.1-12.6-4.5-18.9c-3.3-8.4-7.2-16.5-11.1-24.7c-2.2-4.6-4.1-9.3-6.5-13.8
	c-0.9-2.1-1.8-4.1-2.5-6.2c-0.5-0.9-1-1.9-1.5-2.8c-1.3-4.5-3.3-8.6-4.9-13c-1.5-5.3-2.7-10.6-4.1-15.9c-2.2-7.3-1.4-15.1-1.4-22.7
	c1-6.2,2.9-12.3,4.8-18.3c5.7-13,15.4-23.9,26.8-32.2c6.1-5.5,13.6-9,20.5-13.4c4.6-2.1,9-4.8,13.9-6.3c4-1.3,6.5,3.4,6.3,6.8
	c-6.7,4.7-13.3,9.7-18.7,16c-6.5,8.5-9.9,18.8-11.7,29.2c-0.8,9.4-0.4,18.8,0.4,28.2c2,9.3,4,18.8,8.5,27.4c0.8,2.4,1.8,4.7,3,7
	c1.1,2.8,2.4,5.5,3.6,8.2c0.8,1.7,1.5,3.4,2.5,5c0.1,0.4,0.3,1.4,0.4,1.8c6.6,13.3,11.3,27.4,17.1,41.1L505.2,199.8z"/>
</svg>
