<?xml version="1.0" encoding="UTF-8" standalone="no"?><!-- Generator: Gravit.io --><svg xmlns="http://www.w3.org/2000/svg" xmlns:xlink="http://www.w3.org/1999/xlink" style="isolation:isolate" viewBox="0 0 900 900" width="900pt" height="900pt"><defs><clipPath id="_clipPath_y0f2mAIwv32BSiUa84Won1uiVHnUBxEX"><rect width="900" height="900"/></clipPath></defs><g clip-path="url(#_clipPath_y0f2mAIwv32BSiUa84Won1uiVHnUBxEX)"><path d=" M 296.5 68.6 C 248.4 77.2 209.7 112.8 197.5 159.6 C 193.1 176.5 192.8 186.4 193.3 317.5 C 193.6 437.9 193.7 440.7 195.7 450 C 206.8 500.1 242.4 535.8 293 547.6 C 299.6 549.1 308 549.4 362.1 549.7 C 418.1 550.1 423.9 550 425.4 548.5 C 426.9 547 427 527.7 427 308.9 C 427 146.7 426.7 70.3 426 68.9 C 425 67.1 423.3 67 364.7 67.1 C 317.1 67.2 302.8 67.5 296.5 68.6 Z  M 387 308.6 L 387 511.2 L 346.3 510.7 C 308.8 510.3 304.8 510.1 297.3 508.2 C 265.1 499.9 241.2 475.1 234.5 442.8 C 232.3 432.7 232.3 183.9 234.4 174 C 240.4 145.9 259.9 122.6 286.2 112.1 C 299.4 106.8 305.5 106.2 348.3 106.1 L 387 106 L 387 308.6 Z " fill="rgb(255,255,255)"/><path d=" M 305.1 167.1 C 298.8 168.3 289.2 173.1 284.1 177.6 C 273.6 186.7 268.4 199.6 269.2 214.8 C 269.6 222.7 270.1 224.8 273.3 231.2 C 278 240.9 285.1 248 294.8 252.8 C 301.5 256.1 303.2 256.5 311.9 256.8 C 319.8 257.1 322.6 256.8 327.9 255 C 349.6 247.7 362.7 226.6 359 205 C 354.7 179.3 330.3 162.1 305.1 167.1 Z " fill="rgb(255,255,255)"/><path d=" M 475.7 67.7 C 475.3 68 475 176.4 475 308.6 C 475 526.7 475.1 548.8 476.6 549.4 C 479.3 550.4 556.9 550 566.5 549 C 607.1 544.4 642.9 519.7 662.4 483 C 664.9 478.3 668.2 470.4 669.9 465.5 C 676.2 446.7 676 451.7 676 308 C 676 193.3 675.8 176.2 674.4 168.9 C 664.5 116.8 624.8 77.5 572.6 68.5 C 565.6 67.3 554.8 67 520 67 C 496 67 476 67.3 475.7 67.7 Z  M 582.5 285.5 C 598.1 289.6 610.9 301.5 616.1 316.7 C 619.4 326.1 619.3 339.9 616 348.5 C 609.9 364.3 597.9 375.4 582.5 379.5 C 557.5 386 530.9 370.9 523.6 346.1 C 521.4 338.5 521.5 325.7 524 317.9 C 531.5 293.4 557.5 279 582.5 285.5 Z " fill="rgb(255,255,255)"/><path d=" M 749.3 622.4 C 733.8 627.5 724.6 642.4 727.2 658.6 C 728.8 669 734.8 677.2 744 681.9 C 756.5 688.1 769.8 686.5 779.8 677.5 C 787.3 670.7 790.5 663.6 790.5 653.5 C 790.5 644 787.7 636.9 781.4 630.6 C 773.5 622.7 759.3 619.1 749.3 622.4 Z  M 767 637 C 773 640.1 776.3 645.1 776.8 651.9 C 777.4 660.8 773.6 667.2 765.7 670.5 C 752.3 676.1 737.1 663.2 740.9 649.3 C 742.5 643.1 745.2 639.6 750.2 637.1 C 755.6 634.5 761.9 634.4 767 637 Z " fill="rgb(255,255,255)"/><path d=" M 79 653.5 L 79 684.1 L 85.3 683.8 L 91.5 683.5 L 92 664.2 L 92.5 644.9 L 107 664.4 L 121.5 684 L 127.5 683.8 L 133.5 683.5 L 133.5 653.5 L 133.5 623.5 L 127.3 623.2 L 121 622.9 L 121 642.6 L 121 662.4 L 106.3 642.7 L 91.5 623 L 85.3 623 L 79 623 L 79 653.5 Z " fill="rgb(255,255,255)"/><path d=" M 179 653.5 L 179 684 L 185.5 684 L 192 684 L 192 653.5 L 192 623 L 185.5 623 L 179 623 L 179 653.5 Z " fill="rgb(255,255,255)"/><path d=" M 237.5 624.3 C 237.2 625 237.1 638.6 237.2 654.5 L 237.5 683.5 L 243.8 683.8 L 250 684.1 L 250 663.9 L 250 643.6 L 265 663.8 L 280 684 L 286 684 L 292 684 L 292 653.5 L 292 623 L 285.5 623 L 279 623 L 278.8 642.2 L 278.5 661.4 L 264.1 642.2 L 249.8 623 L 243.9 623 C 240 623 237.8 623.4 237.5 624.3 Z " fill="rgb(255,255,255)"/><path d=" M 334.7 623.7 C 334.3 624 334 627 334 630.2 L 334 636 L 344 636 L 354 636 L 354 660 L 354 684 L 360.5 684 L 367 684 L 367 660 L 367 636 L 376.5 636 L 386 636 L 386 629.5 L 386 623 L 360.7 623 C 346.7 623 335 623.3 334.7 623.7 Z " fill="rgb(255,255,255)"/><path d=" M 430 653.5 L 430 684 L 453.5 684 L 477 684 L 477 678 L 477 672 L 459.5 672 L 442 672 L 442 665 L 442 658 L 458 658 L 474 658 L 474 652.5 L 474 647 L 458 647 L 442 647 L 442 641 L 442 635 L 459.3 634.8 L 476.5 634.5 L 476.8 628.7 L 477.1 623 L 453.5 623 L 430 623 L 430 653.5 Z " fill="rgb(255,255,255)"/><path d=" M 526.5 624.3 C 526.2 625 526.1 638.6 526.2 654.5 L 526.5 683.5 L 532.8 683.8 L 539 684.1 L 539 663.8 L 539 643.6 L 554 663.8 L 569 684 L 575 684 L 581 684 L 581 653.5 L 581 623 L 574.5 623 L 568 623 L 567.8 642.2 L 567.5 661.4 L 553.1 642.2 L 538.8 623 L 532.9 623 C 529 623 526.8 623.4 526.5 624.3 Z " fill="rgb(255,255,255)"/><path d=" M 632 653.4 L 632 684 L 645.3 684 C 660.7 684 668 682.5 674.6 677.9 C 694.1 664.5 691.1 635.8 669.2 625.7 C 665.1 623.8 662.3 623.5 648.3 623.2 L 632 622.8 L 632 653.4 Z  M 664.7 637.9 C 673.1 641.8 676.7 652.5 672.5 661.4 C 669.3 668 662.8 671 651.4 671 L 644 671 L 644 653.5 L 644 636 L 652.3 636 C 658.2 636 661.7 636.6 664.7 637.9 Z " fill="rgb(255,255,255)"/><path d=" M 601.8 711.1 C 587.9 712.9 575.5 719.4 565.3 730.3 C 543 754.3 543.7 790.8 567 814 C 575.6 822.7 583.4 827.2 594.6 830 C 613 834.7 631.6 831 646.8 819.5 C 652.7 815.1 660.4 806.5 659.8 805 C 659.6 804.6 655.5 800.9 650.6 796.6 L 641.8 788.9 L 639.1 792.4 C 626.2 809.3 600.1 811.1 585 796 C 582.8 793.8 579.8 789.7 578.3 786.8 C 575.8 782 575.5 780.5 575.5 771.5 C 575.5 762.9 575.8 760.8 578 756.5 C 585.4 741.2 603.7 732.9 619.6 737.5 C 627 739.6 634 744 638.4 749.3 L 641.8 753.4 L 646.2 749.8 C 648.6 747.9 652.8 744.2 655.5 741.8 L 660.5 737.3 L 656.6 732.5 C 643.6 716.7 622.6 708.5 601.8 711.1 Z " fill="rgb(255,255,255)"/><path d=" M 107.2 715 C 83.4 721.3 71.1 737.2 76.4 755.2 C 80.2 768.5 92.8 775 126.3 781 C 148.8 785 155.4 788.3 155.4 795.4 C 155.4 800.3 152.5 803.9 146.2 806.8 C 140.8 809.3 139.6 809.5 126 809.5 C 109.9 809.5 103.6 808.2 91.7 802.8 C 88 801.1 84.8 799.9 84.6 800.1 C 83.4 801.6 73.9 819.3 74.2 819.5 C 75.2 820.6 91.2 826.4 97.8 828.2 C 108.8 831.1 132.3 831.8 144.3 829.6 C 166.7 825.4 177.8 815.1 178.8 797.8 C 179.6 783.5 175.6 776.1 163.3 769.7 C 154.5 765.1 146.9 762.9 127.5 759 C 110.6 755.7 105.8 754.1 102.3 750.8 C 99.2 747.9 99.2 742.7 102.4 739.5 C 109.6 732.3 135.4 732 155.4 739 C 158.7 740.1 161.7 740.7 162.1 740.3 C 162.8 739.5 170 722.6 170 721.6 C 170 720.7 154.7 716.2 146.1 714.6 C 134.5 712.4 116.5 712.6 107.2 715 Z " fill="rgb(255,255,255)"/><path d=" M 192.4 715.7 C 192.7 716.7 199.7 741.6 208 771 C 216.3 800.4 223.3 825.3 223.6 826.2 C 224.1 827.8 225.7 828 238 828 L 251.9 828 L 253 824.2 C 262.9 788.4 272.9 754.8 273.4 756 C 273.7 756.8 278.4 773.2 283.8 792.5 L 293.6 827.5 L 307.6 827.8 L 321.6 828.1 L 337.5 772.3 C 346.2 741.6 353.5 715.9 353.8 715.2 C 354.1 714.3 351.3 714 341.6 714 L 329.1 714 L 327.7 718.7 C 326.9 721.4 322.1 739.4 317 758.7 C 311.8 778.1 307.4 794 307 794 C 306.7 794 302 778.8 296.6 760.2 C 291.2 741.7 285.9 723.7 284.8 720.2 L 282.9 713.9 L 272.7 714.2 L 262.5 714.5 L 250.8 754.5 C 244.4 776.5 239.1 794.7 239 795 C 238.9 795.3 234.4 779.1 229.1 759 C 223.7 738.9 218.7 720.6 218.1 718.2 L 216.9 714 L 204.4 714 C 192.9 714 191.9 714.1 192.4 715.7 Z " fill="rgb(255,255,255)"/><path d=" M 382 771 L 382 828 L 395 828 L 408 828 L 407.8 771.2 L 407.5 714.5 L 394.8 714.2 L 382 713.9 L 382 771 Z " fill="rgb(255,255,255)"/><path d=" M 435 726.5 L 435 739 L 453 739 L 471 739 L 471 783.5 L 471 828 L 483.5 828 L 496 828 L 496 783.5 L 496 739 L 513.8 738.8 L 531.5 738.5 L 531.5 726.5 L 531.5 714.5 L 483.3 714.2 L 435 714 L 435 726.5 Z " fill="rgb(255,255,255)"/><path d=" M 686 771 L 686 828 L 698 828 L 710 828 L 710 805.5 L 710 783 L 736.5 783 L 763 783 L 763 805.5 L 763 828 L 775 828 L 787 828 L 786.8 771.2 L 786.5 714.5 L 774.8 714.2 L 763 713.9 L 763 736.5 L 763 759 L 736.5 759 L 710 759 L 710 736.5 L 710 714 L 698 714 L 686 714 L 686 771 Z " fill="rgb(255,255,255)"/></g></svg>