<?xml version="1.0" encoding="UTF-8" standalone="no"?><!-- Generator: Gravit.io --><svg xmlns="http://www.w3.org/2000/svg" xmlns:xlink="http://www.w3.org/1999/xlink" style="isolation:isolate" viewBox="0 0 800 230" width="800pt" height="230pt"><defs><clipPath id="_clipPath_aVRLRlqfFQuqXuGILwJ48WBvDZ61BZBs"><rect width="800" height="230"/></clipPath></defs><g clip-path="url(#_clipPath_aVRLRlqfFQuqXuGILwJ48WBvDZ61BZBs)"><path d=" M 764.175 127.949 L 764.175 121.701 L 764.135 121.701 L 761.747 127.949 L 760.661 127.949 L 758.272 121.701 L 758.235 121.701 L 758.235 127.949 L 756.778 127.949 L 756.778 119.953 L 759.03 119.953 L 761.222 125.62 L 763.398 119.953 L 765.628 119.953 L 765.628 127.949 L 764.175 127.949 Z  M 752.703 127.949 L 751.151 127.949 L 751.151 121.215 L 748.707 121.215 L 748.707 119.953 L 755.149 119.953 L 755.149 121.215 L 752.703 121.215 L 752.703 127.949 Z  M 702.755 104.872 L 629.23 104.846 L 616.538 129.148 L 599.819 129.148 C 599.819 129.148 651.924 30.504 653.999 27.135 C 656.073 23.764 662.017 13.12 671.61 13.638 C 681.201 14.156 685.211 21.457 687.027 24.568 C 688.84 27.679 742.642 129.148 742.642 129.148 L 715.877 129.148 L 702.755 104.872 Z  M 671.319 46.432 C 668.995 41.765 663.716 40.616 660.864 46.059 C 659.675 48.306 637.197 90.535 637.197 90.535 L 695.162 90.54 L 671.319 46.432 Z  M 577.171 27.528 L 577.256 128.119 L 553.346 128.119 L 553.346 27.636 L 507.958 27.565 L 507.958 13.594 L 622.818 13.517 L 622.766 27.65 L 577.171 27.528 Z  M 515.472 198.707 C 518.689 198.117 521.555 198.47 521.555 195.842 C 521.555 193.526 519.161 193.095 517.355 193.095 C 514.844 193.095 513.079 194.116 512.881 196.313 L 508.407 196.313 C 508.72 191.092 513.156 189.562 517.629 189.562 C 521.593 189.562 525.753 191.172 525.753 195.45 L 525.753 205.889 C 525.753 206.986 525.989 207.419 526.814 207.419 C 527.088 207.419 527.442 207.419 527.912 207.339 L 527.912 210.44 C 527.245 210.676 525.834 210.95 525.088 210.95 C 523.282 210.95 521.986 210.323 521.633 208.479 C 519.867 210.207 517.003 210.95 514.61 210.95 C 510.959 210.95 507.664 208.989 507.664 205.025 C 507.663 199.962 511.705 199.138 515.472 198.707 Z  M 516.257 207.419 C 518.218 207.419 521.279 206.398 521.279 203.571 L 521.279 200.237 C 519.906 201.14 517.748 201.1 515.784 201.453 C 513.862 201.767 512.136 202.474 512.136 204.827 C 512.136 206.829 514.688 207.419 516.257 207.419 Z  M 496.832 205.417 L 496.832 193.447 L 493.456 193.447 L 493.456 190.111 L 496.832 190.111 L 496.832 184.027 L 501.306 184.027 L 501.306 190.111 L 505.349 190.111 L 505.349 193.447 L 501.306 193.447 L 501.306 204.279 C 501.306 206.124 501.462 207.065 503.465 207.065 C 504.092 207.065 504.72 207.065 505.349 206.908 L 505.349 210.362 C 504.367 210.439 503.425 210.596 502.445 210.596 C 497.773 210.597 496.91 208.792 496.832 205.417 Z  M 468.094 14.225 L 492.407 14.225 L 492.407 128.771 L 468.094 128.771 L 468.094 14.225 Z  M 471.324 204.555 L 478.506 182.38 L 483.489 182.38 L 473.914 210.402 L 468.459 210.402 L 459.118 182.38 L 464.221 182.38 L 471.246 204.555 L 471.324 204.555 Z  M 452.843 210.694 C 449.133 210.694 446.493 207.916 446.493 204.241 C 446.493 200.358 449.426 197.789 452.843 197.789 C 456.225 197.789 459.158 200.358 459.158 204.241 C 459.158 208.124 456.225 210.694 452.843 210.694 Z  M 452.843 198.91 C 450.049 198.91 447.874 201.101 447.874 204.241 C 447.874 207.175 449.771 209.573 452.843 209.573 C 455.604 209.573 457.778 207.399 457.778 204.241 C 457.778 201.101 455.604 198.91 452.843 198.91 Z  M 453.844 204.794 L 455.846 207.934 L 454.517 207.934 L 452.671 204.881 L 451.567 204.881 L 451.567 207.934 L 450.393 207.934 L 450.393 200.792 L 453.102 200.792 C 454.828 200.792 455.706 201.396 455.706 202.845 C 455.707 204.137 454.915 204.674 453.844 204.794 Z  M 452.982 201.791 L 451.567 201.791 L 451.567 203.88 L 452.879 203.88 C 453.759 203.88 454.535 203.793 454.535 202.757 C 454.535 201.895 453.688 201.791 452.982 201.791 Z  M 381.172 129.126 C 371.599 128.608 367.597 121.322 365.786 118.218 C 363.974 115.113 310.276 13.84 310.276 13.84 L 336.99 13.84 L 381.461 96.397 C 383.78 101.055 389.051 102.202 391.898 96.768 C 394.226 92.37 436.14 13.84 436.14 13.84 L 452.828 13.84 C 452.828 13.84 400.821 112.293 398.751 115.656 C 396.679 119.02 390.746 129.644 381.172 129.126 Z  M 315.562 190.111 L 307.673 211.499 C 306.22 215.15 305.161 218.447 300.49 218.447 C 299.431 218.447 298.411 218.368 297.39 218.211 L 297.39 214.442 C 298.096 214.56 298.803 214.716 299.509 214.716 C 301.589 214.716 302.099 213.619 302.648 211.892 L 303.158 210.322 L 295.466 190.111 L 300.372 190.111 L 305.67 205.26 L 305.748 205.26 L 310.89 190.111 L 315.562 190.111 Z  M 241.172 45.123 L 241.172 97.562 C 241.172 116.736 232.54 128.699 208.614 128.699 L 157.218 128.699 L 157.218 114.521 L 202.06 114.521 C 211.237 114.521 216.72 107.067 216.72 97.563 L 216.72 45.123 C 216.72 28.408 224.838 13.987 248.6 13.987 L 299.643 13.987 L 299.643 28.167 L 255.482 28.167 C 243.554 27.651 241.172 37.421 241.172 45.123 Z  M 140.277 77.57 L 85.277 77.57 C 77.738 77.57 72.167 83.306 72.167 93.138 L 72.167 128.861 L 48.423 128.861 L 48.423 94.449 C 48.423 75.112 60.55 62.083 77.756 62.083 L 133.394 62.083 C 147.038 61.564 150.292 54.792 150.292 44.959 C 150.292 37.421 146.521 27.13 133.394 28.166 L 48.423 28.166 L 48.423 13.988 L 140.277 13.988 C 164.366 13.988 173.871 27.916 173.871 44.96 C 173.871 64.297 164.366 77.57 140.277 77.57 Z  M 262.191 191.053 C 262.191 194.506 260.66 199.688 252.654 199.648 L 245.197 199.648 L 245.197 210.403 L 240.292 210.403 L 240.292 182.381 L 252.654 182.381 C 260.66 182.38 262.191 187.56 262.191 191.053 Z  M 245.197 186.384 L 245.197 195.646 L 252.379 195.646 C 254.577 195.646 257.285 194.546 257.285 191.014 C 257.285 187.325 255.048 186.384 252.458 186.384 L 245.197 186.384 Z  M 270.627 210.402 L 266.153 210.402 L 266.153 182.38 L 270.627 182.38 L 270.627 210.402 Z  M 282.4 198.707 C 285.618 198.117 288.483 198.47 288.483 195.842 C 288.483 193.526 286.089 193.095 284.283 193.095 C 281.771 193.095 280.005 194.116 279.809 196.313 L 275.335 196.313 C 275.648 191.092 280.084 189.562 284.557 189.562 C 288.521 189.562 292.682 191.172 292.682 195.45 L 292.682 205.889 C 292.682 206.986 292.917 207.419 293.741 207.419 C 294.016 207.419 294.369 207.419 294.84 207.339 L 294.84 210.44 C 294.173 210.676 292.761 210.95 292.014 210.95 C 290.21 210.95 288.914 210.323 288.561 208.479 C 286.794 210.207 283.93 210.95 281.537 210.95 C 277.887 210.95 274.59 208.989 274.59 205.025 C 274.59 199.962 278.632 199.138 282.4 198.707 Z  M 283.185 207.419 C 285.147 207.419 288.208 206.398 288.208 203.571 L 288.208 200.237 C 286.834 201.14 284.676 201.1 282.713 201.453 C 280.79 201.767 279.064 202.474 279.064 204.827 C 279.065 206.829 281.615 207.419 283.185 207.419 Z  M 329.217 207.065 C 333.534 207.065 335.143 204.945 335.143 202.827 C 335.143 200.668 333.966 199.804 332.828 199.373 C 330.866 198.627 328.315 198.117 324.469 197.058 C 319.681 195.762 318.269 192.86 318.269 189.954 C 318.269 184.344 323.449 181.713 328.512 181.713 C 334.36 181.713 339.265 184.814 339.265 190.661 L 334.359 190.661 C 334.124 187.05 331.69 185.716 328.315 185.716 C 326.039 185.716 323.174 186.54 323.174 189.366 C 323.174 191.328 324.508 192.426 326.51 192.975 C 326.941 193.094 333.142 194.702 334.593 195.135 C 338.282 196.233 340.049 199.372 340.049 202.277 C 340.049 208.556 334.476 211.068 328.903 211.068 C 322.506 211.068 317.326 208.007 317.208 201.06 L 322.113 201.06 C 322.114 205.377 325.293 207.065 329.217 207.065 Z  M 345.228 184.027 L 349.703 184.027 L 349.703 190.111 L 353.744 190.111 L 353.744 193.447 L 349.703 193.447 L 349.703 204.279 C 349.703 206.124 349.859 207.065 351.86 207.065 C 352.488 207.065 353.117 207.065 353.744 206.908 L 353.744 210.362 C 352.763 210.439 351.821 210.596 350.84 210.596 C 346.17 210.596 345.306 208.791 345.228 205.416 L 345.228 193.446 L 341.853 193.446 L 341.853 190.11 L 345.228 190.11 L 345.228 184.027 Z  M 363.869 198.707 C 367.087 198.117 369.952 198.47 369.952 195.842 C 369.952 193.526 367.558 193.095 365.753 193.095 C 363.241 193.095 361.475 194.116 361.278 196.313 L 356.804 196.313 C 357.118 191.092 361.553 189.562 366.027 189.562 C 369.991 189.562 374.151 191.172 374.151 195.45 L 374.151 205.889 C 374.151 206.986 374.385 207.419 375.211 207.419 C 375.486 207.419 375.838 207.419 376.31 207.339 L 376.31 210.44 C 375.643 210.676 374.23 210.95 373.485 210.95 C 371.679 210.95 370.384 210.323 370.03 208.479 C 368.265 210.207 365.4 210.95 363.006 210.95 C 359.356 210.95 356.06 208.989 356.06 205.025 C 356.059 199.962 360.101 199.138 363.869 198.707 Z  M 364.653 207.419 C 366.615 207.419 369.676 206.398 369.676 203.571 L 369.676 200.237 C 368.302 201.14 366.145 201.1 364.182 201.453 C 362.26 201.767 360.533 202.474 360.533 204.827 C 360.533 206.829 363.083 207.419 364.653 207.419 Z  M 380.507 184.027 L 384.981 184.027 L 384.981 190.111 L 389.023 190.111 L 389.023 193.447 L 384.981 193.447 L 384.981 204.279 C 384.981 206.124 385.138 207.065 387.139 207.065 C 387.767 207.065 388.395 207.065 389.024 206.908 L 389.024 210.362 C 388.043 210.439 387.101 210.596 386.119 210.596 C 381.449 210.596 380.586 208.791 380.507 205.416 L 380.507 193.446 L 377.132 193.446 L 377.132 190.11 L 380.507 190.11 L 380.507 184.027 Z  M 397.029 186.618 L 392.555 186.618 L 392.555 182.38 L 397.029 182.38 L 397.029 186.618 Z  M 397.029 210.402 L 392.555 210.402 L 392.555 190.111 L 397.029 190.111 L 397.029 210.402 Z  M 411.392 189.561 C 417.907 189.561 421.634 194.036 421.634 200.237 C 421.634 206.475 417.906 210.949 411.392 210.949 C 404.878 210.949 401.15 206.475 401.15 200.237 C 401.15 194.036 404.878 189.561 411.392 189.561 Z  M 411.392 207.419 C 415.396 207.419 417.161 203.768 417.161 200.237 C 417.161 196.743 415.396 193.094 411.392 193.094 C 407.389 193.094 405.623 196.742 405.623 200.237 C 405.624 203.767 407.389 207.419 411.392 207.419 Z  M 429.797 193.095 L 429.875 193.172 C 431.209 190.936 433.525 189.562 436.193 189.562 C 440.589 189.562 443.375 191.916 443.375 196.47 L 443.375 210.403 L 438.902 210.403 L 438.902 197.646 C 438.823 194.469 437.566 193.095 434.938 193.095 C 431.955 193.095 430.032 195.449 430.032 198.432 L 430.032 210.403 L 425.557 210.403 L 425.557 190.112 L 429.796 190.112 L 429.796 193.095 L 429.797 193.095 Z  M 490.435 186.618 L 485.961 186.618 L 485.961 182.38 L 490.435 182.38 L 490.435 186.618 Z  M 490.435 210.402 L 485.961 210.402 L 485.961 190.111 L 490.435 190.111 L 490.435 210.402 Z " fill-rule="evenodd" fill="rgb(255,255,255)"/></g></svg>