<?xml version="1.0" encoding="UTF-8" standalone="no"?><!-- Generator: Gravit.io --><svg xmlns="http://www.w3.org/2000/svg" xmlns:xlink="http://www.w3.org/1999/xlink" style="isolation:isolate" viewBox="0 0 990 445" width="990pt" height="445pt"><defs><clipPath id="_clipPath_IHgrSrutRutiGqmxZpE7E1quzPP35pl8"><rect width="990" height="445"/></clipPath></defs><g clip-path="url(#_clipPath_IHgrSrutRutiGqmxZpE7E1quzPP35pl8)"><path d=" M 166.997 430.009 C 148.824 425.02 131.109 408.181 123.359 388.531 C 118.165 375.36 99.393 309.276 33.599 72.531 L 23.733 37.031 L 68.25 36.771 C 92.735 36.628 113.082 36.853 113.465 37.271 C 113.848 37.689 130.515 102.206 150.503 180.642 L 186.845 323.252 L 204.119 257.142 C 245.14 100.149 252.107 74.832 257.284 63.958 C 264.26 49.304 276.453 38.834 290.931 35.063 C 298.559 33.076 316.138 33.055 323.696 35.023 C 339.651 39.179 352.121 50.683 358.986 67.578 C 363.173 77.882 372.183 111.051 405.83 240.031 C 417.165 283.481 426.765 319.817 427.164 320.777 C 427.616 321.864 441.665 268.556 464.389 179.533 L 500.889 36.544 L 546.108 36.538 C 581.849 36.533 591.236 36.793 590.894 37.781 C 590.656 38.469 581.027 73.006 569.497 114.531 C 514.394 312.974 495.211 379.616 489.809 391.372 C 480.633 411.341 465.212 425.217 446.895 429.988 C 439.243 431.981 422.607 432 415.02 430.024 C 404.455 427.272 398.412 423.634 389.349 414.571 C 382.269 407.493 380.01 404.406 376.143 396.531 C 369.82 383.658 363.726 362.661 324.916 220.031 C 315.787 186.481 308.066 158.356 307.758 157.531 C 307.45 156.706 298.03 189.511 286.825 230.431 C 262.197 320.369 249.224 366.83 245.192 379.531 C 236.478 406.985 220.634 424.561 199.745 429.947 C 192.212 431.89 173.971 431.924 166.997 430.009 Z  M 635.389 292.031 L 635.389 155.531 L 677.889 155.531 L 720.389 155.531 L 720.389 292.031 L 720.389 428.531 L 677.889 428.531 L 635.389 428.531 L 635.389 292.031 L 635.389 292.031 Z  M 806.389 292.031 L 806.389 155.531 L 848.889 155.531 L 891.389 155.531 L 891.389 292.031 L 891.389 428.531 L 848.889 428.531 L 806.389 428.531 L 806.389 292.031 L 806.389 292.031 Z  M 923.389 415.031 L 923.389 401.531 L 918.389 401.531 C 913.723 401.531 913.389 401.365 913.389 399.031 L 913.389 396.531 L 926.389 396.531 L 939.389 396.531 L 939.389 399.031 C 939.389 401.365 939.056 401.531 934.389 401.531 L 929.389 401.531 L 929.389 415.031 L 929.389 428.531 L 926.389 428.531 L 923.389 428.531 L 923.389 415.031 L 923.389 415.031 Z  M 941.389 412.531 L 941.389 396.531 L 945.846 396.531 L 950.303 396.531 L 953.346 406.392 C 955.02 411.816 956.389 416.856 956.389 417.592 C 956.389 420.714 958.343 416.414 961.3 406.781 L 964.447 396.531 L 968.918 396.531 L 973.389 396.531 L 973.389 412.531 L 973.389 428.531 L 970.389 428.531 L 967.389 428.531 L 967.31 417.281 C 967.225 405.119 967.274 405.09 962.866 419.839 C 960.235 428.639 960.231 428.646 957.092 428.339 C 954.012 428.038 953.89 427.823 950.92 417.531 L 947.889 407.031 L 947.605 417.781 L 947.322 428.531 L 944.355 428.531 L 941.389 428.531 L 941.389 412.531 L 941.389 412.531 Z  M 665.889 108.428 C 646.628 104.525 630.679 88.036 627.408 68.642 C 623.423 45.016 639.177 21.25 662.924 15.064 C 675.043 11.908 690.566 13.547 701.626 19.152 C 708.25 22.508 718.315 32.141 721.704 38.369 C 733.344 59.756 726.449 87.659 706.333 100.567 C 695.18 107.724 678.458 110.974 665.889 108.428 Z  M 836.889 108.428 C 811.946 103.374 794.291 78.517 798.319 54.124 C 801.409 35.414 815.611 19.834 833.924 15.064 C 846.032 11.911 861.567 13.547 872.602 19.139 C 879.25 22.508 888.63 31.461 892.381 38.018 C 904.429 59.076 897.572 87.58 877.333 100.567 C 866.18 107.724 849.458 110.974 836.889 108.428 Z " fill="rgb(255,255,255)"/></g></svg>