<?xml version="1.0" encoding="UTF-8" standalone="no"?><!-- Generator: Gravit.io --><svg xmlns="http://www.w3.org/2000/svg" xmlns:xlink="http://www.w3.org/1999/xlink" style="isolation:isolate" viewBox="0 0 698.294 208.332" width="698.294pt" height="208.332pt"><defs><clipPath id="_clipPath_BAmFVy6JSUDTkEVPWPcL48xsp0ZWS9bo"><rect width="698.294" height="208.332"/></clipPath></defs><g clip-path="url(#_clipPath_BAmFVy6JSUDTkEVPWPcL48xsp0ZWS9bo)"><path d=" M 564.044 72.045 C 564.044 119.621 620.294 112.817 620.294 79.545 L 620.294 0.795 L 564.044 0.795 L 564.044 72.045 Z " fill-rule="evenodd" fill="rgb(255,255,255)"/><path d=" M 486.544 122.045 C 486.544 145.551 502.78 159.545 526.544 159.545 L 661.544 159.545 C 681.595 159.545 697.794 145.7 697.794 125.795 L 697.794 27.045 C 697.794 15.048 688.854 2.045 677.795 2.045 L 646.544 2.045 L 646.544 83.295 C 646.544 145.005 539.044 144.53 539.044 84.545 L 539.044 0.795 L 515.294 0.795 C 499.832 0.795 486.544 10.592 486.544 25.795 L 486.544 122.045 L 486.544 122.045 Z " fill-rule="evenodd" fill="rgb(255,255,255)"/><path d=" M 299.681 24.137 C 299.681 36.969 310.486 47.774 323.993 47.774 C 338.176 47.774 349.319 37.306 349.319 24.137 C 349.319 10.968 338.176 0.5 323.993 0.5 C 310.486 0.5 299.681 10.968 299.681 24.137 Z " fill="rgb(255,255,255)"/><path d=" M 345.606 206.482 L 345.606 71.074 L 303.733 71.074 L 303.733 206.482 L 345.606 206.482 Z " fill="rgb(255,255,255)"/><path d=" M 384.437 24.137 C 384.437 36.969 395.58 47.774 409.087 47.774 C 422.932 47.774 434.075 37.306 434.075 24.137 C 434.075 10.968 422.932 0.5 409.087 0.5 C 395.58 0.5 384.437 10.968 384.437 24.137 L 384.437 24.137 Z " fill="rgb(255,255,255)"/><path d=" M 430.362 206.482 L 430.362 71.074 L 388.49 71.074 L 388.49 206.482 L 430.362 206.482 Z " fill="rgb(255,255,255)"/><path d=" M 237.211 11.981 L 200.741 155.493 C 200.741 155.493 172.715 47.774 167.987 32.241 C 163.597 17.046 154.142 10.292 140.973 10.292 C 127.466 10.292 118.349 17.046 113.621 32.241 C 109.232 47.774 81.204 155.493 81.204 155.493 L 44.398 11.981 L 0.5 11.981 C 0.5 11.981 42.71 164.948 48.45 182.845 C 52.84 196.689 63.646 207.832 79.178 207.832 C 97.413 207.832 105.855 194.663 109.569 182.845 C 113.621 170.688 140.973 69.723 140.973 69.723 C 140.973 69.723 168.324 170.688 172.039 182.845 C 176.091 194.663 184.533 207.832 202.43 207.832 C 218.301 207.832 228.769 196.689 233.496 182.845 C 239.236 164.948 281.446 11.981 281.446 11.981 L 237.211 11.981 L 237.211 11.981 Z " fill="rgb(255,255,255)"/></g></svg>