<?xml version="1.0" encoding="UTF-8" standalone="no"?><!-- Generator: Gravit.io --><svg xmlns="http://www.w3.org/2000/svg" xmlns:xlink="http://www.w3.org/1999/xlink" style="isolation:isolate" viewBox="0 0 492 95" width="492pt" height="95pt"><defs><clipPath id="_clipPath_L351B5GJQuG10jfG5rv249a1jRV7SOJ7"><rect width="492" height="95"/></clipPath></defs><g clip-path="url(#_clipPath_L351B5GJQuG10jfG5rv249a1jRV7SOJ7)"><path d=" M 131.143 12.969 C 131.143 18.442 135.785 22.897 141.465 22.897 C 147.385 22.897 152.037 18.525 152.037 12.969 C 152.037 7.382 147.385 3 141.465 3 C 135.785 3 131.143 7.476 131.143 12.969 Z " fill="rgb(255,255,255)"/><rect x="132.877" y="32.887" width="17.602" height="56.97" transform="matrix(1,0,0,1,0,0)" fill="rgb(255,255,255)"/><path d=" M 166.949 12.969 C 166.949 18.442 171.571 22.897 177.251 22.897 C 183.191 22.897 187.833 18.525 187.833 12.969 C 187.833 7.382 183.191 3 177.251 3 C 171.571 3 166.949 7.476 166.949 12.969 Z " fill="rgb(255,255,255)"/><rect x="168.653" y="32.887" width="17.602" height="56.97" transform="matrix(1,0,0,1,0,0)" fill="rgb(255,255,255)"/><path d=" M 104.89 7.798 L 89.448 68.33 C 89.448 68.33 77.651 22.897 75.741 16.459 C 73.819 9.999 69.842 7.154 64.255 7.154 C 58.658 7.154 54.68 9.999 52.759 16.448 C 50.838 22.897 39.041 68.32 39.041 68.32 L 23.599 7.798 L 5 7.798 C 5 7.798 22.862 72.391 25.292 79.857 C 27.171 85.704 31.658 90.45 38.273 90.45 C 45.874 90.45 49.415 84.935 51.067 79.857 C 52.687 74.8 64.255 32.15 64.255 32.15 C 64.255 32.15 75.824 74.8 77.423 79.857 C 79.084 84.935 82.615 90.45 90.196 90.45 C 96.832 90.45 101.308 85.693 103.219 79.857 C 105.649 72.391 123.469 7.798 123.469 7.798 L 104.89 7.798 Z " fill="rgb(255,255,255)"/><path d=" M 262.52 62.951 C 260.121 74.405 249.664 91.405 230.805 91.26 C 221.438 91.208 216.391 87.095 213.816 83.658 C 207.917 75.807 209.641 64.945 210.015 62.837 L 219.776 7.569 L 237.306 7.684 L 227.575 62.992 L 227.523 63.2 C 227.274 64.54 226.952 68.849 228.676 71.113 C 229.05 71.57 230.14 73.003 234.003 73.034 C 241.688 73.086 244.295 65.557 245.084 62.172 L 250.183 33.178 L 254.679 7.684 L 272.271 7.684 L 262.52 62.951 L 262.551 62.774 L 267.816 32.929 L 267.837 32.669" fill="rgb(255,255,255)"/><path d=" M 244.949 62.951 C 243.35 74.405 247.774 91.405 266.694 91.26 C 276.082 91.208 282.573 87.095 286.363 83.658 C 295.024 75.807 297.163 64.945 297.495 62.837 L 307.236 7.569 L 289.634 7.684 L 279.893 62.992 L 279.862 63.2 C 279.634 64.54 278.44 68.849 275.906 71.113 C 275.376 71.57 273.777 73.003 269.914 73.034 C 262.208 73.086 262.271 65.557 262.665 62.172 L 267.764 33.178 L 272.271 7.684 L 254.69 7.684 L 244.949 62.951 L 244.98 62.774 L 250.235 32.929 L 250.287 32.669" fill="rgb(255,255,255)"/><path d=" M 338.816 88.123 C 335.119 90.45 331.267 91.26 326.406 91.26 C 314.828 91.26 301.826 80.283 305.668 59.212 C 308.991 40.8 324.257 26.906 341.849 26.906 C 358.973 26.906 371.3 37.249 367.779 56.679 L 361.756 89.733 L 343.614 89.733 L 348.734 61.466 C 350.707 50.614 349.191 44.061 339.398 44.061 C 330.882 44.061 325.243 51.445 323.925 58.704 C 322.211 68.247 326.573 72.837 333.406 72.837 C 336.708 72.837 339.699 72.1 341.88 71.3 L 338.816 88.123 Z " fill="rgb(255,255,255)"/><path d=" M 412.091 32.025 C 407.127 32.025 402.63 33.365 398.497 35.961 L 400.086 27.269 L 381.913 27.269 L 370.479 89.847 L 388.652 89.847 L 394.717 56.595 C 396.057 53.2 399.608 48.111 409.173 48.111 L 422.039 48.111 L 424.978 32.015 L 412.163 32.015" fill="rgb(255,255,255)"/><path d=" M 441.708 58.589 C 439.309 72.276 446.028 76.887 453.339 76.887 C 459.528 76.887 464.243 73.741 468.147 69.452 L 479.685 79.161 C 472.26 86.856 461.522 91.28 451.677 91.28 C 432.746 91.28 419.838 78.663 423.296 59.098 C 426.754 39.533 441.978 26.937 460.909 26.937 C 476.029 26.937 489.54 39.533 486.113 59.098 L 485.074 65.007 L 446.287 65.007 L 448.541 52.151 L 468.428 52.151 C 469.674 45.858 465.696 40.551 458.863 40.551 C 450.556 40.551 444.127 44.923 441.708 58.589 Z " fill="rgb(255,255,255)"/></g></svg>