<?xml version="1.0" encoding="UTF-8" standalone="no"?><!-- Generator: Gravit.io --><svg xmlns="http://www.w3.org/2000/svg" xmlns:xlink="http://www.w3.org/1999/xlink" style="isolation:isolate" viewBox="0 0 476 88" width="476pt" height="88pt"><defs><clipPath id="_clipPath_Tq2wu8J2mn5bOBct2TeUmKgtQW7p9lge"><rect width="476" height="88"/></clipPath></defs><g clip-path="url(#_clipPath_Tq2wu8J2mn5bOBct2TeUmKgtQW7p9lge)"><path d=" M 0 12.49 L 35.7 7.59 L 35.7 42.09 L 0 42.09 M 40 6.91 L 87.3 0 L 87.3 41.8 L 40 41.8 M 0 45.74 L 35.7 45.74 L 35.7 80.34 L 0 75.34 M 40 46.2 L 87.3 46.2 L 87.3 87.6 L 40 80.9" fill="rgb(255,255,255)"/><path d=" M 113.95 16.99 C 116.2 17 118.45 17 120.71 17.03 C 124.22 29.71 127.68 42.41 131.2 55.1 C 131.95 57.76 132.51 60.48 132.84 63.24 C 136.5 47.67 141.5 32.43 145.7 16.99 C 147.65 17 149.6 17 151.55 17.01 C 154.64 28 157.53 39.04 160.59 50.04 C 161.72 54.42 163.18 58.74 163.64 63.27 C 166.95 47.72 171.67 32.48 175.42 17.03 C 177.64 17 179.86 17 182.08 17 C 177.24 34.69 172.2 52.33 167.3 70 L 160.09 70 C 156.54 57.31 153.02 44.61 149.43 31.94 C 148.83 29.89 148.58 27.77 148.39 25.65 C 148.11 27.48 147.85 29.33 147.38 31.12 C 143.75 44.04 140.07 56.94 136.54 69.88 C 134.14 70.01 131.74 70.02 129.34 70 C 124.19 52.34 119.08 34.66 113.95 16.99 Z " fill="rgb(255,255,255)"/><path d=" M 186.2 17.42 C 186.464 15.325 188.311 13.796 190.419 13.928 C 192.527 14.06 194.169 15.808 194.169 17.92 C 194.169 20.032 192.527 21.78 190.419 21.912 C 188.311 22.044 186.464 20.515 186.2 18.42 M 187.1 32 L 193.1 32 L 193.1 70 L 187.1 70" fill="rgb(255,255,255)"/><path d=" M 209.06 38.12 C 212.49 32.01 220.49 29.2 226.94 32.03 C 232.07 34.03 233.98 39.97 234.14 45.03 C 234.42 53.35 234.19 61.68 234.26 70 C 232.26 70 230.26 70 228.26 69.99 C 228.17 62 228.47 53.99 228.12 46 C 227.96 42.04 226.28 37.28 221.97 36.27 C 215.68 34.37 209.4 40.04 209.2 46.26 C 209.02 54.17 209.19 62.09 209.13 70 L 203.13 70 C 203.14 57.33 203.14 44.67 203.13 32 L 209.14 32 C 209.13 34.04 209.12 36.08 209.06 38.12" fill="rgb(255,255,255)"/><path d=" M 270.13 14.01 C 272.13 14 274.13 14 276.13 14 L 276.13 70 L 270.15 70 C 270.16 67.97 270.12 65.94 269.98 63.91 C 265.65 71.69 254.07 73.41 247.45 67.64 C 242.72 63.57 241.28 56.95 241.53 50.96 C 241.58 44.88 243.58 38.42 248.42 34.45 C 254.71 29.27 265.86 29.57 270.17 37.18 C 270.09 29.45 270.16 21.73 270.13 14.01 M 257.21 36.15 C 252.41 36.91 249.16 41.29 248.26 45.82 C 247.08 51.28 247.29 57.6 250.73 62.24 C 254.45 67.18 262.66 67.29 266.64 62.62 C 269.35 59.8 270.12 55.76 270.14 51.98 C 270.17 47.99 270.51 43.49 267.86 40.16 C 265.52 36.83 261.15 35.33 257.21 36.15" fill="rgb(255,255,255)"/><path d=" M 299.47 31.06 C 304.82 30.59 310.75 31.43 314.77 35.3 C 319.31 39.49 320.66 46 320.41 51.95 C 320.34 57.3 318.36 62.73 314.44 66.46 C 306.26 73.9 291.07 72.27 285.88 62.04 C 281.8 53.47 282.62 41.61 290.07 35.1 C 292.74 32.84 296.12 31.81 299.47 31.06 M 298.39 36.5 C 289.58 39.21 288.09 50.72 290.84 58.29 C 293.03 65.01 301.57 67.99 307.7 64.85 C 311.85 62.94 313.74 58.26 314.14 53.97 C 314.59 48.96 314.19 43.28 310.65 39.37 C 307.65 35.99 302.57 35.26 298.39 36.5 Z " fill="rgb(255,255,255)"/><path d=" M 322.91 32 L 329.17 32 C 331.65 41.05 334.05 50.12 336.58 59.16 C 337.09 60.86 337.28 62.62 337.46 64.38 C 340.29 53.48 343.87 42.78 347.08 31.99 L 352.55 32.02 C 355.3 42.82 358.72 53.46 361 64.37 C 363.35 53.52 366.69 42.91 369.3 32.12 C 371.31 32.02 373.32 31.99 375.34 31.97 C 371.53 44.64 367.88 57.35 364.05 70 L 357.83 70 C 355.13 59.7 351.63 49.6 349.44 39.19 C 346.83 49.59 343.21 59.71 340.23 70 L 334.22 70 C 330.46 57.33 326.62 44.69 322.91 32" fill="rgb(255,255,255)"/><path d=" M 390.46 31.04 C 394.21 30.78 398.03 31.14 401.56 32.52 C 402.54 34.38 401.78 36.82 402.01 38.91 C 397.8 36.28 392 34.6 387.43 37.28 C 384.3 38.98 384.15 44.01 387.2 45.88 C 391.57 48.71 397.12 49.45 401 53.09 C 405.28 57.21 404.24 65.13 399.23 68.22 C 393.14 72.1 385.12 71.72 378.74 68.76 C 378.74 66.52 378.73 64.28 378.69 62.04 C 383.23 65.5 389.61 67.42 395.04 64.96 C 398.21 63.37 398.37 58.5 395.58 56.45 C 391.21 53.23 385.22 52.72 381.34 48.7 C 377.51 44.84 378.2 37.74 382.47 34.47 C 384.68 32.44 387.67 31.83 390.46 31.04" fill="rgb(255,255,255)"/><path d=" M 432.27 16.15 C 432.8 16.08 433.86 15.93 434.38 15.86 C 434.41 33.9 434.39 51.95 434.39 70 L 428.47 70 C 428.51 54.98 428.37 39.95 428.54 24.93 C 424.77 27.54 420.7 29.77 416.27 31.01 C 416.3 29.01 416.32 27.01 416.34 25.01 C 422.14 23.04 427.42 19.86 432.27 16.15 Z " fill="rgb(255,255,255)"/><path d=" M 456.26 16.13 C 461.46 15.26 467.23 17.16 470.32 21.58 C 474.71 27.78 475.12 35.73 475.34 43.06 C 475.19 50.8 474.34 59.19 469.4 65.5 C 464.85 71.47 455.53 72.87 449.43 68.48 C 444.48 64.91 442.54 58.68 441.66 52.91 C 440.66 44.34 440.75 35.35 443.73 27.17 C 445.61 21.62 450.25 16.84 456.26 16.13 M 455.34 21.5 C 450.01 23.66 448.48 29.96 447.74 35.08 C 446.96 42.22 446.78 49.58 448.48 56.61 C 449.33 60.07 451.12 63.74 454.55 65.26 C 458.44 67.22 463.64 65.53 465.69 61.69 C 468.96 56.04 469.04 49.26 469.08 42.91 C 468.95 36.72 468.7 30.06 465.28 24.68 C 463.25 21.4 458.88 20.08 455.34 21.5" fill="rgb(255,255,255)"/></g></svg>