<?xml version="1.0" encoding="UTF-8" standalone="no"?><!-- Generator: Gravit.io --><svg xmlns="http://www.w3.org/2000/svg" xmlns:xlink="http://www.w3.org/1999/xlink" style="isolation:isolate" viewBox="0 0 755.4 209.1" width="755.4pt" height="209.1pt"><defs><clipPath id="_clipPath_FpcXevcM4oWkGfhECSEqa50EKlNX0HW4"><rect width="755.4" height="209.1"/></clipPath></defs><g clip-path="url(#_clipPath_FpcXevcM4oWkGfhECSEqa50EKlNX0HW4)"><g><g><path d=" M 31.9 81.6 L 106.3 209.2 L 207.3 209.2 L 132.9 81.6 L 31.9 81.6 L 31.9 81.6 Z  M 47.8 89.5 L 124.9 89.5 L 188.5 198.5 L 111.4 198.5 L 47.8 89.5 L 47.8 89.5 Z " fill="rgb(255,255,255)"/><path d=" M 58.5 149.9 L 0 209.1 L 93 209.1 L 58.5 149.9 L 58.5 149.9 Z  M 55.4 166.6 L 77.1 201.2 L 21.3 201.2 L 55.4 166.6 L 55.4 166.6 Z " fill="rgb(255,255,255)"/><path d=" M 178.2 140.7 L 236.7 81.5 L 143.7 81.5 L 178.2 140.7 L 178.2 140.7 Z  M 181.3 124 L 159.6 89.4 L 215.4 89.4 L 181.3 124 L 181.3 124 Z " fill="rgb(255,255,255)"/></g><g><path d=" M 252.7 164.6 C 252.6 164.4 252.3 166 251.8 169.5 C 251.3 172.9 251.1 175.5 251 177.2 C 251.5 180.8 252.7 180.8 254.7 182.6 C 256.3 183.6 257.7 183.3 261.7 183.8 C 265.6 184.3 289.1 184.3 293.1 183.8 C 297.1 183.4 300.4 182.8 302.5 181.4 C 306.7 178.8 309.6 174.9 311.1 164.6 C 312.2 159 312.6 157.6 312.5 155 C 312.3 151.5 310.6 149.1 307.1 147.9 C 303.7 146.7 298.7 147.3 293.1 147.3 L 282.2 147.3 C 270.4 147.3 263.3 147.4 259.8 149.8 C 255.8 152.5 254.2 156.1 252.7 164.6 Z  M 336.9 123.6 L 320.2 123.6 C 320.8 119.6 320.6 116.9 320.5 114.4 C 320.4 111.9 320.1 109.7 319 108.9 C 316.6 106.9 307 107 296.7 107 L 287 107 C 276.8 107 270.8 106.9 267.7 109.2 C 263.7 112.3 261.3 117.1 260.4 123.5 L 257.7 134.6 C 257.7 134.6 259.5 131.9 263.6 131.5 C 270.7 130.7 282.6 131.4 287 131.4 C 297.9 131.6 306.8 130.9 312.7 131.9 C 318.5 132.9 324.9 134.1 327.9 137.4 C 330.6 140.2 332.1 144.4 332.3 150.1 C 332.5 153.9 331.7 160 330.1 168.5 C 329.2 172.6 328.1 176.3 326.8 179.6 C 325.6 182.9 323.9 186 321.7 188.8 C 319.5 191.6 316.9 196.5 313.9 198.1 C 309.2 200.5 303.1 200.4 297.6 201 C 292.1 201.6 283.3 201 274.6 201 C 266.8 201 258.9 201.2 253.2 200.5 C 247.5 199.8 242.8 198.2 239.2 195.6 C 234.7 192.3 232.2 186.9 231.6 179.4 C 231.6 175.5 232 171.1 232.9 166.1 L 242.2 117.3 C 244 106.6 247.2 98.3 255 93.3 C 259.3 90.6 264.6 88.8 270.7 88 C 276.9 87.1 287.1 86.7 295.9 86.7 L 309.6 86.7 C 318.9 86.7 321.5 87.9 328 90.4 C 334.5 92.9 337.9 97.8 338.3 105.2 C 338.5 107.6 338 117.2 336.9 123.6 Z " fill="rgb(255,255,255)"/><path d=" M 401 102.5 C 390 102.5 380.1 103 376.4 104 C 372.8 105 370.6 104.9 368.9 107.5 C 367.3 110.1 366.3 112.8 365.8 115.6 C 365.4 118.4 365 122.2 364.6 127 C 364.9 129.9 365.9 131.8 367.3 132.9 C 370.1 134.7 380.1 134.9 393 134.9 C 404.6 134.9 413.2 134.7 417.7 132.7 C 419.6 131.9 421.3 130.2 422.6 127.6 C 424 125 424.8 123 425.8 118 C 426.3 115 426.6 112.4 426.5 110.3 C 426.4 107.6 425.6 105.9 424 105 C 422.3 104 419.6 103.4 416 103.1 C 412.6 102.6 407.5 102.5 401 102.5 Z  M 428.9 142 C 435.8 144.8 435.8 151.4 435.9 159.1 C 435.9 160.2 436.2 166 435.8 168 C 435.4 170 435.6 171.5 435.4 172.2 C 433.9 179.2 433.4 182.3 431 186.4 C 428.6 190.5 427.2 193.5 423.1 195.7 C 419.5 197.7 414.9 199.2 409.4 199.9 C 403.9 200.7 394.2 201.1 385.7 201.1 L 374.7 201.1 C 365.2 201.1 357.7 200.8 352.3 200.1 C 346.9 199.4 343.8 196.9 340.6 194 C 337.6 191.4 334.8 185.1 334.3 179 C 334.5 176.2 335 174.7 335.8 169.3 C 336.9 164.3 337.2 160.4 338.1 157.7 C 339 155 340.7 151.9 342.7 149.5 C 344.6 147.1 347.5 145.3 350.8 143.4 C 352.9 142.2 353.5 141.8 351.4 140 C 349.1 138.1 348.4 136.2 347.8 133.9 C 347.5 133.2 347.3 125.9 347.3 125.7 C 348.3 109.2 352.7 100.8 360.4 94.4 C 364.9 90.5 366.9 88.2 377 87.5 C 382.2 87.1 396.4 86.9 403.6 86.9 C 413.6 86.9 423.3 87.1 427.4 87.5 C 431 88 434.2 88.8 436.9 89.8 C 439.6 90.8 439.3 92.6 441.4 95 C 443.2 97.3 444.2 100.9 444.3 105.8 C 444.4 109.2 444.2 112.8 443.6 116.5 C 443.1 120.2 442.1 123.8 440.7 127.2 C 439.3 130.6 437.5 133.4 435.3 135.5 C 432.5 138.5 432.9 140.7 429.2 141.9 C 428.4 142.2 428 142 428 141.9 C 428 141.8 428.3 141.8 428.9 142 Z  M 389.8 149.4 C 382.8 149.4 375.6 149.4 371.8 149.8 C 368 150.2 364.9 151 362.5 152.2 C 360.3 153.2 358.5 155 357.1 157.7 C 355.7 160.3 354.5 164 353.5 168.8 C 352.6 174.3 352.7 175.4 352.6 177 C 352.9 179.9 353.5 181.6 355.7 182.6 C 357.9 183.6 361.1 185.3 365.4 185.4 C 368.7 185.8 377.4 185.9 386.2 185.9 C 395.3 185.9 402.4 186.5 407.3 184.7 C 409.6 183.7 412.2 183.4 413.7 180.8 C 415.2 178.2 415.8 175.5 416.9 170.4 C 417.8 166.5 418.2 163.5 418.2 161.3 C 418.1 158.8 417.4 154.2 416.1 152.9 C 415 151.6 412.5 150.7 408.6 150.1 C 404.5 149.5 397.7 149.4 389.8 149.4 Z " fill="rgb(255,255,255)"/><path d=" M 485.3 201.2 C 475.4 201.2 464.8 200.6 459 199.3 C 453.2 198 448.9 195.8 446.3 192.7 C 443 189 443.6 183.7 443.2 176.5 C 443.4 170.7 444.1 164.9 445.1 159.4 L 451.1 127.8 C 452.4 121 454.1 114.9 456.4 109.4 C 458.7 103.9 462 99.3 466.1 95.7 C 468.5 93.4 471.6 91.6 475.5 90.2 C 479.4 88.9 483.8 88 488.8 87.6 C 493.8 87.2 499.8 87 507.1 87 C 512.6 87 517.5 87.2 521.8 87.6 C 526.2 88 530 88.6 533.3 89.6 C 536.6 90.6 539.4 92.1 541.7 94 C 545.8 97.8 548 103.7 548.2 111.8 C 548.3 115.1 547.8 120.7 546.7 128.6 L 540.6 160.4 C 537.3 178.4 533.3 190.3 523.4 195.9 C 519.4 198.1 514.5 199.6 508.8 200.3 C 503 200.8 493.5 201.2 485.3 201.2 Z  M 504.2 103.2 C 496.6 103.2 491.2 103.3 487.9 103.6 C 484.6 103.9 481.8 104.5 479.5 105.4 C 477.7 106.1 476.1 107.2 474.6 108.6 C 473.2 110 471.7 112.3 470.3 115.5 C 468.9 118.7 467.6 120.5 466.6 125.9 L 459.8 162 C 459 167.3 458.5 169 458.3 172.4 C 458.5 175.4 459 177.6 459.8 179 C 460.6 180.4 461.8 181.5 463.4 182.3 C 465.4 183.3 468 184 471.1 184.3 C 474.2 184.6 479.3 184.7 486.5 184.7 C 495.2 184.7 501.6 184.4 505.9 183.9 C 510.2 183.4 513.4 182.2 515.6 180.3 C 519.7 176.7 522 171.2 524.4 159.8 L 530.7 126.5 C 531.6 120.1 532 118 532 114.7 C 531.9 110.2 531.7 107.8 529.8 106.4 C 527.9 105 525.2 104.1 521.8 103.7 C 518.2 103.4 512.4 103.2 504.2 103.2 Z " fill="rgb(255,255,255)"/><path d=" M 589 201.2 C 579.1 201.2 568.5 200.6 562.7 199.3 C 556.9 198 552.6 195.8 550 192.7 C 546.7 189 547.3 183.7 546.9 176.5 C 547.1 170.7 547.8 164.9 548.8 159.4 L 554.8 127.8 C 556.1 121 557.8 114.9 560.1 109.4 C 562.4 103.9 565.7 99.3 569.8 95.7 C 572.2 93.4 575.3 91.6 579.2 90.2 C 583.1 88.9 587.5 88 592.5 87.6 C 597.5 87.2 603.5 87 610.8 87 C 616.3 87 621.2 87.2 625.5 87.6 C 629.9 88 633.7 88.6 637 89.6 C 640.3 90.6 643.1 92.1 645.4 94 C 649.5 97.8 651.7 103.7 651.9 111.8 C 652 115.1 651.5 120.7 650.4 128.6 L 644.3 160.4 C 641 178.4 637 190.3 627.1 195.9 C 623.1 198.1 618.2 199.6 612.5 200.3 C 606.7 200.8 597.1 201.2 589 201.2 Z  M 607.8 103.2 C 600.2 103.2 594.8 103.3 591.5 103.6 C 588.2 103.9 585.4 104.5 583.1 105.4 C 581.3 106.1 579.7 107.2 578.2 108.6 C 576.8 110 575.3 112.3 573.9 115.5 C 572.5 118.7 571.2 120.5 570.2 125.9 L 563.4 162 C 562.6 167.3 562.1 169 561.9 172.4 C 562.1 175.4 562.6 177.6 563.4 179 C 564.2 180.4 565.4 181.5 567 182.3 C 569 183.3 571.6 184 574.7 184.3 C 577.8 184.6 582.9 184.7 590.1 184.7 C 598.8 184.7 605.2 184.4 609.5 183.9 C 613.8 183.4 617 182.2 619.2 180.3 C 623.3 176.7 625.6 171.2 628 159.8 L 634.3 126.5 C 635.2 120.1 635.6 118 635.6 114.7 C 635.5 110.2 635.3 107.8 633.4 106.4 C 631.5 105 628.8 104.1 625.4 103.7 C 621.9 103.4 616.1 103.2 607.8 103.2 Z " fill="rgb(255,255,255)"/><path d=" M 692.6 201.2 C 682.7 201.2 672.1 200.6 666.3 199.3 C 660.5 198 656.2 195.8 653.6 192.7 C 650.3 189 650.9 183.7 650.5 176.5 C 650.7 170.7 651.4 164.9 652.4 159.4 L 658.4 127.8 C 659.7 121 661.4 114.9 663.7 109.4 C 666 103.9 669.3 99.3 673.4 95.7 C 675.8 93.4 678.9 91.6 682.8 90.2 C 686.7 88.9 691.1 88 696.1 87.6 C 701.1 87.2 707.1 87 714.4 87 C 719.9 87 724.8 87.2 729.1 87.6 C 733.5 88 737.3 88.6 740.6 89.6 C 743.9 90.6 746.7 92.1 749 94 C 753.1 97.8 755.3 103.7 755.5 111.8 C 755.6 115.1 755.1 120.7 754 128.6 L 747.9 160.4 C 744.6 178.4 740.6 190.3 730.7 195.9 C 726.7 198.1 721.8 199.6 716.1 200.3 C 710.3 200.8 700.8 201.2 692.6 201.2 Z  M 711.5 103.2 C 703.9 103.2 698.5 103.3 695.2 103.6 C 691.9 103.9 689.1 104.5 686.8 105.4 C 685 106.1 683.4 107.2 681.9 108.6 C 680.5 110 679 112.3 677.6 115.5 C 676.2 118.7 674.9 120.5 673.9 125.9 L 667.1 162 C 666.3 167.3 665.8 169 665.6 172.4 C 665.8 175.4 666.3 177.6 667.1 179 C 667.9 180.4 669.1 181.5 670.7 182.3 C 672.7 183.3 675.3 184 678.4 184.3 C 681.5 184.6 686.6 184.7 693.8 184.7 C 702.5 184.7 708.9 184.4 713.2 183.9 C 717.5 183.4 720.7 182.2 722.9 180.3 C 727 176.7 729.3 171.2 731.7 159.8 L 738 126.5 C 738.9 120.1 739.3 118 739.3 114.7 C 739.2 110.2 739 107.8 737.1 106.4 C 735.2 105 732.5 104.1 729.1 103.7 C 725.5 103.4 719.7 103.2 711.5 103.2 Z " fill="rgb(255,255,255)"/></g></g><g><path d=" M 253.1 2.4 L 253.1 60.6 L 273 60.6 L 273 37.5 L 311.3 37.5 L 311.3 60.6 L 331.2 60.6 L 331.2 2.4 L 311.3 2.4 L 311.3 24.7 L 273 24.7 L 273 2.4 L 253.1 2.4 Z " fill="rgb(255,255,255)"/><path d=" M 376.2 15 L 388.8 35.9 L 363.6 35.9 L 376.2 15 L 376.2 15 Z  M 396.1 47.9 L 403.8 60.7 L 426.9 60.7 L 391.8 2.4 L 383.8 2.4 L 368.7 2.4 L 333.6 60.6 L 348.7 60.6 L 356.4 47.8 L 396.1 47.8 L 396.1 47.9 Z " fill="rgb(255,255,255)"/><path d=" M 513 2.4 L 513 60.6 L 532.1 60.6 L 532.1 39.5 C 538.4 40.8 545.6 41.4 553.2 41.4 C 578.5 41.4 590.1 32.3 590.3 21.1 C 590.6 7.7 575.4 0 550.1 0 C 543.5 0 541.2 0.3 532.2 0.8 C 523.1 1.3 513 2.4 513 2.4 Z  M 532.1 11.6 C 532.1 11.6 536.8 11.1 541 10.8 C 545.2 10.5 546.3 10.6 549.4 10.6 C 561.1 10.6 568.2 14.3 568 21.2 C 567.9 27 562.5 31.6 550.8 31.6 C 547.3 31.6 541.9 31.1 538.4 30.6 C 534.8 30.1 532.2 29 532.2 29 L 532.2 11.6 L 532.1 11.6 Z " fill="rgb(255,255,255)"/><path d=" M 429.3 2.4 L 429.3 60.6 L 448.4 60.6 L 448.4 11.6 C 448.4 11.6 453.1 11.1 457.3 10.8 C 461.5 10.5 462.6 10.6 465.7 10.6 C 477.4 10.6 485.3 14.3 485.1 21.2 C 485 27 478.8 30 467.1 30 C 463.6 30 459.2 29.5 455.6 29 C 455.4 29 451.6 35.2 451.6 35.2 L 480.3 60.6 L 509 60.6 L 483.7 38.8 C 499.6 36.1 507.4 28.9 507.5 21.1 C 507.5 6 492.5 -0.3 466.4 0 C 459.8 0.1 457.5 0.3 448.5 0.8 C 439.3 1.3 429.3 2.4 429.3 2.4 Z " fill="rgb(255,255,255)"/><path d=" M 240.3 19.9 C 240.3 19.9 247 7.6 246.7 7.1 C 246.4 6.6 233.2 -0.4 206.8 -0.1 C 165.9 0.4 166.1 17.4 166.1 17.4 C 166.1 17.4 162 33.3 193.8 36.5 C 213.3 38.5 227.2 41.8 227.1 46.5 C 227 51.2 218.8 51 215.2 50.7 C 183.3 48.1 171.9 39.2 171.9 39.2 L 165 53.7 C 165 53.7 180.4 63.3 212.4 63 C 244.4 62.7 248.8 55.1 249.4 44.9 C 250.1 32.2 232.3 27.1 232.3 27.1 C 232.3 27.1 222.5 25 212.4 23.5 C 200.7 21.8 188.6 20 190.1 15.3 C 190.1 15.1 193.5 8.5 218 13.1 C 229.9 15.4 240.3 19.9 240.3 19.9 Z " fill="rgb(255,255,255)"/></g></g></svg>