<?xml version="1.0" encoding="UTF-8" standalone="no"?><!-- Generator: Gravit.io --><svg xmlns="http://www.w3.org/2000/svg" xmlns:xlink="http://www.w3.org/1999/xlink" style="isolation:isolate" viewBox="0 0 687.6 209" width="687.6pt" height="209pt"><defs><clipPath id="_clipPath_DO3jk0flq8kQjhjdFjHVT2vt8etQSYQf"><rect width="687.6" height="209"/></clipPath></defs><g clip-path="url(#_clipPath_DO3jk0flq8kQjhjdFjHVT2vt8etQSYQf)"><path d=" M 688.6 168.9 L 641.1 104.9 L 684.5 46.8 L 668.2 46.8 L 632.9 94.2 L 597.6 46.8 L 581.4 46.8 L 624.7 105 L 577.3 169 L 593.6 169 L 632.9 116 L 672.3 169 L 688.6 169" fill="rgb(255,255,255)"/><path d=" M 365 168.9 L 317.6 104.9 L 360.9 46.8 L 344.7 46.8 L 309.4 94.2 L 274.1 46.8 L 257.8 46.8 L 301.2 105 L 253.7 169 L 270 169 L 309.4 116 L 348.7 169 L 365 169" fill="rgb(255,255,255)"/><path d=" M 421.9 156.1 C 421.9 156.1 391.3 156.1 385.6 156.1 L 385.6 111.7 C 391.2 111.7 421.9 111.7 421.9 111.7 C 435.7 111.7 452.1 115.4 452.1 132.9 C 452.1 153.1 433.1 156.1 421.9 156.1 Z  M 385.6 59.5 C 391.2 59.5 421.9 59.5 421.9 59.5 C 431.7 59.5 448.2 61.9 448.2 78.9 C 448.2 91.7 438.6 99.4 421.9 99.4 C 421.9 99.4 391.3 99.4 385.6 99.4 C 385.6 99.4 385.6 59.5 385.6 59.5 Z  M 455.2 109.5 C 452.6 107.3 449.9 105.6 447.1 104.4 C 456 99.6 461.9 90.5 461.9 80 C 461.9 72.2 459 46.8 421.8 46.8 L 371.7 46.8 L 371.7 99.5 C 371.7 99.5 355.5 99.5 355 99.5 C 352.8 102.3 347.9 109 346 111.7 C 347.8 111.7 371.7 111.7 371.7 111.7 L 371.7 168.9 L 421.8 168.9 C 449 168.9 465.9 155.2 465.9 133.2 C 466 123.6 462.3 115.4 455.2 109.5 Z " fill="rgb(255,255,255)"/><path d=" M 531.1 158.7 C 504.6 158.7 486.1 137.8 486.1 107.8 C 486.1 77.8 504.6 56.9 531.1 56.9 C 557.5 56.9 575.9 77.8 575.9 107.8 C 575.9 137.7 557.5 158.7 531.1 158.7 Z  M 531.1 44 C 496.3 44 472.1 70.2 472.1 107.8 C 472.1 145.4 496.3 171.6 531.1 171.6 C 565.7 171.6 589.9 145.4 589.9 107.8 C 589.9 70.2 565.7 44 531.1 44 Z " fill="rgb(255,255,255)"/><path d=" M 93.325 208.114 C 77.335 206.589 61.138 200.836 47.205 191.732 C 35.537 184.107 32.903 180.988 32.903 174.726 C 32.903 162.179 46.697 140.182 70.265 115.135 C 83.667 100.902 102.313 84.219 104.323 84.658 C 108.251 85.536 139.606 116.175 151.344 130.57 C 169.921 153.399 178.471 172.069 174.127 180.387 C 170.823 186.718 150.374 199.08 135.355 203.816 C 122.97 207.744 106.703 209.408 93.325 208.114 Z  M 17.167 161.694 C 7.486 146.814 2.587 132.141 0.207 110.953 C -0.578 103.952 -0.301 99.955 1.987 85.583 C 4.829 67.675 14.995 46.972 27.242 34.218 C 32.463 28.788 32.926 28.649 39.28 30.798 C 46.997 33.409 55.223 39.093 68.001 50.669 L 75.464 57.416 L 71.397 62.43 C 52.473 85.675 32.533 118.624 25.023 139.004 C 20.934 150.072 19.293 161.209 21.049 165.83 C 22.228 168.949 21.142 167.794 17.167 161.694 Z  M 187.228 164.213 C 188.175 159.545 186.974 150.95 184.132 142.285 C 178.009 123.523 157.467 88.586 138.613 64.857 L 132.674 57.393 L 139.098 51.478 C 147.485 43.761 153.308 39.139 159.593 35.235 C 164.561 32.138 171.631 29.412 174.681 29.412 C 176.553 29.412 183.161 36.274 188.499 43.784 C 196.771 55.383 202.848 69.478 205.921 84.127 C 207.908 93.6 208.07 113.864 206.244 123.292 C 204.742 131.032 201.554 141.083 198.457 147.923 C 196.124 153.029 190.347 162.942 187.806 166.177 C 186.512 167.794 186.512 167.794 187.228 164.213 L 187.228 164.213 Z  M 95.035 25.853 C 86.324 21.417 72.899 16.68 65.482 15.386 C 62.871 14.947 58.458 14.693 55.616 14.832 C 49.493 15.132 49.77 14.832 59.59 10.188 C 67.746 6.329 74.563 4.064 83.805 2.124 C 94.203 -0.072 113.728 -0.095 123.964 2.077 C 135.008 4.411 148.017 9.263 155.342 13.769 L 157.514 15.109 L 152.523 14.855 C 142.587 14.347 128.123 18.367 112.572 25.946 C 107.882 28.233 103.815 30.059 103.515 29.989 C 103.237 29.943 99.402 28.072 95.035 25.853 Z " fill="rgb(255,255,255)"/></g></svg>