<?xml version="1.0" encoding="UTF-8" standalone="no"?><!-- Generator: Gravit.io --><svg xmlns="http://www.w3.org/2000/svg" xmlns:xlink="http://www.w3.org/1999/xlink" style="isolation:isolate" viewBox="0 0 171.818 43.527" width="171.818pt" height="43.527pt"><defs><clipPath id="_clipPath_aJ8dKrcnHThkcGkQQ7CHtMNzCvRaqAvy"><rect width="171.818" height="43.527"/></clipPath></defs><g clip-path="url(#_clipPath_aJ8dKrcnHThkcGkQQ7CHtMNzCvRaqAvy)"><path d=" M 110.573 22.551 L 110.573 19.883 L 113.622 19.883 C 115.836 19.883 117.424 19.43 118.386 18.522 C 119.347 17.615 119.828 16.508 119.828 15.201 C 119.828 13.773 119.293 12.639 118.222 11.798 C 117.151 10.957 115.812 10.537 114.202 10.537 C 111.214 10.537 109.145 11.983 107.996 14.874 L 104.965 14.874 C 106.695 10.216 109.877 7.887 114.511 7.887 C 117.112 7.887 119.214 8.58 120.818 9.965 C 122.421 11.35 123.222 13.017 123.222 14.965 C 123.222 16.477 122.738 17.796 121.77 18.921 C 120.802 20.047 119.568 20.754 118.068 21.045 C 119.762 21.287 121.217 21.995 122.433 23.168 C 123.649 24.342 124.257 25.86 124.257 27.724 C 124.257 29.938 123.352 31.804 121.543 33.322 C 119.735 34.841 117.251 35.6 114.093 35.6 C 111.601 35.6 109.466 35.007 107.687 33.821 C 105.908 32.636 104.269 29.232 103.985 26.042 L 107.106 26.042 C 107.645 30.205 110.361 32.896 114.039 32.896 C 116.435 32.896 118.156 32.385 119.202 31.362 C 120.249 30.34 120.772 29.121 120.772 27.705 C 120.772 26.169 120.146 24.926 118.894 23.976 C 117.641 23.026 115.884 22.551 113.622 22.551 L 110.573 22.551 Z  M 144.364 14.693 L 141.315 14.693 C 140.287 11.995 138.412 10.646 135.689 10.646 C 130.692 10.646 128.139 14.018 128.031 22.112 C 128.793 20.466 129.909 19.196 131.379 18.301 C 132.849 17.405 134.401 16.958 136.034 16.958 C 138.502 16.958 140.571 17.82 142.241 19.544 C 143.911 21.268 144.745 24.009 144.745 26.417 C 144.745 28.909 143.859 31.063 142.087 32.878 C 140.314 34.693 138.043 35.6 135.272 35.6 C 132.114 35.6 129.603 34.414 127.74 32.043 C 125.877 29.671 124.945 26.441 124.945 22.352 C 124.945 18.359 125.825 14.95 127.586 12.125 C 129.346 9.3 132.078 7.887 135.78 7.887 C 140.027 7.887 142.888 10.156 144.364 14.693 L 144.364 14.693 Z  M 135.199 32.932 C 137.087 32.932 138.632 32.309 139.836 31.063 C 141.04 29.817 141.642 28.322 141.642 26.58 C 141.642 24.862 141.055 22.714 139.882 21.486 C 138.708 20.258 137.25 19.644 135.508 19.644 C 133.705 19.644 132.135 20.288 130.798 21.576 C 129.461 22.865 128.793 25.05 128.793 26.78 C 128.793 28.377 129.392 29.802 130.59 31.054 C 131.787 32.306 133.324 32.932 135.199 32.932 L 135.199 32.932 Z  M 156.752 35.6 C 153.558 35.6 151.044 34.269 149.211 31.607 C 147.378 28.946 146.462 25.642 146.462 21.698 C 146.462 17.826 147.333 14.557 149.075 11.889 C 150.818 9.221 153.346 7.887 156.661 7.887 C 160.122 7.887 162.714 9.279 164.438 12.061 C 166.162 14.844 167.024 18.111 167.024 21.861 C 167.024 25.528 166.138 28.734 164.365 31.48 C 162.593 34.227 160.055 35.6 156.752 35.6 L 156.752 35.6 Z  M 156.77 32.987 C 159.154 32.987 160.887 31.967 161.97 29.929 C 163.053 27.89 163.594 25.334 163.594 22.261 C 163.594 18.885 163.041 16.078 161.934 13.84 C 160.826 11.602 159.057 10.482 156.625 10.482 C 154.266 10.482 152.545 11.505 151.462 13.549 C 150.379 15.594 149.837 18.28 149.837 21.607 C 149.837 25.068 150.409 27.829 151.553 29.892 C 152.696 31.955 154.435 32.987 156.77 32.987 L 156.77 32.987 Z " fill="rgb(255,255,255)"/><path d=" M 27.435 8.05 L 18.15 21.408 L 27.417 35.074 L 23.28 35.074 L 15.946 23.949 L 8.431 35.074 L 4.53 35.074 L 13.905 21.571 L 4.746 8.05 L 8.865 8.05 L 16.109 19.03 L 23.515 8.05 L 27.435 8.05 Z  M 50.873 26.762 C 50.873 28.105 50.62 29.29 50.114 30.319 C 49.608 31.347 48.928 32.194 48.073 32.86 C 47.061 33.658 45.951 34.227 44.74 34.566 C 43.53 34.904 41.316 35.074 39.45 35.074 L 29.912 35.074 L 29.912 21.952 L 24.493 21.952 L 26.299 18.921 L 29.912 18.921 L 29.912 8.05 L 37.878 8.05 C 39.841 8.05 41.986 8.123 42.961 8.268 C 43.936 8.413 45.207 8.716 46.099 9.176 C 47.086 9.696 47.803 10.364 48.248 11.181 C 48.694 11.998 48.917 12.975 48.917 14.112 C 48.917 15.395 48.591 16.487 47.941 17.388 C 47.291 18.289 46.424 19.012 45.34 19.557 L 45.34 19.702 C 47.158 20.077 48.254 20.878 49.301 22.107 C 50.349 23.335 50.873 24.886 50.873 26.762 L 50.873 26.762 Z  M 45.195 14.584 C 45.195 13.931 45.087 13.38 44.87 12.932 C 44.653 12.485 44.304 12.122 43.823 11.843 C 43.257 11.517 41.557 11.314 40.75 11.236 C 39.943 11.157 38.944 11.118 37.752 11.118 L 33.489 11.118 L 33.489 18.921 L 38.113 18.921 C 39.233 18.921 40.124 18.864 40.786 18.749 C 41.449 18.634 42.738 18.395 43.304 18.032 C 43.87 17.669 44.608 17.2 44.843 16.626 C 45.078 16.051 45.195 15.37 45.195 14.584 L 45.195 14.584 Z  M 47.152 26.907 C 47.152 25.818 46.989 24.953 46.664 24.312 C 46.339 23.67 45.749 23.126 44.894 22.678 C 44.316 22.376 43.614 22.179 42.789 22.088 C 41.964 21.998 40.287 21.952 39.106 21.952 L 33.489 21.952 L 33.489 32.007 L 38.221 32.007 C 39.787 32.007 41.745 31.925 42.744 31.762 C 43.744 31.598 44.563 31.299 45.201 30.863 C 45.875 30.391 46.369 29.853 46.682 29.248 C 46.995 28.643 47.152 27.863 47.152 26.907 L 47.152 26.907 Z  M 54.06 21.299 C 54.06 24.239 55.018 26.792 56.933 28.958 C 58.811 31.16 61.202 32.261 64.104 32.261 C 66.211 32.261 68.259 31.529 70.246 30.065 C 72.907 28.093 74.238 25.34 74.238 21.807 C 74.238 19 73.359 16.611 71.6 14.638 C 69.674 12.473 67.151 11.39 64.032 11.39 C 61.334 11.39 59.004 12.358 57.041 14.294 C 55.054 16.266 54.06 18.601 54.06 21.299 L 54.06 21.299 Z  M 50.267 21.299 C 50.267 17.633 51.694 14.475 54.548 11.825 C 57.27 9.309 60.323 8.05 63.706 8.05 C 67.187 8.05 70.282 9.097 72.991 11.19 C 76.303 13.707 77.959 17.197 77.959 21.662 C 77.959 25.086 76.7 28.207 74.183 31.027 C 71.462 34.015 68.186 35.509 64.357 35.509 C 60.587 35.509 57.354 34.281 54.657 31.825 C 51.73 29.103 50.267 25.594 50.267 21.299 L 50.267 21.299 Z  M 97.484 8.05 L 88.199 21.408 L 97.466 35.074 L 93.33 35.074 L 85.996 23.949 L 78.481 35.074 L 74.579 35.074 L 83.954 21.571 L 74.796 8.05 L 78.915 8.05 L 86.158 19.03 L 93.564 8.05 L 97.484 8.05 Z " fill="rgb(255,255,255)"/></g></svg>